<svg width="364" height="344" viewBox="0 0 364 344" fill="none" xmlns="http://www.w3.org/2000/svg">
<path d="M91.5038 256.161C91.4548 257.381 101.902 273.478 105.161 278.467C105.887 279.58 106.956 280.414 108.211 280.854C109.669 281.365 111.776 281.867 114.15 281.698C117.214 281.479 118.001 277.567 118.191 275.096C118.282 273.924 118.106 272.749 117.692 271.649L109.437 249.737L91.5038 256.161Z" fill="#122937"/>
<path d="M100.168 260.307C100.168 260.307 105.25 261.951 108.039 257.396" stroke="white" stroke-width="0.689243" stroke-miterlimit="10"/>
<path d="M101.403 262.797C101.403 262.797 106.484 264.441 109.274 259.885" stroke="white" stroke-width="0.689243" stroke-miterlimit="10"/>
<path d="M102.638 265.285C102.638 265.285 107.719 266.929 110.509 262.374" stroke="white" stroke-width="0.689243" stroke-miterlimit="10"/>
<path d="M103.874 267.775C103.874 267.775 108.956 269.419 111.745 264.864" stroke="white" stroke-width="0.689243" stroke-miterlimit="10"/>
<path d="M101.129 208.405C101.506 208.018 126.423 214.168 137.139 206.961C137.139 204.729 135.739 202.736 133.639 201.978L115.068 195.281L100.472 204.532L101.129 208.405Z" fill="#122937"/>
<mask id="mask0_2013_628" style="mask-type:luminance" maskUnits="userSpaceOnUse" x="100" y="195" width="38" height="16">
<path d="M101.129 208.405C101.506 208.018 126.423 214.168 137.139 206.961C137.139 204.729 135.739 202.736 133.639 201.978L115.068 195.281L100.472 204.532L101.129 208.405Z" fill="white"/>
</mask>
<g mask="url(#mask0_2013_628)">
<path d="M116.035 200.136C116.035 200.136 120.361 197.004 118.33 192.065" stroke="white" stroke-width="0.689243" stroke-miterlimit="10"/>
<path d="M118.773 200.608C118.773 200.608 123.1 197.477 121.069 192.537" stroke="white" stroke-width="0.689243" stroke-miterlimit="10"/>
<path d="M121.512 201.08C121.512 201.08 125.839 197.948 123.808 193.008" stroke="white" stroke-width="0.689243" stroke-miterlimit="10"/>
<path d="M124.25 201.552C124.25 201.552 128.577 198.42 126.546 193.48" stroke="white" stroke-width="0.689243" stroke-miterlimit="10"/>
</g>
<path d="M62.6248 145.23C62.6248 145.23 63.6375 203.09 89.2944 256.975C89.2944 256.975 108.034 263.943 112.545 247.101C112.545 247.101 105.525 225.146 103.471 205.899C103.471 205.899 113.147 203.91 115.854 195.28C115.854 195.28 112.245 180.804 114.651 161.921C117.057 143.037 119.016 139.693 118.788 125.729L62.6248 145.23Z" fill="#A44926"/>
<mask id="mask1_2013_628" style="mask-type:luminance" maskUnits="userSpaceOnUse" x="62" y="125" width="57" height="134">
<path d="M62.6248 145.23C62.6248 145.23 63.6375 203.09 89.2944 256.975C89.2944 256.975 108.034 263.943 112.545 247.101C112.545 247.101 105.525 225.146 103.471 205.899C103.471 205.899 113.147 203.91 115.854 195.28C115.854 195.28 112.245 180.804 114.651 161.921C117.057 143.037 119.016 139.693 118.788 125.729L62.6248 145.23Z" fill="white"/>
</mask>
<g mask="url(#mask1_2013_628)">
<path d="M102.836 201.459C102.836 201.459 113.33 197.929 116.036 189.299" stroke="#451E10" stroke-width="0.689243" stroke-miterlimit="10"/>
<path d="M103.47 205.899C98.5265 173.214 99.1574 164.073 99.1574 164.073L101.42 162.496C103.159 161.284 104.223 159.322 104.29 157.203L104.695 139.27" stroke="#451E10" stroke-width="0.689243" stroke-miterlimit="10"/>
<path d="M100.265 163.301V142.019" stroke="#451E10" stroke-width="0.689243" stroke-miterlimit="10"/>
<path d="M84.4338 251.055C84.4338 251.055 105.694 259.338 110.812 239.318" stroke="#451E10" stroke-width="0.689243" stroke-miterlimit="10"/>
<path d="M90.0976 252.767C90.0976 252.767 74.7518 218.342 67.9192 175.904C67.9192 175.904 75.658 172.2 73.2399 161.157" stroke="#451E10" stroke-width="0.689243" stroke-miterlimit="10"/>
</g>
<path d="M39.8083 75.3857C40.1986 75.4164 58.5966 38.6496 103.318 43.577C103.318 43.577 114.303 54.5497 114.692 76.5863C115.082 98.6229 118.787 125.729 118.787 125.729C118.787 125.729 96.5555 159.075 62.6239 145.23L55.6034 105.253L39.8083 75.3857Z" fill="#122937"/>
<path d="M62.1172 171.189C63.3063 172.137 65.8647 174.815 67.9194 175.903C67.9194 175.903 75.5793 171.509 73.2401 161.156L70.6994 159.222L62.1172 171.189Z" fill="#FFB19D"/>
<path d="M67.9194 175.903C67.9194 175.903 75.6583 172.199 73.2402 161.156" stroke="#451E10" stroke-width="0.689243" stroke-miterlimit="10"/>
<path d="M39.8086 75.3857C39.8086 75.3857 22.7194 112.357 32.9775 143.532C34.6021 148.469 38.2668 152.931 42.1086 157.68C42.1086 157.68 52.4619 168.933 62.5498 172.864C62.5498 172.864 72.7366 169.627 71.8159 159.008C71.7883 158.693 62.3282 149.441 61.6474 148.523C56.5889 141.7 56.1802 138.108 56.4731 129.483C56.7039 122.704 58.813 111.67 59.0982 104.839C59.3635 98.4804 55.882 76.7619 41.5275 75.3857" fill="#122937"/>
<path d="M158.152 27.9645C158.008 27.112 158.096 25.6415 159.404 26.1452C159.774 26.2878 160.063 26.5822 160.321 26.8835C161.434 28.18 162.201 29.7432 163.312 31.0412C164.275 32.1659 164.257 30.4662 164.451 29.7363C164.763 28.561 164.997 27.3658 165.319 26.1927C165.855 24.2454 166.365 22.2911 166.847 20.33C167.145 19.1209 167.187 18.2178 167.99 17.2663C168.788 16.3218 170.125 17.07 170.43 17.9356C170.637 18.5229 170.629 19.1623 170.588 19.7841C170.435 22.0833 169.856 24.322 169.544 26.5998C169.477 27.0867 169.038 28.3103 169.361 28.7412C169.985 29.573 170.59 27.1082 170.779 26.6389C171.723 24.2845 172.771 21.9729 173.921 19.712C174.28 19.0051 174.644 18.2216 175.398 17.9786C177.493 17.3039 177.547 19.0971 177.381 20.0018C176.96 22.3026 176.296 23.7578 175.301 26.2058C174.812 27.411 173.91 29.0739 173.48 30.503C173.841 30.5053 175.928 27.1772 176.307 26.4542C176.61 25.8753 179.199 20.5684 181.071 21.598C183.122 22.7044 179.76 28.5518 179.031 29.8283C178.708 30.3934 178.235 30.8894 177.427 32.895C177.376 33.0231 181.547 29.1797 181.824 28.9597C182.757 28.2152 183.816 28.9129 184.114 29.9809C184.359 30.8618 183.7 31.5855 183.168 32.2219C178.852 37.3824 176.759 45.227 173.418 50.9258C172.617 52.292 171.529 53.685 169.973 53.9787C169.666 54.0369 169.341 54.0469 169.048 53.935C168.752 53.8215 168.516 53.593 168.291 53.3676C166.624 51.6924 165.128 49.8486 163.827 47.8751C162.693 46.1563 161.124 43.9551 160.748 41.8958C160.352 39.7223 160.541 37.4782 160.055 35.2725C159.667 33.516 159.161 31.7895 158.685 30.0553C158.619 29.8168 158.302 28.8585 158.152 27.9645Z" fill="#FFB19D"/>
<path d="M103.317 43.5772C103.317 43.5772 123.17 54.7937 143.672 64.9269L159.299 37.9122L175.59 48.1297L152.547 89.9635C152.547 89.9635 150.034 94.953 143.288 93.4611C135.05 91.6387 111.589 82.8441 111.589 82.8441L111.419 58.509L103.317 43.5772Z" fill="#122937"/>
<mask id="mask2_2013_628" style="mask-type:luminance" maskUnits="userSpaceOnUse" x="103" y="37" width="73" height="57">
<path d="M103.317 43.5772C103.317 43.5772 123.17 54.7937 143.672 64.9269L159.299 37.9122L175.59 48.1297L152.547 89.9635C152.547 89.9635 150.034 94.953 143.288 93.4611C135.05 91.6387 111.589 82.8441 111.589 82.8441L111.419 58.509L103.317 43.5772Z" fill="white"/>
</mask>
<g mask="url(#mask2_2013_628)">
<path d="M151.694 41.9979L177.503 61.8127" stroke="white" stroke-width="0.689243" stroke-miterlimit="10"/>
</g>
<mask id="mask3_2013_628" style="mask-type:luminance" maskUnits="userSpaceOnUse" x="29" y="43" width="94" height="130">
<path d="M122.519 91.1547C116.827 56.1528 103.318 43.577 103.318 43.577C58.596 38.6496 40.1989 75.4164 39.8086 75.3857C39.8086 75.3857 22.7194 112.357 32.9775 143.532C34.6021 148.468 38.2668 152.931 42.1086 157.68C42.1086 157.68 52.4619 168.933 62.5498 172.864C62.5498 172.864 72.7366 169.627 71.8159 159.008C71.7883 158.693 62.3282 149.441 61.6474 148.523C56.5889 141.7 56.1802 138.108 56.4731 129.483C56.5866 126.15 57.1547 121.786 57.7366 117.399L62.6242 145.23C96.5558 159.075 118.787 125.729 118.787 125.729" fill="white"/>
</mask>
<g mask="url(#mask3_2013_628)">
<path d="M91.7773 75.3857C93.8451 86.383 95.6705 97.4239 97.4546 108.471C99.1781 119.146 101.286 130.844 101.914 141.656" stroke="white" stroke-width="0.689243" stroke-miterlimit="10"/>
<path d="M89.2935 77.0594C89.2935 77.0594 85.8067 78.3528 83.6316 83.7609C83.6316 83.7609 83.1026 86.3477 79.8105 82.7029C76.5184 79.0581 61.1181 56.8536 70.9937 49.9175" stroke="white" stroke-width="0.689243" stroke-miterlimit="10"/>
<path d="M94.5435 75.3858C94.5435 75.3858 98.2925 75.326 100.084 76.6592C100.401 76.8946 100.857 76.6953 100.92 76.3058C101.448 73.0597 102.969 64.1854 97.6224 55.5802" stroke="white" stroke-width="0.689243" stroke-miterlimit="10"/>
<path d="M55.6833 170.229C55.6833 170.229 67.8766 166.355 66.7741 153.644" stroke="white" stroke-width="0.824945" stroke-miterlimit="10"/>
<path d="M57.9823 113.184C58.5565 110.413 58.9828 107.625 59.0985 104.839C59.3638 98.4804 55.8823 76.7619 41.5278 75.3857" stroke="white" stroke-width="0.689243" stroke-miterlimit="10"/>
<path d="M103.317 43.577C103.317 43.577 114.302 54.5497 114.692 76.5863C114.72 78.1994 114.87 80.882 115.09 84.1396" stroke="white" stroke-width="0.689243" stroke-miterlimit="10"/>
<path d="M50.3203 79.6292C50.3203 79.6292 57.4611 68.5784 67.9194 59.481" stroke="white" stroke-width="0.689243" stroke-miterlimit="10"/>
<path d="M96.8431 81.5583C96.8131 81.9432 96.4766 82.2307 96.0917 82.2008C95.7068 82.1709 95.4193 81.8343 95.45 81.4494C95.4807 81.0645 95.8165 80.777 96.2006 80.8069C96.5862 80.8368 96.8737 81.1734 96.8431 81.5583Z" fill="white"/>
<path d="M97.6291 87.0777C97.5992 87.4625 97.2626 87.75 96.8778 87.7201C96.4929 87.6902 96.2054 87.3536 96.2353 86.9688C96.2652 86.5839 96.6018 86.2964 96.9866 86.3271C97.3715 86.3577 97.659 86.6935 97.6291 87.0777Z" fill="white"/>
<path d="M98.414 92.5976C98.3841 92.9825 98.0475 93.27 97.6627 93.2401C97.2778 93.2102 96.9903 92.8736 97.0202 92.4887C97.0501 92.1039 97.3867 91.8164 97.7715 91.8463C98.1564 91.8769 98.4439 92.2135 98.414 92.5976Z" fill="white"/>
<path d="M99.1992 98.1177C99.1693 98.5026 98.8327 98.7901 98.4478 98.7602C98.063 98.7303 97.7755 98.3937 97.8054 98.0089C97.8353 97.624 98.1718 97.3365 98.5567 97.3664C98.9416 97.3963 99.2291 97.7336 99.1992 98.1177Z" fill="white"/>
<path d="M99.9841 103.638C99.9542 104.023 99.6176 104.31 99.2327 104.28C98.8479 104.25 98.5604 103.914 98.5903 103.529C98.6202 103.144 98.9567 102.857 99.3416 102.887C99.7265 102.916 100.014 103.254 99.9841 103.638Z" fill="white"/>
<path d="M100.769 109.158C100.739 109.543 100.403 109.83 100.019 109.8C99.6345 109.769 99.3463 109.433 99.3762 109.049C99.4061 108.665 99.7426 108.377 100.127 108.407C100.512 108.436 100.799 108.773 100.769 109.158Z" fill="white"/>
<path d="M101.554 114.678C101.524 115.063 101.188 115.35 100.804 115.32C100.419 115.291 100.131 114.954 100.161 114.569C100.191 114.184 100.528 113.897 100.912 113.927C101.297 113.957 101.585 114.293 101.554 114.678Z" fill="white"/>
<path d="M102.34 120.198C102.31 120.583 101.974 120.871 101.589 120.841C101.204 120.811 100.916 120.474 100.947 120.089C100.977 119.704 101.314 119.417 101.698 119.448C102.082 119.478 102.37 119.813 102.34 120.198Z" fill="white"/>
<path d="M103.125 125.718C103.096 126.103 102.759 126.39 102.374 126.361C101.989 126.331 101.702 125.994 101.732 125.609C101.762 125.224 102.098 124.937 102.483 124.967C102.868 124.997 103.155 125.333 103.125 125.718Z" fill="white"/>
<path d="M103.911 131.238C103.881 131.623 103.544 131.911 103.159 131.881C102.774 131.851 102.487 131.514 102.517 131.129C102.547 130.745 102.883 130.457 103.268 130.487C103.653 130.518 103.94 130.853 103.911 131.238Z" fill="white"/>
<path d="M104.695 136.758C104.665 137.143 104.329 137.431 103.944 137.401C103.559 137.371 103.271 137.034 103.302 136.649C103.332 136.265 103.669 135.977 104.053 136.007C104.437 136.038 104.725 136.373 104.695 136.758Z" fill="white"/>
</g>
<path d="M71.8164 43.577V56.0969C71.8164 58.4023 72.616 60.6356 74.0942 62.4043C76.9547 65.826 82.6289 71.389 91.7776 75.3857C91.7776 75.3857 96.1592 66.6218 95.348 49.7442L71.8164 43.577Z" fill="#FFB19D"/>
<path d="M95.3984 56.6743C93.6649 58.1256 91.3412 58.3794 91.3412 58.3794C83.5532 59.6773 78.0638 55.1355 74.6299 50.5938C74.6299 50.5938 81.8481 67.0459 94.8004 63.7484L95.3984 56.6743Z" fill="#052A3D"/>
<path d="M101.651 28.1938C101.741 28.2298 101.913 28.1991 102.133 28.1485C103.136 27.9177 105.143 27.2668 104.973 30.5804C104.765 34.62 101.978 38.4534 101.978 38.4534" fill="#FFB19D"/>
<path d="M70.1711 42.5828C70.1711 42.5828 76.6848 60.8221 91.3414 58.3795C105.998 55.9368 101.601 21.2493 101.601 21.2493L99.4843 13.5955C99.4843 13.5955 92.6448 9.68702 92.3189 9.19865C91.9931 8.71027 80.8134 7.24438 80.8134 7.24438L72.6146 8.87281C72.6146 8.87281 67.2401 14.8981 66.9151 15.3865C66.5892 15.8749 66.4267 24.3436 66.4267 24.3436L69.7556 34.0835C69.7556 34.0835 63.0066 28.4146 64.9608 36.7201C66.9143 45.0255 70.1711 42.5828 70.1711 42.5828Z" fill="#FFB19D"/>
<path d="M89.2935 43.2583C90.1376 43.2583 91.3643 42.8673 92.3364 42.1343C92.9735 41.6544 93.1031 40.7512 92.6293 40.1103C91.9722 39.2225 91.0032 37.8294 90.2771 36.4341" stroke="black" stroke-width="0.689243" stroke-miterlimit="10" stroke-linecap="round" stroke-linejoin="round"/>
<path d="M80.2842 44.7738C80.2842 44.7738 81.3966 48.2783 86.2405 48.1748" stroke="black" stroke-width="0.689243" stroke-miterlimit="10" stroke-linecap="round" stroke-linejoin="round"/>
<path d="M65.8069 34.5233C65.8069 34.5233 69.1611 35.4801 69.7545 39.2598" stroke="black" stroke-width="0.689243" stroke-miterlimit="10" stroke-linecap="round" stroke-linejoin="round"/>
<path d="M91.5237 30.0436C91.5237 30.0436 93.9916 28.5609 97.6556 29.6235" stroke="black" stroke-width="0.689243" stroke-miterlimit="10" stroke-linecap="round" stroke-linejoin="round"/>
<path d="M95.5379 31.2198C95.1936 31.8163 94.4315 32.0217 93.8351 31.6775C93.2386 31.334 93.0331 30.5712 93.3774 29.9747C93.7216 29.3782 94.4837 29.1728 95.0802 29.517C95.6766 29.8605 95.8813 30.6226 95.5379 31.2198Z" fill="black"/>
<path d="M76.4373 31.1882C76.4373 31.1882 78.9052 29.7055 82.5691 30.7673" stroke="black" stroke-width="0.689243" stroke-miterlimit="10" stroke-linecap="round" stroke-linejoin="round"/>
<path d="M80.4505 32.3643C80.107 32.9608 79.3441 33.1663 78.7477 32.822C78.1512 32.4778 77.9457 31.7157 78.29 31.1192C78.6342 30.5228 79.3963 30.3173 79.9927 30.6615C80.5892 31.005 80.7939 31.7671 80.4505 32.3643Z" fill="black"/>
<path d="M74.6877 28.6C74.9261 28.7081 75.347 28.577 75.5525 28.5203C76.1926 28.3447 76.8351 28.2412 77.4929 28.1393C79.0362 27.9008 80.5834 27.6861 82.1306 27.4768C82.612 27.4117 83.0943 27.3473 83.5757 27.2844C83.7107 27.2668 83.9054 27.2767 84.0319 27.2246C84.3455 27.095 84.3003 26.6665 84.1155 26.4457C83.8678 26.1505 83.4362 26.2088 83.0943 26.1359C81.7894 25.8584 80.4469 25.6652 79.1099 25.6897C78.061 25.7089 77.0521 26.1198 76.1627 26.6519C75.8039 26.8666 75.4359 27.0674 75.1001 27.3181C74.8632 27.4952 74.4991 28.012 74.5144 28.3187C74.5221 28.4689 74.5888 28.5548 74.6877 28.6Z" fill="#122937"/>
<path d="M99.37 27.2269C99.1438 27.358 98.7114 27.2698 98.5021 27.2338C97.8474 27.1226 97.198 27.0835 96.5341 27.0475C94.9746 26.9631 93.4145 26.9033 91.8535 26.8497C91.3682 26.8328 90.8821 26.8167 90.396 26.8014C90.2596 26.7968 90.0671 26.8267 89.9368 26.7876C89.6117 26.6902 89.614 26.2586 89.7766 26.0209C89.9943 25.7027 90.429 25.7173 90.7618 25.6115C92.0329 25.2051 93.3493 24.8801 94.6818 24.7712C95.7275 24.6861 96.7725 24.9951 97.7101 25.4359C98.0881 25.6138 98.4745 25.7771 98.8333 25.9941C99.0871 26.1474 99.5003 26.625 99.5157 26.9309C99.5226 27.0804 99.4635 27.1724 99.37 27.2269Z" fill="#122937"/>
<path d="M68.6057 34.206C69.2489 35.0394 69.8922 35.8728 70.5354 36.7062C70.5738 36.756 70.6144 36.8074 70.6711 36.835C70.8467 36.9208 71.033 36.7353 71.1204 36.5605C72.1086 34.5894 69.7197 32.4342 69.9175 30.2385C70.0854 28.3685 71.8426 27.082 72.1991 25.2367C72.5004 23.6772 72.6806 21.943 72.1983 20.4112C71.7383 18.9514 71.0606 17.3951 71.5766 15.9537C72.1677 14.3015 74.1097 13.5402 75.8623 13.4643C77.5076 13.393 79.169 13.7526 80.6379 14.4963C83.2799 15.8349 84.1807 15.1962 86.1695 13.2819C87.5242 11.9777 89.5973 11.7286 91.1537 12.9698C91.8728 13.5433 92.4003 14.3897 93.2528 14.7332C94.0165 15.0406 94.8897 14.8788 95.6894 15.0743C96.8854 15.3657 99.7205 15.5481 100.164 16.6966C100.876 18.539 100.727 20.8689 100.959 22.8163C101.298 25.6553 101.637 28.4943 101.976 31.3333C102.009 31.6093 102.047 31.8991 102.211 32.1237C102.376 32.3484 102.712 32.4726 102.941 32.3139C103.162 32.1605 103.176 31.8439 103.173 31.574C103.161 30.3504 103.273 29.126 103.508 27.9254C103.729 26.7953 104.224 25.9152 104.561 24.8502C105.264 22.6338 105.746 20.1198 104.686 17.9317C104.147 16.8216 103.29 15.8809 102.816 14.7416C101.868 12.4607 102.603 9.81417 102.024 7.41293C101.356 4.63986 98.5606 2.38583 95.7384 2.80214C94.373 3.00377 93.0849 3.76508 91.7095 3.65775C90.9651 3.59948 90.2666 3.28821 89.5981 2.95701C87.5327 1.93349 85.547 0.655438 83.2937 0.169365C81.0404 -0.316709 78.3586 0.213832 77.1036 2.14663C76.8391 2.55373 76.6397 3.01681 76.2763 3.33881C75.6982 3.85172 74.8541 3.88852 74.0821 3.91842C71.3366 4.02499 68.5221 4.40066 66.1255 5.74388C64.8329 6.46839 63.5694 7.85224 64.0332 9.25909C64.1889 9.7306 64.5231 10.1262 64.6887 10.5946C65.033 11.5722 64.5691 12.6677 63.8891 13.4513C63.2098 14.2341 62.3274 14.8144 61.6067 15.5596C60.4229 16.784 59.7559 18.8364 60.8255 20.162C61.136 20.5469 61.5592 20.8252 61.8858 21.1963C62.8572 22.301 62.7836 23.9762 62.4079 25.3984C62.0322 26.8206 61.4081 28.2175 61.4618 29.688C61.5155 31.1585 62.5788 32.7493 64.0493 32.6995C64.586 32.6811 65.0959 32.4488 65.6318 32.412C66.7143 32.3369 67.6911 33.0614 68.411 33.8733C69.1301 34.6852 69.7197 35.6343 70.5975 36.2714" fill="#122937"/>
<path d="M178.948 71.9626L199.589 92.8676L207.229 80.0327L222.822 102.516L208.26 119.549C208.26 119.549 204.398 124.501 199.18 121.117C193.962 117.734 165.906 81.3813 165.906 81.3813L178.948 71.9626Z" fill="#F5804C"/>
<path d="M165.907 81.382C165.907 81.382 158.35 75.7477 157.741 71.5424C157.131 67.3372 162.224 65.383 162.224 65.383L171.406 62.5002L175.611 64.4438C175.611 64.4438 176.862 65.0556 177.415 67.1992C177.524 67.6255 179.292 71.2296 178.949 71.9633C177.566 74.9189 173.244 78.9163 173.244 78.9163L165.907 81.382Z" fill="#F5804C"/>
<path d="M162.565 66.2455C161.094 64.0697 159.623 61.8938 158.151 59.718C157.649 58.9759 157.125 58.154 157.205 57.2616C157.284 56.3661 158.055 55.5803 158.949 55.4829C160.183 55.3479 161.218 56.3584 162.013 57.3122C163.697 59.3316 165.224 61.4821 166.576 63.7377C166.586 63.7553 166.748 63.9654 166.76 63.9815C165.824 65.3178 164.191 66.0914 162.565 66.2455Z" fill="#F5804C"/>
<path d="M166.399 64.1002C165.451 61.6507 164.508 58.8799 163.56 56.4304C163.237 55.5947 162.91 54.677 163.187 53.8252C163.465 52.9696 164.391 52.377 165.284 52.4812C166.518 52.6262 167.301 53.8413 167.863 54.9492C169.053 57.2945 170.061 59.731 170.875 62.2319C170.881 62.2518 170.992 62.4918 171.001 62.5109C169.789 63.6034 168.018 64.3134 166.399 64.1002Z" fill="#F5804C"/>
<path d="M170.999 62.7203L166.881 61.854C166.881 61.854 164.754 61.3963 164.436 63.5169C164.178 65.2396 167.389 66.346 168.602 66.7002C168.792 66.7554 168.877 66.9769 168.771 67.1433C168.477 67.6018 168.161 68.6046 168.929 70.4822" stroke="black" stroke-width="0.661489" stroke-miterlimit="10" stroke-linecap="round" stroke-linejoin="round"/>
<path d="M161.348 65.8255C162.078 65.1601 163.173 65.088 163.891 65.3632C164.609 65.6385 165.15 66.2388 165.621 66.846C165.93 67.2423 166.222 67.6518 166.497 68.0719C166.869 68.6408 167.218 69.2495 167.313 69.9234C167.531 71.4506 165.607 73.0162 164.44 71.9865C164.214 71.788 164.006 71.584 163.81 71.3786" stroke="black" stroke-width="0.661489" stroke-miterlimit="10" stroke-linecap="round" stroke-linejoin="round"/>
<path d="M158.17 68.5456C158.5 67.8502 159.414 67.5942 160.159 67.7897C160.903 67.9852 161.505 68.5226 162.041 69.0754C162.39 69.4357 162.726 69.8106 163.044 70.1986C163.477 70.7238 163.889 71.2911 164.058 71.9504C164.297 72.8835 163.718 73.9484 162.88 74.3754C162.092 74.7756 161.336 74.3172 160.714 73.8342C159.964 73.2523 159.25 72.6397 158.556 71.9926" stroke="black" stroke-width="0.661489" stroke-miterlimit="10" stroke-linecap="round" stroke-linejoin="round"/>
<path d="M226.047 220.806C225.601 220.5 202.648 233.016 190.719 228.069C190.278 225.88 191.257 223.65 193.166 222.493L210.047 212.258L226.182 218.442L226.047 220.806Z" fill="#122937"/>
<mask id="mask4_2013_628" style="mask-type:luminance" maskUnits="userSpaceOnUse" x="190" y="212" width="37" height="18">
<path d="M226.047 220.806C225.601 220.5 202.648 233.016 190.719 228.069C190.278 225.88 191.257 223.65 193.166 222.493L210.047 212.258L226.182 218.442L226.047 220.806Z" fill="white"/>
</mask>
<g mask="url(#mask4_2013_628)">
<path d="M210.468 219.716C210.468 219.716 205.608 217.501 206.623 212.257" stroke="white" stroke-width="0.689243" stroke-miterlimit="10"/>
<path d="M207.877 220.72C207.877 220.72 203.017 218.505 204.033 213.261" stroke="white" stroke-width="0.689243" stroke-miterlimit="10"/>
<path d="M205.286 221.723C205.286 221.723 200.426 219.508 201.441 214.264" stroke="white" stroke-width="0.689243" stroke-miterlimit="10"/>
<path d="M202.695 222.727C202.695 222.727 197.835 220.512 198.85 215.268" stroke="white" stroke-width="0.689243" stroke-miterlimit="10"/>
</g>
<path d="M263.891 244.987C264.163 246.178 256.833 263.912 254.54 269.413C254.028 270.64 253.13 271.655 251.977 272.317C250.636 273.087 248.658 273.965 246.292 274.232C243.239 274.577 241.751 270.874 241.113 268.481C240.811 267.345 240.768 266.158 240.975 265L245.087 241.948L263.891 244.987Z" fill="#122937"/>
<path d="M256.13 250.646C256.13 250.646 251.434 253.192 247.859 249.223" stroke="white" stroke-width="0.689243" stroke-miterlimit="10"/>
<path d="M255.37 253.319C255.37 253.319 250.674 255.865 247.1 251.895" stroke="white" stroke-width="0.689243" stroke-miterlimit="10"/>
<path d="M254.61 255.992C254.61 255.992 249.914 258.538 246.34 254.568" stroke="white" stroke-width="0.689243" stroke-miterlimit="10"/>
<path d="M253.85 258.665C253.85 258.665 249.155 261.211 245.58 257.241" stroke="white" stroke-width="0.689243" stroke-miterlimit="10"/>
<path d="M282.847 163.36L266.929 245.191C266.929 245.191 253.077 257.594 242.732 241.102L248.134 176.91L237.202 169.576L227.883 218.336C227.883 218.336 210.449 223.05 207.885 211.311L216.551 144.017L243.399 146.037L282.847 163.36Z" fill="#FBC02E"/>
<mask id="mask5_2013_628" style="mask-type:luminance" maskUnits="userSpaceOnUse" x="207" y="144" width="76" height="106">
<path d="M282.847 163.36L266.929 245.191C266.929 245.191 253.077 257.594 242.732 241.102L248.134 176.91L237.202 169.576L227.883 218.336C227.883 218.336 210.449 223.05 207.885 211.311L216.551 144.017L243.399 146.037L282.847 163.36Z" fill="white"/>
</mask>
<g mask="url(#mask5_2013_628)">
<path d="M270.798 239.581C270.798 239.581 253.933 251.984 241.34 235.493" stroke="#BD9123" stroke-width="0.837442" stroke-miterlimit="10"/>
<path d="M231.805 214.06C231.805 214.06 210.664 218.774 207.555 207.035" stroke="#BD9123" stroke-width="0.758934" stroke-miterlimit="10"/>
<path d="M223.178 214.99L231.806 166.234" stroke="#BD9123" stroke-width="0.758934" stroke-miterlimit="10"/>
<path d="M245.3 172.819L243.141 171.104C241.481 169.786 240.541 167.761 240.606 165.643L241.319 147.719" stroke="#BD9123" stroke-width="0.758934" stroke-miterlimit="10"/>
<path d="M244.244 171.98L245.569 150.739" stroke="#BD9123" stroke-width="0.758934" stroke-miterlimit="10"/>
<path d="M264.35 242.79C265.005 242.557 275.718 170.006 275.718 170.006" stroke="#BD9123" stroke-width="0.837442" stroke-miterlimit="10"/>
</g>
<path d="M230.707 146.35C230.707 146.35 245.154 156.651 260.307 156.09L268.483 77.5488L239.953 74.6461L230.707 146.35Z" fill="white"/>
<path d="M216.863 62.4611C216.863 62.4611 258.485 37.6667 292.581 74.9579C292.581 74.9579 310.259 87.6779 306.962 131.513C306.962 131.513 293.304 140.162 278.02 130.756L277.776 150.128L252.271 163.613C252.271 163.613 250.078 117.391 262.864 77.5485L245.222 77.35C245.222 77.35 236.017 137.758 234.871 161.038L214.746 145.17L218.038 106.135C218.038 106.135 204.87 99.52 202.754 82.3694L216.863 62.4611Z" fill="#C4B0FC"/>
<mask id="mask6_2013_628" style="mask-type:luminance" maskUnits="userSpaceOnUse" x="202" y="54" width="106" height="110">
<path d="M216.863 62.4611C216.863 62.4611 258.485 37.6667 292.581 74.9579C292.581 74.9579 310.259 87.6779 306.962 131.513C306.962 131.513 293.304 140.162 278.02 130.756L277.776 150.128L252.271 163.613C252.271 163.613 250.078 117.391 262.864 77.5485L245.222 77.35C245.222 77.35 236.017 137.758 234.871 161.038L214.746 145.17L218.038 106.135C218.038 106.135 204.87 99.52 202.754 82.3694L216.863 62.4611Z" fill="white"/>
</mask>
<g mask="url(#mask6_2013_628)">
<path d="M218.591 96.3689C218.591 96.3689 208.077 88.5235 205.96 71.3729" stroke="#3400C3" stroke-width="0.689243" stroke-miterlimit="10"/>
<path d="M308.473 122.378C308.473 122.378 294.65 132.15 278.048 121.934" stroke="#3400C3" stroke-width="0.748584" stroke-miterlimit="10"/>
<path d="M243.505 82.8247L240.053 84.8442C239.582 85.1976 238.899 85.0067 238.691 84.4555C237.878 82.3126 236.415 77.0961 238.023 70.2535" stroke="#3400C3" stroke-width="0.689243" stroke-miterlimit="10"/>
<path d="M262.73 93.2024C262.591 93.6279 262.133 93.8602 261.708 93.7215C261.282 93.5827 261.05 93.125 261.189 92.6995C261.328 92.274 261.785 92.0417 262.211 92.1804C262.636 92.3192 262.869 92.7761 262.73 93.2024Z" fill="#3400C3"/>
<path d="M262.11 99.6409C261.972 100.066 261.514 100.299 261.089 100.16C260.663 100.021 260.431 99.5635 260.569 99.138C260.708 98.7125 261.166 98.4794 261.591 98.619C262.017 98.7577 262.249 99.2154 262.11 99.6409Z" fill="#3400C3"/>
<path d="M261.491 106.08C261.352 106.505 260.895 106.737 260.469 106.599C260.044 106.46 259.811 106.002 259.95 105.577C260.089 105.151 260.547 104.918 260.972 105.058C261.397 105.197 261.63 105.654 261.491 106.08Z" fill="#3400C3"/>
<path d="M260.871 112.519C260.732 112.944 260.275 113.178 259.849 113.038C259.424 112.899 259.191 112.442 259.33 112.016C259.469 111.59 259.926 111.358 260.352 111.497C260.777 111.636 261.011 112.093 260.871 112.519Z" fill="#3400C3"/>
<path d="M260.251 118.957C260.112 119.383 259.655 119.615 259.229 119.476C258.804 119.338 258.571 118.88 258.71 118.454C258.849 118.029 259.307 117.797 259.732 117.935C260.158 118.074 260.39 118.532 260.251 118.957Z" fill="#3400C3"/>
<path d="M259.632 125.397C259.493 125.822 259.035 126.055 258.61 125.916C258.184 125.777 257.952 125.319 258.091 124.894C258.229 124.468 258.687 124.236 259.113 124.375C259.538 124.514 259.771 124.971 259.632 125.397Z" fill="#3400C3"/>
<path d="M259.012 131.835C258.873 132.261 258.416 132.493 257.99 132.354C257.565 132.216 257.332 131.758 257.471 131.332C257.61 130.907 258.068 130.675 258.493 130.813C258.919 130.952 259.151 131.41 259.012 131.835Z" fill="#3400C3"/>
<path d="M258.393 138.274C258.254 138.699 257.796 138.932 257.371 138.793C256.945 138.654 256.713 138.196 256.852 137.771C256.99 137.345 257.448 137.112 257.874 137.252C258.299 137.391 258.531 137.848 258.393 138.274Z" fill="#3400C3"/>
<path d="M257.773 144.713C257.635 145.139 257.177 145.372 256.751 145.232C256.326 145.093 256.094 144.636 256.232 144.21C256.371 143.785 256.829 143.552 257.254 143.691C257.679 143.83 257.912 144.288 257.773 144.713Z" fill="#3400C3"/>
<path d="M257.154 151.152C257.015 151.577 256.557 151.81 256.132 151.671C255.706 151.532 255.474 151.075 255.613 150.649C255.752 150.224 256.209 149.991 256.635 150.13C257.06 150.269 257.293 150.726 257.154 151.152Z" fill="#3400C3"/>
<path d="M256.534 157.59C256.395 158.016 255.937 158.248 255.512 158.109C255.086 157.971 254.854 157.513 254.993 157.087C255.132 156.662 255.589 156.43 256.015 156.568C256.44 156.708 256.673 157.165 256.534 157.59Z" fill="#3400C3"/>
<path d="M261.808 86.3707L265.071 89.9373C265.998 91.0957 267.838 90.7676 268.304 89.3592C270.438 82.9183 274.281 68.1284 268.482 58.584" stroke="#3400C3" stroke-width="0.689243" stroke-miterlimit="10"/>
<path d="M278.02 130.756C277.865 125.696 277.711 120.636 277.557 115.576C277.301 107.192 275.956 98.0255 278.578 89.9271C280.143 85.0917 283.061 81.3971 286.981 78.2476" stroke="#3400C3" stroke-width="0.689243" stroke-miterlimit="10"/>
<path d="M218.039 106.136L219.964 72.0974" stroke="#3400C3" stroke-width="0.689243" stroke-miterlimit="10"/>
</g>
<path d="M270.761 31.702C270.761 31.702 273.341 49.663 268.483 53.9817L262.865 55.492C262.865 55.492 258.425 39.6341 258.754 39.5137C259.083 39.3933 260.632 35.1559 260.632 35.1559L270.761 31.702Z" fill="#122937"/>
<path d="M230.554 52.0343C230.474 52.0964 230.292 52.1156 230.056 52.1278C228.979 52.1846 226.77 52.1079 227.897 55.3954C229.271 59.4044 233.184 62.4611 233.184 62.4611" fill="#F5804C"/>
<path d="M266.411 57.4478C266.411 57.4478 265.11 77.6973 249.643 79.4637C239.949 80.5708 234.141 66.7606 231.156 56.2977C229.447 50.3077 228.593 44.1076 228.537 37.8791L228.527 36.7045C228.527 36.7045 234.289 30.7957 234.476 30.2092C234.663 29.6235 245.502 24.923 245.502 24.923L254.229 24.1985C254.229 24.1985 261.38 28.7173 261.849 29.116C262.318 29.5139 260.747 35.8865 260.747 35.8865L262.864 51.562C262.864 51.562 269.542 41.1106 269.969 50.0394C270.396 58.9688 266.411 57.4478 266.411 57.4478Z" fill="#F5804C"/>
<path d="M236.438 51.6217C236.903 52.1737 237.727 52.2443 238.279 51.7797C238.831 51.3151 238.902 50.4909 238.437 49.9389C237.972 49.3869 237.148 49.3163 236.596 49.7809C236.044 50.2455 235.974 51.0697 236.438 51.6217Z" fill="black"/>
<path d="M250.905 50.1045C251.37 50.6565 252.194 50.7271 252.746 50.2625C253.298 49.7979 253.369 48.9737 252.904 48.4217C252.44 47.8697 251.615 47.7991 251.063 48.2637C250.511 48.7283 250.441 49.5525 250.905 50.1045Z" fill="black"/>
<path d="M244.539 63.0284C243.692 63.2799 242.342 63.2523 241.148 62.8061C240.365 62.5132 239.966 61.6453 240.251 60.8602C240.646 59.7731 241.204 58.0849 241.518 56.4672" stroke="black" stroke-width="0.722057" stroke-miterlimit="10" stroke-linecap="round" stroke-linejoin="round"/>
<path d="M268.482 48.072C268.482 48.072 265.379 50.0033 265.872 53.9816" stroke="black" stroke-width="0.722057" stroke-miterlimit="10" stroke-linecap="round" stroke-linejoin="round"/>
<path d="M256.829 46.1976C256.599 46.3479 256.142 46.2804 255.921 46.2551C255.23 46.1761 254.548 46.1731 253.851 46.1746C252.215 46.1769 250.579 46.2045 248.943 46.2382C248.434 46.249 247.925 46.2605 247.416 46.2727C247.274 46.2766 247.073 46.318 246.935 46.285C246.589 46.2022 246.567 45.7506 246.722 45.4923C246.931 45.1465 247.387 45.1373 247.729 45.0062C249.035 44.5078 250.393 44.0915 251.781 43.9006C252.869 43.7511 253.98 44.0133 254.987 44.4204C255.393 44.5845 255.807 44.7332 256.195 44.9387C256.469 45.0844 256.928 45.5597 256.962 45.8794C256.98 46.0358 256.924 46.1355 256.829 46.1976Z" fill="#122937"/>
<path d="M231.269 48.502C231.524 48.6025 231.958 48.443 232.17 48.3732C232.83 48.1555 233.497 48.0129 234.179 47.8718C235.781 47.5399 237.388 47.234 238.997 46.9327C239.497 46.8391 239.998 46.7464 240.499 46.6544C240.639 46.6283 240.844 46.6291 240.973 46.5677C241.294 46.4159 241.224 45.9689 241.019 45.7481C240.743 45.4522 240.295 45.5365 239.934 45.4783C238.554 45.2567 237.138 45.1264 235.741 45.223C234.644 45.2989 233.61 45.7826 232.708 46.3868C232.344 46.6306 231.969 46.8598 231.631 47.1404C231.393 47.339 231.039 47.8987 231.072 48.2184C231.089 48.374 231.164 48.4606 231.269 48.502Z" fill="#122937"/>
<path d="M246.919 66.391C246.919 66.391 255.74 61.2865 255.65 61.7036C255.559 62.1199 256.136 67.0235 250.251 69.2224L246.919 66.391Z" fill="white"/>
<path d="M245.222 77.3507L247.116 80.4726C249.89 85.045 256.278 85.8393 259.982 81.9814C260.032 81.9293 260.082 81.8764 260.131 81.8235L262.048 79.7588C267.008 74.4189 267.202 66.6195 266.504 59.8045C266.418 58.955 265.791 56.8198 266.127 56.0608L262.864 63.4079L259.876 71.3905L252.202 75.9269L245.222 77.3507Z" fill="#F5804C"/>
<mask id="mask7_2013_628" style="mask-type:luminance" maskUnits="userSpaceOnUse" x="245" y="56" width="22" height="29">
<path d="M245.222 77.3507L247.116 80.4726C249.89 85.045 256.278 85.8393 259.982 81.9814C260.032 81.9293 260.082 81.8764 260.131 81.8235C260.131 81.8235 262.048 79.7596 262.048 79.7588C267.008 74.4189 267.202 66.6195 266.504 59.8045C266.418 58.955 265.791 56.8198 266.127 56.0608L262.864 63.4079L258.39 69.2208L252.202 75.9269L245.222 77.3507Z" fill="white"/>
</mask>
<g mask="url(#mask7_2013_628)">
<path d="M245.077 79.1794C254.629 78.9632 260.175 73.0429 262.864 66.9302C262.864 66.9302 260.386 81.5484 247.644 82.2875C246.815 82.3358 246.054 81.0654 245.588 80.1661L245.077 79.1794Z" fill="#052A3D"/>
</g>
<path d="M227.585 30.9745C227.585 30.9745 228.427 6.48831 259.479 11.1405C261.887 11.5008 263.724 13.3593 263.603 15.496C263.566 16.1423 263.357 16.6514 262.833 16.7894C262.833 16.7894 267.711 21.4439 269.209 25.0503C269.209 25.0503 252.154 36.4332 227.585 30.9745Z" fill="#1255FF"/>
<path d="M253.748 14.9233C253.748 14.9233 258.602 14.8543 262.833 16.7894" stroke="black" stroke-width="0.674293" stroke-miterlimit="10" stroke-linecap="round" stroke-linejoin="round"/>
<path d="M227.632 39.3366C227.632 39.3366 253.749 44.343 270.8 31.817L269.209 25.0503C269.209 25.0503 251.75 34.0028 227.585 30.9744L227.632 39.3366Z" fill="#1255FF"/>
<mask id="mask8_2013_628" style="mask-type:luminance" maskUnits="userSpaceOnUse" x="227" y="25" width="44" height="16">
<path d="M227.632 39.3366C227.632 39.3366 253.749 44.343 270.8 31.817L269.209 25.0503C269.209 25.0503 251.75 34.0028 227.585 30.9744L227.632 39.3366Z" fill="white"/>
</mask>
<g mask="url(#mask8_2013_628)">
<path d="M230.424 30.1311L230.746 42.043" stroke="black" stroke-width="0.674293" stroke-miterlimit="10" stroke-linecap="round" stroke-linejoin="round"/>
<path d="M234.507 29.6089L236.742 42.6202" stroke="black" stroke-width="0.674293" stroke-miterlimit="10" stroke-linecap="round" stroke-linejoin="round"/>
<path d="M240.696 30.1311L240.492 43.712" stroke="black" stroke-width="0.674293" stroke-miterlimit="10" stroke-linecap="round" stroke-linejoin="round"/>
<path d="M244.028 30.9131L246.417 43.8385" stroke="black" stroke-width="0.674293" stroke-miterlimit="10" stroke-linecap="round" stroke-linejoin="round"/>
<path d="M248.179 30.1311L252.445 41.412" stroke="black" stroke-width="0.674293" stroke-miterlimit="10" stroke-linecap="round" stroke-linejoin="round"/>
<path d="M253.748 28.7212L256.381 41.3974" stroke="black" stroke-width="0.674293" stroke-miterlimit="10" stroke-linecap="round" stroke-linejoin="round"/>
<path d="M258.713 26.8627L261.314 38.4219" stroke="black" stroke-width="0.674293" stroke-miterlimit="10" stroke-linecap="round" stroke-linejoin="round"/>
<path d="M262.833 25.7964L266.634 36.1151" stroke="black" stroke-width="0.674293" stroke-miterlimit="10" stroke-linecap="round" stroke-linejoin="round"/>
<path d="M267.11 24.3566L269.007 37.3763" stroke="black" stroke-width="0.674293" stroke-miterlimit="10" stroke-linecap="round" stroke-linejoin="round"/>
</g>
<path d="M269.209 25.0503C269.209 25.0503 251.382 34.3992 227.585 30.9744" stroke="black" stroke-width="0.674293" stroke-miterlimit="10" stroke-linecap="round" stroke-linejoin="round"/>
<path d="M223.177 181.893C223.059 183.539 221.63 184.778 219.984 184.661C218.338 184.544 217.099 183.115 217.216 181.469C217.334 179.823 218.763 178.584 220.409 178.7C222.055 178.818 223.294 180.247 223.177 181.893Z" fill="#F5804C"/>
<path d="M226.466 177.77C226.348 179.416 224.919 180.655 223.273 180.538C221.627 180.421 220.388 178.992 220.505 177.346C220.623 175.699 222.052 174.461 223.698 174.577C225.344 174.694 226.583 176.124 226.466 177.77Z" fill="#F5804C"/>
<path d="M228.763 172.583C229.739 173.913 229.453 175.783 228.122 176.76C226.792 177.736 224.922 177.45 223.946 176.119C222.97 174.789 223.256 172.919 224.586 171.943C225.917 170.967 227.787 171.253 228.763 172.583Z" fill="#F5804C"/>
<path d="M231.146 169.846C231.996 171.004 231.747 172.63 230.59 173.48C229.432 174.329 227.805 174.08 226.956 172.923C226.105 171.766 226.355 170.139 227.512 169.289C228.669 168.44 230.296 168.689 231.146 169.846Z" fill="#F5804C"/>
<path d="M249.594 168.087L234.087 163.36L217.781 183.899C217.781 183.899 236.653 189.144 237.202 189.27C237.752 189.396 249.594 168.087 249.594 168.087Z" fill="#265573"/>
<path d="M217.781 183.899L217.914 185.801L237.42 191.399L237.203 189.27L217.781 183.899Z" fill="#24485E"/>
<path d="M237.42 191.399L249.594 170.645V168.086L237.203 189.27L237.42 191.399Z" fill="#193342"/>
<path d="M246.143 169.872L234.001 166.171L221.233 182.253C221.233 182.253 236.009 186.36 236.44 186.458C236.87 186.557 246.143 169.872 246.143 169.872Z" fill="#A6DCFF"/>
<mask id="mask9_2013_628" style="mask-type:luminance" maskUnits="userSpaceOnUse" x="221" y="166" width="26" height="21">
<path d="M246.143 169.872L234.001 166.171L221.233 182.253C221.233 182.253 236.009 186.36 236.44 186.458C236.87 186.557 246.143 169.872 246.143 169.872Z" fill="white"/>
</mask>
<g mask="url(#mask9_2013_628)">
<path d="M226.934 163.267L221.407 166.742L237.003 191.547L242.53 188.072L226.934 163.267Z" fill="white"/>
<path d="M230.398 161.091L229.016 161.96L244.612 186.765L245.994 185.896L230.398 161.091Z" fill="white"/>
</g>
<path d="M258.174 180.34C258.174 180.34 247.967 183.959 242.515 187.745C242.515 187.745 238.729 186.079 241.454 183.202C244.18 180.325 245.846 178.508 245.846 178.508C245.846 178.508 245.141 173.491 249.593 168.086L243.422 166.234C243.422 166.234 248.094 162.348 252.269 163.613L258.174 180.34Z" fill="#F5804C"/>
<path d="M278.02 130.756L277.776 150.128L252.271 163.613L258.174 180.339L293.76 166.233C293.76 166.233 300.319 162.442 301.959 154.992C303.223 149.25 305.057 137.309 305.832 132.132C302.271 133.932 290.71 138.566 278.02 130.756Z" fill="#F5804C"/>
<path d="M0.783051 170.191C1.16256 172.382 3.16205 173.994 3.66653 176.159C4.24153 178.63 2.76261 181.051 1.53133 183.269C0.300046 185.487 -0.717336 188.315 0.660383 190.446C1.6724 192.011 3.66499 192.642 4.90624 194.032C6.6857 196.023 6.53313 199.054 5.98879 201.668C5.44445 204.283 4.61721 207.008 5.38848 209.564C6.13063 212.023 8.27196 213.862 10.6356 214.866C12.9993 215.871 15.5945 216.164 18.1468 216.446C18.5861 216.494 19.0522 216.539 19.4493 216.346C20.2222 215.97 20.3464 214.943 20.3916 214.085C20.709 208.018 22.2171 202.014 24.8046 196.517C25.9638 194.054 27.3776 191.48 27.0065 188.784C26.8133 187.377 26.1417 186.081 25.8273 184.696C25.3919 182.777 25.6349 180.674 24.7287 178.926C23.7305 177.001 21.6068 175.999 19.6855 174.994C15.4128 172.759 11.4767 169.88 8.04809 166.489C6.10609 164.57 5.38772 162.424 2.94202 164.662C1.5275 165.958 0.449547 168.267 0.783051 170.191Z" fill="#A44926"/>
<path d="M104.473 301.824C106.134 300.716 106.067 297.041 103.958 295.445C100.698 296.079 98.1847 296.784 98.1847 296.784C98.1847 296.784 93.8246 281.627 93.6682 280.584L84.7617 290.534L91.0124 304.285L94.0224 308.518C98.1333 307.563 101.727 305.12 104.473 301.824Z" fill="#FFA670"/>
<path d="M115.105 294.655C112.049 294.136 107.549 294.746 103.957 295.445C106.066 297.041 106.134 300.716 104.472 301.824C101.726 305.119 98.1327 307.564 94.021 308.517L95.7568 310.958C111.313 307.761 115.951 301.988 117.323 298.577C118.009 296.877 116.912 294.963 115.105 294.655Z" fill="#1255FF"/>
<path d="M114.714 334.877L104.831 325.401C105.645 326.589 106.486 327.767 107.327 328.945C108.278 330.278 108.761 332.52 108.19 334.068C107.479 335.999 104.894 336.72 103.084 337.141C100.761 337.683 98.3538 337.554 96.0461 337.003C91.2605 335.861 87.0192 333.14 82.8025 330.718C88.216 335.19 94.1156 339.057 100.192 341.36C100.192 341.36 106.946 344.41 112.162 343.443C116.182 342.698 117.665 337.706 114.714 334.877Z" fill="#1255FF"/>
<path d="M107.328 335.368C108.755 334.655 108.755 331.087 107.328 328.945C106.486 327.767 105.646 326.588 104.831 325.401L99.6948 320.475L84.7775 284.425L55.6008 299.84C55.6008 299.84 67.1723 317.806 82.8033 330.718C90.234 334.987 98.7801 340.628 107.328 335.368Z" fill="#FFA670"/>
<path d="M94.7475 308.518L84.7776 284.424" stroke="black" stroke-width="0.7137" stroke-miterlimit="10" stroke-linecap="round" stroke-linejoin="round"/>
<path d="M19.4399 178.772C19.4399 178.772 8.07312 201.938 13.5334 230.876L27.9929 238.731C27.9929 238.731 37.5411 289.953 50.7556 308.517C50.7556 308.517 99.6044 308.883 98.1547 268.216C98.1547 268.216 83.9589 240.097 78.2256 210.613C78.2256 210.613 82.0475 201.603 77.9527 194.778C73.8579 187.953 51.1987 179.76 51.1987 179.76L19.4399 178.772Z" fill="#FF675D"/>
<path d="M48.8455 267.101L44.6441 252.369C36.8018 257.143 27.2321 259.075 18.1255 256.952C19.1988 262.084 20.618 267.523 22.4894 272.99C31.9932 274.552 41.3535 272.584 48.8455 267.101Z" fill="#C7423A"/>
<path d="M44.6445 252.37L39.8113 235.423C38.4313 230.585 35.6521 226.222 31.6968 223.113C28.1417 220.32 23.6137 218.401 19.2621 221.232C16.3334 223.137 13.4162 227.385 13.5335 230.877C13.7106 236.134 15.6985 245.342 18.1258 256.952C27.2324 259.076 36.8021 257.143 44.6445 252.37Z" fill="#FF675D"/>
<path d="M50.7564 273.799L48.8458 267.101C41.3538 272.584 31.9935 274.552 22.4897 272.99C23.9257 277.183 25.6285 281.394 27.6495 285.495C30.2347 290.741 35.5509 294.17 41.3983 294.065C43.6945 294.023 46.3273 293.554 49.2936 292.406L65.0311 287.639L69.3629 275.681L50.7564 273.799Z" fill="#FFA670"/>
<path d="M81.4404 275.12C81.432 275.061 81.3776 275.019 81.3277 274.985C81.0418 274.797 72.4841 277.133 72.8138 275.801C78.4512 274.759 80.5434 273.861 80.5534 273.852C80.7098 273.714 80.9413 273.302 80.6699 273.135C79.9669 272.706 78.1453 272.887 77.3104 273.001C75.7563 273.211 74.1831 273.283 72.616 273.21C72.2472 273.193 70.0683 272.757 70.6295 271.936C70.6663 271.883 70.7376 271.864 70.8028 271.854C72.3292 271.62 74.9383 271.754 75.4949 270.746C75.583 270.585 75.7862 270.277 75.6099 270.23C74.7788 270.005 73.8871 269.872 73.3926 269.764C72.1046 269.485 70.9922 268.683 69.6896 268.447C67.9669 268.134 66.7624 269.46 65.6216 270.533C64.8296 271.278 64.0813 272.069 63.3829 272.9C62.9168 273.454 62.2221 274.103 62.0841 274.809C61.9569 275.46 62.0719 276.253 62.0665 276.914C62.0473 279.287 62.0274 281.659 62.0082 284.031C61.996 285.506 61.9837 286.98 61.9714 288.454C61.9707 288.522 64.7828 287.738 65.032 287.639C66.0502 287.235 67.0185 286.707 67.9101 286.072C68.824 285.422 69.5125 284.618 70.3236 283.866C71.0964 283.15 72.3116 283.097 73.296 282.916C74.5564 282.685 75.7939 282.332 77.0482 282.07C77.295 282.019 77.571 281.947 77.6945 281.729C77.9896 281.209 77.2697 280.54 76.8112 280.417C75.7287 280.129 74.6385 280.043 73.5329 279.901C72.6382 279.785 74.6914 278.915 75.0287 278.753C77.2475 277.683 80.2 277.197 81.4412 275.856C81.4834 275.81 81.4496 275.18 81.4404 275.12Z" fill="#FFA670"/>
<path d="M50.7564 273.8C50.7564 273.8 52.3097 279.865 49.1204 283.228" stroke="black" stroke-width="0.7137" stroke-miterlimit="10" stroke-linecap="round" stroke-linejoin="round"/>
<path d="M44.6442 252.37C44.6442 252.37 39.7865 233.421 39.785 233.416C37.6789 226.032 29.8473 220.339 21.5887 222.292C17.7775 223.194 13.3898 226.604 13.534 230.877" stroke="#AD463F" stroke-width="0.7137" stroke-miterlimit="10"/>
<path d="M50.7563 236.104C52.5427 235.329 65.9266 239.214 71.4283 224.446" stroke="#AD463F" stroke-width="0.7137" stroke-miterlimit="10"/>
<path d="M23.3679 222.022C23.3679 222.022 20.5381 212.667 23.2744 200.176" stroke="#AD463F" stroke-width="0.7137" stroke-miterlimit="10"/>
<path d="M45.9042 193.987C45.9042 193.987 55.6525 194.447 53.1914 189.577C50.7304 184.708 42.8689 180.231 42.8689 180.231L45.9042 193.987Z" fill="white"/>
<path d="M20.3155 181.852C20.3155 181.852 13.65 198.79 28.6822 202.745C36.0707 204.689 41.1331 204.484 44.3723 203.772C47.0189 203.19 48.4564 200.325 47.3171 197.866L45.52 193.989" fill="white"/>
<path d="M21.5793 177.046L20.1058 183.713C19.6266 187.967 21.7212 192.107 25.4495 194.213C30.3264 196.968 37.6619 199.056 45.5196 193.989L47.4838 184.263L21.5793 177.046Z" fill="#FFA670"/>
<path d="M47.0269 186.528C37.4664 188.621 30.5548 185.075 26.5083 181.852C26.5083 181.852 35.1311 194.181 45.9229 191.989L47.0269 186.528Z" fill="#052A3D"/>
<path d="M21.6844 171.218C23.1119 164.081 19.543 156.944 24.5395 150.52C29.263 144.026 40.4956 142.04 44.5198 146.704C43.4894 146.366 42.9313 143.305 42.4659 142.447C41.2469 140.197 39.4007 138.485 37.2916 137.079C25.6404 129.314 5.75279 132.694 1.56597 147.49C-2.36479 161.377 6.42287 170.919 9.78475 174.333C14.4684 175.043 20.404 175.059 21.6844 171.218Z" fill="#A44926"/>
<path d="M44.5237 146.705C40.4956 141.948 29.2637 144.025 24.5395 150.52C19.5438 156.943 23.1119 164.08 21.6844 171.217C21.4237 171.999 20.9898 172.583 20.4347 173.024C18.5395 171.535 16.3038 170.613 13.7339 171.097C12.3984 171.349 11.0092 172.102 10.6235 173.406C10.6028 173.475 10.5898 173.547 10.5752 173.618C10.5246 173.61 10.4725 173.603 10.4219 173.595C10.4671 173.641 10.5085 173.682 10.5522 173.725C10.438 174.454 10.6419 175.223 11.0168 175.867C11.4477 176.604 12.0856 177.198 12.7495 177.736C15.2466 179.759 18.5034 181.167 21.6514 180.518C22.4648 180.351 23.3013 180.001 23.7575 179.315C27.0542 182.833 35.8986 190.184 49.7348 185.801C52.9349 184.788 55.1843 181.885 55.3515 178.533C55.7157 171.247 54.7266 157.713 44.5237 146.705Z" fill="#FFA670"/>
<path d="M47.5594 170.522C47.5594 170.522 49.3565 169.264 49.2921 166.804C49.2752 166.16 48.7822 165.63 48.1459 165.523C47.1308 165.353 45.3536 164.625 43.0452 161.97" stroke="black" stroke-width="0.7137" stroke-miterlimit="10" stroke-linecap="round" stroke-linejoin="round"/>
<path d="M47.158 174.333C47.158 174.333 36.709 177.906 37.0877 178.133C37.4664 178.36 41.3259 181.41 47.158 178.528V174.333Z" fill="white"/>
<path d="M29.7358 167.019C29.7358 167.019 31.1833 164.413 35.0206 163.472" stroke="black" stroke-width="0.7137" stroke-miterlimit="10" stroke-linecap="round" stroke-linejoin="round"/>
<path d="M32.1634 167.373C32.8764 167.373 33.4545 166.795 33.4545 166.082C33.4545 165.369 32.8764 164.791 32.1634 164.791C31.4504 164.791 30.8723 165.369 30.8723 166.082C30.8723 166.795 31.4504 167.373 32.1634 167.373Z" fill="black"/>
<path d="M42.1985 158.175C42.1985 158.175 43.646 155.569 47.4832 154.628" stroke="black" stroke-width="0.7137" stroke-miterlimit="10" stroke-linecap="round" stroke-linejoin="round"/>
<path d="M44.6256 158.528C45.3386 158.528 45.9166 157.95 45.9166 157.237C45.9166 156.524 45.3386 155.946 44.6256 155.946C43.9125 155.946 43.3345 156.524 43.3345 157.237C43.3345 157.95 43.9125 158.528 44.6256 158.528Z" fill="black"/>
<path d="M12.6078 174.683C12.433 174.596 16.2871 173.369 19.4404 175.822" stroke="black" stroke-width="0.7137" stroke-miterlimit="10" stroke-linecap="round" stroke-linejoin="round"/>
<path d="M46.7433 151.161C46.6367 151.34 46.3016 151.447 46.1414 151.503C45.6423 151.681 45.1746 151.907 44.6985 152.141C43.5799 152.69 42.4706 153.257 41.3627 153.828C41.0177 154.006 40.6735 154.184 40.33 154.362C40.2334 154.412 40.1107 154.508 40.0049 154.532C39.7404 154.591 39.5741 154.289 39.5948 154.06C39.6216 153.753 39.9306 153.595 40.1207 153.391C40.8475 152.613 41.6372 151.874 42.5219 151.278C43.2165 150.811 44.0645 150.619 44.8894 150.56C45.2222 150.537 45.5549 150.5 45.8884 150.51C46.1245 150.518 46.5984 150.69 46.7287 150.897C46.7923 151 46.787 151.086 46.7433 151.161Z" fill="#122937"/>
<path d="M27.9581 163.319C28.1666 163.305 28.4127 163.055 28.5361 162.937C28.9202 162.572 29.3327 162.257 29.7567 161.938C30.7518 161.188 31.7585 160.453 32.7674 159.723C33.0818 159.497 33.3961 159.27 33.7112 159.043C33.7994 158.98 33.9404 158.914 34.0094 158.83C34.1812 158.62 33.988 158.336 33.7741 158.251C33.4881 158.136 33.2067 158.34 32.9392 158.418C31.9172 158.715 30.9006 159.086 29.9698 159.607C29.2399 160.016 28.6856 160.686 28.2609 161.395C28.0899 161.681 27.9067 161.961 27.7656 162.264C27.666 162.478 27.6046 162.979 27.7311 163.188C27.7917 163.29 27.8714 163.325 27.9581 163.319Z" fill="#122937"/>
<path d="M33.1516 172.241C36.8151 172.241 39.7849 169.271 39.7849 165.608C39.7849 161.944 36.8151 158.974 33.1516 158.974C29.4881 158.974 26.5183 161.944 26.5183 165.608C26.5183 169.271 29.4881 172.241 33.1516 172.241Z" stroke="white" stroke-width="0.7137" stroke-miterlimit="10"/>
<path d="M50.628 162.532C54.0127 161.13 55.6199 157.25 54.2179 153.865C52.8159 150.481 48.9355 148.873 45.5509 150.275C42.1662 151.677 40.5589 155.558 41.9609 158.942C43.3629 162.327 47.2433 163.934 50.628 162.532Z" stroke="white" stroke-width="0.7137" stroke-miterlimit="10"/>
<path d="M39.304 162.855C38.5856 161.871 38.8018 160.491 39.7862 159.773C40.7706 159.056 42.1507 159.271 42.8683 160.256" stroke="white" stroke-width="0.7137" stroke-miterlimit="10"/>
<path d="M26.5911 166.537L17.3113 171.141" stroke="white" stroke-width="0.7137" stroke-miterlimit="10"/>
<path d="M264.079 314.872L253.299 325.223C251.331 327.113 250.15 329.727 250.234 332.454C250.304 334.76 251.21 337.16 254.343 338.08C261.093 340.062 264.135 337.928 270.848 334.116C277.56 330.304 286 322.541 286 322.541L286.86 319.173L264.079 314.872Z" fill="#FBC02E"/>
<path d="M268.601 324.243C268.601 324.243 263.3 323.595 262.687 318.289" stroke="white" stroke-width="0.689243" stroke-miterlimit="10"/>
<path d="M266.433 325.981C266.433 325.981 261.131 325.334 260.519 320.027" stroke="white" stroke-width="0.689243" stroke-miterlimit="10"/>
<path d="M264.265 327.718C264.265 327.718 258.963 327.071 258.351 321.765" stroke="white" stroke-width="0.689243" stroke-miterlimit="10"/>
<path d="M262.097 329.456C262.097 329.456 256.795 328.809 256.182 323.503" stroke="white" stroke-width="0.689243" stroke-miterlimit="10"/>
<path d="M263.732 288.998L244.04 292.026C241.816 292.368 239.758 293.525 238.461 295.363C237.185 297.173 236.394 300.536 238.727 303.168C243.393 308.433 247.201 307.346 254.913 307.682C262.625 308.017 273.9 305.924 273.9 305.924L276.418 303.528L263.732 288.998Z" fill="#FBC02E"/>
<path d="M256.361 299.989C256.361 299.989 252.424 296.38 255.01 291.707" stroke="white" stroke-width="0.689243" stroke-miterlimit="10"/>
<path d="M253.587 300.143C253.587 300.143 249.649 296.534 252.235 291.86" stroke="white" stroke-width="0.689243" stroke-miterlimit="10"/>
<path d="M250.812 300.296C250.812 300.296 246.875 296.687 249.461 292.014" stroke="white" stroke-width="0.689243" stroke-miterlimit="10"/>
<path d="M248.037 300.449C248.037 300.449 244.1 296.841 246.686 292.167" stroke="white" stroke-width="0.689243" stroke-miterlimit="10"/>
<path d="M258.607 260.963L259.841 289.681C259.841 289.681 260.037 297 263.515 297.076L273.365 274.113L258.607 260.963Z" fill="#00796D"/>
<path d="M269.644 275.911L262.938 290.753C262.938 290.753 259.006 296.783 261.542 305.132C264.078 313.48 264.078 314.872 264.078 314.872C264.078 314.872 271.035 329.945 287.964 319.974C288.719 314.37 288.71 308.236 291.724 303.296C292.415 302.165 300.812 290.871 302.311 291.913L276.477 273.962L269.644 275.911Z" fill="#00796D"/>
<path d="M282.316 322.542C282.316 322.542 273.895 305.433 291.676 288.323" stroke="#004A43" stroke-width="0.689243" stroke-miterlimit="10"/>
<path d="M269.644 275.911L262.938 290.753C262.938 290.753 261.808 292.486 261.15 295.38" stroke="#004A43" stroke-width="0.689243" stroke-miterlimit="10"/>
<path d="M273.895 202.015C273.895 202.015 260.866 208.179 257.997 224.264C257.997 224.264 258.407 233.032 262.939 237.493C262.939 237.493 269.787 223.235 273.618 209.954" fill="#005CC9"/>
<path d="M289.682 163.898C289.682 163.898 268.968 173.855 272.895 202.015L288.011 181.111L289.682 163.898Z" fill="#005CC9"/>
<path d="M347.889 220.514C347.889 220.514 327.001 222.996 318.701 242.498V255.39L279.013 262.092C279.013 262.092 280.081 277.565 293.415 279.916L328.251 277.396C328.251 277.396 339.867 277.944 343.154 267.903C346.44 257.861 347.889 220.514 347.889 220.514Z" fill="#005CC9"/>
<path d="M289.682 163.898C289.682 163.898 328.957 159.72 340.394 192.628C346.497 210.724 347.889 220.515 347.889 220.515L309.7 293.482C309.7 293.482 275.535 295.105 258.606 269.132C258.606 269.132 253.358 248.792 254.506 237.394L257.897 221.454L262.937 237.494L273.259 209.09L272.042 201.695L273.326 197.068L277.629 191.3L281.675 185.567L289.682 163.898Z" fill="#005CC9"/>
<path d="M300.36 202.25L295.327 208.92L303.566 208.199L304.335 207.309L300.36 202.25Z" fill="white"/>
<path d="M287.603 169.22C287.603 169.22 300.15 168.847 308.561 171.696" stroke="#05346B" stroke-width="0.689243" stroke-miterlimit="10"/>
<path d="M306.889 180.965L292.255 188.983L293.429 195.946L286.674 198.608L281.469 216.353" stroke="#05346B" stroke-width="0.689243" stroke-miterlimit="10"/>
<path d="M347.889 220.514C347.889 220.514 331.361 220.036 321.802 233.576C319.373 237.018 318.165 241.175 318.165 245.389L318.701 255.39L279.013 262.093" stroke="#05346B" stroke-width="0.689243" stroke-miterlimit="10"/>
<path d="M277.862 256.504C277.862 256.504 279.148 277.979 295.052 280.219L317.495 278.588" stroke="#05346B" stroke-width="0.689243" stroke-miterlimit="10"/>
<path d="M318.701 255.39C318.701 255.39 318.245 258.201 321.291 262.093" stroke="#05346B" stroke-width="0.689243" stroke-miterlimit="10"/>
<path d="M258.607 269.132L280.854 219.394C280.854 219.394 285.509 210.424 293.907 209.282C300.279 208.417 303.842 208.179 303.842 208.179" stroke="#05346B" stroke-width="0.689243" stroke-miterlimit="10"/>
<path d="M277.854 229.063C277.854 229.063 285.123 218.751 307.072 221.454L311.01 215.446L320.355 219.264C320.355 219.264 342.032 195.126 333.864 183.931" stroke="#05346B" stroke-width="0.689243" stroke-miterlimit="10"/>
<path d="M274.393 210.724C274.393 210.724 269.796 204.678 273.895 195.946C278.7 190.126 282.214 185.5 283.981 181.112C283.981 181.112 286.738 169.996 289.682 164.384" stroke="#05346B" stroke-width="0.689243" stroke-miterlimit="10"/>
<path d="M257.898 221.454C257.898 221.454 256.981 232.388 265.217 239.482" stroke="#05346B" stroke-width="0.689243" stroke-miterlimit="10"/>
<path d="M295.139 209.118C295.139 209.118 299.531 204.555 300.588 201.763" stroke="#05346B" stroke-width="0.689243" stroke-miterlimit="10"/>
<path d="M272.931 208.179C272.931 208.179 271.398 212.298 270.621 216.353C269.844 220.409 268.38 229.85 262.939 237.494" stroke="#05346B" stroke-width="0.689243" stroke-miterlimit="10"/>
<path d="M337.278 222.331C337.278 222.331 335.703 211.967 332.063 202.358" stroke="#05346B" stroke-width="0.689243" stroke-miterlimit="10"/>
<path d="M284.879 235.2C284.879 235.2 292.186 247.018 308.562 241.352" stroke="#05346B" stroke-width="0.689243" stroke-miterlimit="10"/>
<path d="M279.246 239.913C279.277 240.677 278.681 241.322 277.917 241.352C277.153 241.382 276.508 240.787 276.478 240.022C276.447 239.258 277.043 238.613 277.807 238.583C278.572 238.552 279.217 239.148 279.246 239.913Z" fill="#05346B"/>
<path d="M273.617 251.104C273.648 251.868 273.052 252.513 272.288 252.543C271.523 252.573 270.878 251.978 270.848 251.213C270.819 250.449 271.414 249.804 272.178 249.774C272.942 249.744 273.586 250.339 273.617 251.104Z" fill="#05346B"/>
<path d="M267.986 262.295C268.017 263.059 267.421 263.704 266.657 263.734C265.892 263.764 265.248 263.169 265.218 262.404C265.188 261.64 265.783 260.995 266.547 260.965C267.311 260.935 267.956 261.53 267.986 262.295Z" fill="#05346B"/>
<path d="M305.695 188.273L300.588 201.762C299.421 204.844 301.698 208.141 304.994 208.141C314.513 208.141 328.239 206.265 331.757 195.672C333.27 191.118 333.261 185.719 333.863 180.964L326.901 185.566L321.606 190.125L313.635 191.298L308.561 190.125L305.695 188.273Z" fill="#A85734"/>
<path d="M305.005 190.095C307.158 193.405 311.349 194.616 315.319 194.298C320.605 193.874 325.232 191.573 328.936 188.126C328.936 188.126 319.353 203.319 302.312 197.209L305.005 190.095Z" fill="#052A3D"/>
<path d="M312.281 142.546C315.059 139.072 318.949 136.618 323.068 134.938C331.328 131.569 340.944 132.031 347.369 138.757C357.961 149.845 354.963 176.947 336.527 177.772C335.456 177.82 334.307 177.726 333.457 177.073C332.445 176.296 332.111 174.939 331.893 173.682C331.237 169.905 331.03 166.028 329.878 162.371C328.727 158.714 326.417 155.173 322.867 153.725C320.571 152.789 318.042 152.841 315.627 153.168C313.909 153.4 311.523 154.221 309.856 153.331C306.327 151.447 310.682 144.546 312.281 142.546Z" fill="#122937"/>
<path d="M351.049 153.917C357.812 153.917 363.294 147.956 363.294 140.603C363.294 133.25 357.812 127.289 351.049 127.289C344.286 127.289 338.803 133.25 338.803 140.603C338.803 147.956 344.286 153.917 351.049 153.917Z" fill="#122937"/>
<path d="M307.073 155.073C307.786 153.243 308.696 151.52 310.11 150.197C312.965 147.526 314.972 146.83 318.701 147.287C329.654 148.628 336.364 160.756 334.85 173.299C334.733 174.273 334.903 176.328 336.242 175.147C337.438 174.093 340.146 172.245 341.723 172.21C343.036 172.181 344.498 172.615 345.124 173.769C345.157 173.831 345.184 173.895 345.212 173.96C345.259 173.942 345.305 173.924 345.352 173.908C345.318 173.96 345.288 174.006 345.255 174.057C345.509 174.723 345.47 175.49 345.245 176.173C344.986 176.957 344.502 177.645 343.982 178.286C342.027 180.696 339.232 182.678 336.129 182.694C335.327 182.699 334.467 182.536 333.899 181.979C331.487 185.961 324.636 195.625 310.689 194.241C308.561 194.031 304.722 190.693 303.893 187.559C302.571 182.563 302.039 177.33 302.446 172.174C302.767 168.128 303.928 164.224 305.275 160.413C305.875 158.714 306.381 156.844 307.073 155.073Z" fill="#A85734"/>
<path d="M310.234 181.005C310.234 181.005 308.342 181.684 307.206 179.598C306.908 179.051 306.761 178.44 307.035 177.881C307.648 176.631 309.028 176.267 310.211 173.299" stroke="black" stroke-width="0.689243" stroke-miterlimit="10" stroke-linecap="round" stroke-linejoin="round"/>
<path d="M324.513 171.998C324.513 171.998 322.516 169.925 318.701 169.998" stroke="black" stroke-width="0.689243" stroke-miterlimit="10" stroke-linecap="round" stroke-linejoin="round"/>
<path d="M321.072 172.016C321.249 172.682 321.932 173.078 322.598 172.901C323.263 172.724 323.66 172.041 323.483 171.375C323.306 170.71 322.622 170.313 321.957 170.49C321.292 170.668 320.895 171.35 321.072 172.016Z" fill="black"/>
<path d="M310.688 166.833C310.688 166.833 308.691 164.759 304.876 164.832" stroke="black" stroke-width="0.689243" stroke-miterlimit="10" stroke-linecap="round" stroke-linejoin="round"/>
<path d="M307.247 166.851C307.424 167.516 308.107 167.913 308.773 167.736C309.438 167.559 309.835 166.876 309.658 166.21C309.481 165.545 308.799 165.148 308.133 165.325C307.467 165.502 307.07 166.186 307.247 166.851Z" fill="black"/>
<path d="M343.506 175.373C343.653 175.255 339.767 174.868 337.279 177.816" stroke="black" stroke-width="0.689243" stroke-miterlimit="10" stroke-linecap="round" stroke-linejoin="round"/>
<path d="M326.667 170.224C326.459 170.242 326.177 170.032 326.037 169.935C325.602 169.632 325.146 169.383 324.679 169.132C323.582 168.542 322.476 167.97 321.367 167.401C321.022 167.224 320.677 167.047 320.332 166.872C320.235 166.823 320.085 166.778 320.004 166.705C319.803 166.524 319.95 166.214 320.148 166.097C320.414 165.941 320.723 166.1 320.999 166.136C322.054 166.274 323.115 166.485 324.114 166.859C324.898 167.153 325.548 167.73 326.075 168.367C326.287 168.624 326.511 168.873 326.697 169.152C326.828 169.348 326.964 169.833 326.871 170.06C326.826 170.17 326.752 170.217 326.667 170.224Z" fill="#122937"/>
<path d="M304.786 161.686C304.92 161.846 305.269 161.895 305.436 161.925C305.958 162.018 306.456 162.164 306.964 162.315C308.158 162.673 309.346 163.048 310.532 163.428C310.902 163.546 311.271 163.665 311.64 163.784C311.743 163.818 311.879 163.892 311.988 163.898C312.259 163.912 312.373 163.587 312.316 163.365C312.238 163.068 311.907 162.961 311.686 162.792C310.841 162.145 309.941 161.546 308.969 161.105C308.207 160.759 307.339 160.709 306.516 160.788C306.184 160.82 305.85 160.838 305.522 160.904C305.291 160.951 304.851 161.198 304.758 161.424C304.711 161.535 304.73 161.62 304.786 161.686Z" fill="#122937"/>
<path d="M310.21 185.857C310.21 185.857 313.017 188.231 317.063 185.565" stroke="black" stroke-width="0.689243" stroke-miterlimit="10" stroke-linecap="round" stroke-linejoin="round"/>
</svg>
