<svg width="470" height="553" viewBox="0 0 470 553" fill="none" xmlns="http://www.w3.org/2000/svg">
<path d="M334.057 505.303C331.932 506.347 329.799 507.344 327.661 508.315C327.258 508.498 326.853 508.673 326.45 508.853C324.71 509.631 322.967 510.386 321.22 511.116C320.735 511.318 320.25 511.519 319.764 511.718C317.955 512.459 316.142 513.175 314.326 513.864C314.001 513.988 313.677 514.116 313.352 514.238C308.99 515.872 304.607 517.358 300.209 518.701C299.826 518.819 299.442 518.928 299.059 519.043C297.268 519.58 295.475 520.093 293.68 520.582C293.185 520.717 292.691 520.85 292.196 520.982C290.368 521.466 288.537 521.926 286.706 522.362C286.359 522.445 286.012 522.533 285.665 522.614C282.812 523.278 279.956 523.876 277.097 524.423C276.115 524.612 275.134 524.804 274.151 524.978C273.29 525.131 272.428 525.268 271.566 525.41C270.71 525.552 269.855 525.695 269 525.826C268.127 525.96 267.253 526.083 266.38 526.206C265.532 526.326 264.684 526.442 263.835 526.552C262.967 526.664 262.098 526.772 261.229 526.874C260.363 526.975 259.496 527.069 258.628 527.16C257.782 527.25 256.937 527.34 256.091 527.419C255.163 527.506 254.235 527.579 253.307 527.655C252.522 527.718 251.737 527.789 250.952 527.844C249.333 527.958 247.714 528.055 246.097 528.132C245.38 528.167 244.665 528.186 243.948 528.214C242.947 528.252 241.946 528.292 240.946 528.317C240.149 528.336 239.353 528.345 238.556 528.357C237.631 528.37 236.706 528.381 235.783 528.382C234.977 528.384 234.172 528.379 233.367 528.372C232.441 528.364 231.516 528.349 230.591 528.329C229.802 528.312 229.013 528.294 228.225 528.269C227.252 528.238 226.28 528.196 225.308 528.152C224.574 528.119 223.841 528.091 223.109 528.051C221.85 527.982 220.594 527.896 219.338 527.805C218.549 527.749 217.761 527.689 216.973 527.624C215.685 527.517 214.399 527.406 213.114 527.277C212.413 527.208 211.715 527.126 211.015 527.05C210.018 526.941 209.02 526.83 208.025 526.708C207.278 526.616 206.533 526.517 205.787 526.418C204.829 526.291 203.872 526.158 202.916 526.019C202.174 525.911 201.433 525.8 200.693 525.685C199.711 525.532 198.73 525.369 197.75 525.203C197.05 525.084 196.349 524.968 195.65 524.843C194.509 524.639 193.371 524.42 192.233 524.198C191.706 524.095 191.176 524 190.65 523.894C189.029 523.565 187.412 523.219 185.799 522.856C185.221 522.726 184.646 522.585 184.069 522.451C182.988 522.199 181.908 521.944 180.83 521.677C180.152 521.508 179.476 521.331 178.799 521.157C177.82 520.904 176.842 520.647 175.866 520.381C175.172 520.192 174.478 520 173.786 519.804C172.812 519.529 171.84 519.246 170.87 518.958C170.202 518.76 169.533 518.563 168.866 518.359C167.806 518.034 166.749 517.696 165.693 517.356C165.132 517.176 164.57 517.001 164.01 516.816C162.426 516.293 160.847 515.754 159.276 515.196C158.902 515.064 158.531 514.922 158.158 514.787C156.931 514.345 155.706 513.897 154.487 513.434C153.886 513.206 153.289 512.969 152.689 512.736C151.696 512.35 150.705 511.96 149.717 511.56C149.074 511.3 148.433 511.035 147.792 510.769C146.84 510.373 145.891 509.971 144.943 509.563C144.311 509.29 143.679 509.017 143.048 508.739C142.056 508.301 141.069 507.853 140.082 507.401C139.516 507.142 138.948 506.887 138.383 506.623C137.09 506.018 135.804 505.399 134.52 504.77C134.276 504.65 134.027 504.536 133.783 504.415C132.273 503.668 130.772 502.902 129.277 502.123C129.241 502.104 129.204 502.086 129.167 502.067C127.689 506.798 126.906 511.699 126.906 516.722C126.906 518.929 127.057 521.115 127.351 523.271L127.396 523.548C129.847 539.523 176.94 552.266 234.663 552.266C292.394 552.266 339.488 539.523 341.939 523.548L341.984 523.271C342.278 521.115 342.427 518.929 342.427 516.722C342.427 511.723 341.654 506.845 340.19 502.135C338.317 503.136 336.43 504.116 334.522 505.061C334.366 505.139 334.214 505.225 334.057 505.303Z" fill="#F5A067"/>
<path d="M39.897 208.329L149.187 222.836C126.766 257.749 116.968 297.652 113.891 335.405C139.771 338.707 165.814 340.822 191.77 342.285C246.616 345.371 302.012 345.752 355.973 334.456C363.763 332.825 371.51 330.928 379.194 328.774C384.673 299.383 385.898 269.227 383.09 239.47C381.338 220.924 377.94 203.128 373.147 185.882C368.428 185.303 363.68 183.946 359.286 182.306C348.822 178.388 338.286 173.052 327.137 173.921C307.682 175.434 294.071 195.017 275.039 199.324C256.507 203.522 238.342 192.428 222.311 182.227C206.288 172.017 187.924 156.855 171.988 167.2C151.792 180.316 128.562 194.013 105.133 188.455C83.4953 183.318 64.749 162.23 43.1677 167.597C35.4955 169.505 27.7247 174.676 20.345 175.421C3.04446 217.927 -3.36083 265.401 1.66074 311.182C1.66104 311.184 1.66104 311.185 1.66104 311.187C11.3043 314.335 21.0363 317.139 30.8261 319.699C21.7509 257.105 39.897 208.329 39.897 208.329Z" fill="#E37946"/>
<path d="M355.973 334.456C302.012 345.752 246.616 345.371 191.77 342.285C165.814 340.822 139.771 338.707 113.891 335.405L113.889 335.426C107.681 411.661 128.877 479.137 128.877 479.137C62.9809 429.176 38.1273 370.001 30.8316 319.735C30.8298 319.723 30.8285 319.711 30.8267 319.699C21.0369 317.139 11.3049 314.334 1.66168 311.186L1.66138 311.186C3.5694 328.6 7.13273 345.768 12.3781 362.325C14.1262 367.844 16.0613 373.295 18.184 378.665C21.0141 385.824 24.1781 392.838 27.6782 399.676C27.7326 399.783 27.7904 399.886 27.8452 399.993C28.6112 401.484 29.3919 402.963 30.1863 404.432C30.4849 404.985 30.7918 405.53 31.0943 406.079C31.6615 407.109 32.232 408.136 32.8129 409.155C33.1629 409.769 33.5185 410.379 33.8734 410.989C34.4305 411.946 34.9928 412.898 35.5618 413.846C35.9274 414.454 36.2938 415.06 36.6639 415.664C37.2576 416.633 37.86 417.594 38.4658 418.552C38.8168 419.106 39.1647 419.662 39.519 420.213C40.2534 421.352 40.9994 422.481 41.7515 423.605C41.9857 423.955 42.2147 424.311 42.451 424.659C43.4357 426.115 44.4365 427.557 45.4505 428.987C45.7494 429.408 46.0556 429.821 46.3564 430.24C47.089 431.258 47.825 432.273 48.5719 433.277C48.9679 433.81 49.369 434.336 49.7686 434.865C50.4398 435.752 51.1143 436.634 51.7961 437.509C52.2222 438.056 52.6504 438.601 53.0807 439.143C53.7674 440.009 54.4608 440.868 55.1581 441.723C55.5784 442.238 55.9975 442.755 56.4221 443.266C57.1985 444.202 57.9849 445.127 58.7747 446.049C59.125 446.458 59.4711 446.873 59.8245 447.279C60.9622 448.59 62.1121 449.888 63.2753 451.17C63.4964 451.414 63.7233 451.652 63.9456 451.895C64.8993 452.937 65.86 453.973 66.8304 454.997C67.2592 455.449 67.6944 455.895 68.1263 456.343C68.9072 457.154 69.6912 457.961 70.4826 458.759C70.9597 459.24 71.4399 459.718 71.921 460.195C72.6938 460.962 73.4717 461.722 74.2539 462.477C74.7347 462.941 75.2155 463.405 75.7 463.865C76.5299 464.652 77.3671 465.43 78.2074 466.204C78.6456 466.609 79.0811 467.016 79.5224 467.417C80.6467 468.438 81.7805 469.446 82.9224 470.444C83.0803 470.581 83.2351 470.723 83.3935 470.861C84.6884 471.986 85.9974 473.095 87.3148 474.19C87.7448 474.548 88.1809 474.898 88.6137 475.252C89.5163 475.993 90.4219 476.729 91.3346 477.455C91.8531 477.868 92.3756 478.275 92.8971 478.683C93.745 479.346 94.5962 480.003 95.4523 480.654C95.9918 481.064 96.5322 481.472 97.0748 481.878C97.9494 482.531 98.8292 483.175 99.7121 483.815C100.229 484.19 100.744 484.568 101.263 484.938C102.29 485.67 103.324 486.39 104.361 487.105C104.737 487.364 105.108 487.629 105.485 487.885C106.889 488.841 108.303 489.782 109.725 490.707C110.118 490.962 110.515 491.208 110.91 491.461C111.959 492.135 113.011 492.803 114.07 493.46C114.613 493.796 115.159 494.126 115.705 494.457C116.629 495.019 117.555 495.577 118.485 496.126C119.071 496.472 119.66 496.814 120.249 497.155C121.165 497.684 122.084 498.206 123.007 498.723C123.589 499.05 124.172 499.377 124.757 499.699C125.755 500.247 126.758 500.784 127.764 501.318C128.233 501.566 128.698 501.822 129.168 502.067C129.205 502.086 129.243 502.104 129.279 502.124C130.774 502.903 132.274 503.668 133.785 504.415C134.029 504.536 134.278 504.651 134.522 504.771C135.805 505.399 137.092 506.018 138.385 506.623C138.949 506.887 139.518 507.142 140.084 507.402C141.07 507.853 142.058 508.302 143.05 508.74C143.68 509.018 144.312 509.291 144.945 509.563C145.892 509.971 146.842 510.373 147.794 510.769C148.435 511.035 149.076 511.3 149.719 511.561C150.706 511.96 151.698 512.35 152.691 512.736C153.29 512.97 153.888 513.206 154.489 513.435C155.708 513.897 156.932 514.346 158.159 514.788C158.533 514.923 158.903 515.064 159.277 515.197C160.85 515.754 162.428 516.293 164.012 516.817C164.571 517.001 165.134 517.176 165.694 517.357C166.75 517.697 167.807 518.034 168.868 518.359C169.535 518.563 170.203 518.76 170.871 518.959C171.842 519.246 172.813 519.529 173.787 519.805C174.48 520 175.173 520.193 175.868 520.382C176.843 520.647 177.821 520.904 178.8 521.157C179.477 521.331 180.154 521.508 180.832 521.677C181.909 521.945 182.99 522.199 184.071 522.451C184.648 522.586 185.223 522.726 185.801 522.857C187.413 523.219 189.03 523.566 190.651 523.894C191.178 524.001 191.708 524.096 192.235 524.198C193.373 524.42 194.511 524.639 195.652 524.843C196.351 524.969 197.051 525.084 197.751 525.203C198.732 525.369 199.712 525.532 200.695 525.685C201.435 525.801 202.176 525.911 202.918 526.019C203.874 526.159 204.831 526.291 205.789 526.419C206.534 526.518 207.279 526.616 208.026 526.708C209.022 526.83 210.02 526.941 211.017 527.05C211.716 527.126 212.415 527.208 213.115 527.278C214.4 527.406 215.687 527.518 216.975 527.624C217.763 527.689 218.551 527.749 219.34 527.806C220.595 527.896 221.852 527.982 223.11 528.051C223.843 528.091 224.576 528.119 225.309 528.152C226.281 528.196 227.254 528.239 228.227 528.27C229.015 528.295 229.804 528.312 230.593 528.329C231.518 528.349 232.443 528.364 233.369 528.372C234.174 528.379 234.978 528.384 235.784 528.383C236.708 528.381 237.633 528.37 238.558 528.357C239.354 528.346 240.15 528.337 240.948 528.317C241.948 528.292 242.949 528.253 243.95 528.214C244.666 528.187 245.382 528.167 246.098 528.133C247.716 528.055 249.334 527.958 250.953 527.844C251.739 527.789 252.524 527.719 253.309 527.655C254.237 527.58 255.164 527.506 256.092 527.419C256.938 527.34 257.784 527.25 258.63 527.161C259.497 527.07 260.364 526.976 261.231 526.874C262.1 526.772 262.969 526.665 263.837 526.553C264.685 526.443 265.534 526.326 266.382 526.206C267.255 526.083 268.128 525.96 269.002 525.826C269.857 525.695 270.712 525.552 271.567 525.411C272.429 525.268 273.291 525.131 274.153 524.978C275.135 524.804 276.117 524.612 277.099 524.424C277.857 524.279 278.491 524.156 278.988 524.059C327.183 467.456 365.086 402.554 378.942 330.12C379.027 329.674 379.111 329.231 379.194 328.784C379.194 328.781 379.195 328.777 379.195 328.773C371.51 330.928 363.764 332.825 355.973 334.456Z" fill="#F39041"/>
<path d="M469.329 268.826C469.324 266.251 469.281 263.678 469.203 261.108C469.189 260.634 469.172 260.161 469.156 259.687C469.064 257.1 468.94 254.517 468.773 251.938C468.749 251.571 468.72 251.204 468.695 250.837C468.509 248.138 468.292 245.443 468.023 242.755C468.022 242.74 468.021 242.724 468.019 242.709C467.749 240.018 467.426 237.336 467.073 234.661C467.024 234.289 466.979 233.917 466.928 233.546C466.58 231 466.189 228.463 465.764 225.934C465.686 225.47 465.607 225.006 465.527 224.543C465.09 222.029 464.618 219.525 464.105 217.031C464.021 216.622 463.931 216.214 463.845 215.806C463.3 213.227 462.724 210.657 462.097 208.102C462.056 207.938 462.011 207.775 461.97 207.611C461.345 205.087 460.675 202.577 459.967 200.078C459.888 199.798 459.814 199.515 459.733 199.235C459.021 196.755 458.26 194.292 457.467 191.841C457.328 191.412 457.191 190.983 457.049 190.556C456.256 188.154 455.424 185.767 454.551 183.395C454.397 182.974 454.238 182.555 454.081 182.135C453.177 179.722 452.239 177.321 451.252 174.942C451.143 174.678 451.028 174.418 450.918 174.155C449.916 171.767 448.876 169.395 447.79 167.044C447.717 166.886 447.647 166.726 447.574 166.567C446.471 164.194 445.314 161.846 444.124 159.513C443.934 159.142 443.748 158.769 443.556 158.399C442.761 156.864 441.918 155.353 441.086 153.836C431.458 154.298 420.964 153.376 413.041 158.367C403.891 164.141 400.578 176.421 391.555 182.401C386.147 185.983 379.674 186.681 373.146 185.881C377.939 203.127 381.338 220.923 383.09 239.469C385.898 269.227 384.673 299.383 379.194 328.773C379.194 328.777 379.193 328.78 379.192 328.784C410.642 319.965 441.015 306.646 468.707 287.916C468.705 287.943 468.703 287.969 468.701 287.996C468.703 287.971 468.705 287.946 468.707 287.921C468.903 285.015 469.044 282.109 469.149 279.203C469.159 278.922 469.173 278.64 469.183 278.359C469.274 275.595 469.317 272.833 469.324 270.072C469.325 269.825 469.337 269.577 469.337 269.33C469.337 269.162 469.329 268.995 469.329 268.826Z" fill="#D5512B"/>
<path d="M468.707 287.917C441.015 306.646 410.641 319.965 379.192 328.784C379.109 329.231 379.026 329.674 378.94 330.12C365.084 402.557 327.178 467.462 278.98 524.067C281.211 523.62 283.439 523.132 285.665 522.614C286.012 522.533 286.359 522.444 286.706 522.362C288.538 521.926 290.368 521.466 292.196 520.982C292.691 520.85 293.185 520.717 293.68 520.582C295.475 520.093 297.268 519.58 299.059 519.043C299.442 518.928 299.825 518.818 300.209 518.701C304.607 517.357 308.99 515.871 313.352 514.238C313.677 514.116 314.001 513.988 314.326 513.864C316.142 513.175 317.955 512.459 319.764 511.718C320.25 511.519 320.735 511.318 321.22 511.115C322.967 510.386 324.71 509.631 326.45 508.853C326.854 508.673 327.258 508.498 327.661 508.315C329.799 507.344 331.932 506.342 334.057 505.298C334.213 505.221 334.366 505.139 334.523 505.061C336.432 504.117 338.318 503.136 340.191 502.136C340.285 502.085 340.378 502.034 340.472 501.984C341.032 501.683 341.593 501.383 342.151 501.078C344.185 499.962 346.201 498.818 348.192 497.637C348.636 497.374 349.073 497.102 349.514 496.836C351.29 495.766 353.047 494.67 354.787 493.549C355.186 493.292 355.59 493.041 355.987 492.781C357.946 491.501 359.878 490.183 361.792 488.84C362.275 488.501 362.755 488.158 363.235 487.815C365.179 486.426 367.108 485.017 369.005 483.564C369.13 483.469 369.252 483.369 369.377 483.273C371.2 481.871 372.996 480.432 374.774 478.973C375.201 478.623 375.629 478.275 376.054 477.921C377.866 476.412 379.656 474.877 381.42 473.311C381.769 473.002 382.113 472.686 382.46 472.374C384.073 470.924 385.665 469.453 387.237 467.958C387.511 467.697 387.79 467.441 388.063 467.179C389.785 465.524 391.477 463.838 393.149 462.129C393.529 461.74 393.907 461.349 394.286 460.957C395.936 459.247 397.571 457.521 399.171 455.76C440.03 410.805 464.563 349.557 468.707 287.917Z" fill="#E35F27"/>
<path d="M105.133 188.454C128.562 194.012 151.792 180.315 171.988 167.199C187.924 156.854 206.288 172.016 222.311 182.227C238.342 192.428 256.507 203.521 275.039 199.324C294.071 195.016 307.682 175.433 327.137 173.92C338.286 173.052 348.822 178.387 359.286 182.305C363.68 183.946 368.428 185.302 373.147 185.881C379.674 186.682 386.147 185.983 391.555 182.401C400.578 176.421 403.891 164.141 413.041 158.367C420.965 153.376 431.458 154.298 441.086 153.836C441.098 153.836 441.111 153.835 441.123 153.834C448.58 153.474 455.515 152.277 460.33 146.851C469.871 136.1 461.899 119.32 453.274 107.821C448.65 101.651 443.791 95.3491 439.472 88.8091C412.171 101.382 383.887 111.731 354.799 119.361C247.178 147.595 132.985 139.384 27.902 104.693C25.3584 114.954 21.3182 124.837 15.8356 133.879C11.8851 140.385 7.1552 146.644 5.3156 154.027C3.48422 161.416 5.5148 170.496 12.2677 174.015C14.8874 175.379 17.5897 175.698 20.3447 175.42C27.7244 174.675 35.4952 169.504 43.1674 167.596C64.749 162.23 83.4953 183.317 105.133 188.454Z" fill="#EFD0A3"/>
<path d="M113.247 110.519C220.264 130.881 332.311 120.493 431.612 74.9743C428.249 67.7032 426.073 60.0863 426.014 51.988C425.99 48.3088 426.34 44.375 425.72 40.8145C424.102 62.7388 334.997 80.4095 225.32 80.4095C118.297 80.4095 30.8633 63.5833 25.2009 42.3998C25.8219 45.5127 26.7857 48.5874 27.6059 51.6605C30.8283 63.7381 31.7902 76.3778 30.6096 88.8174C57.6513 97.8399 85.2304 105.189 113.247 110.519Z" fill="#EFD0A3"/>
<path d="M190.472 56.4716C227.272 55.5158 265.06 48.4764 295.664 27.9936C305.229 21.5986 313.886 13.7783 321.18 4.8911C292.702 1.76904 260.042 0 225.321 0C159.732 0 101.502 6.32379 64.9483 16.0956C64.1141 16.3183 63.2948 16.5436 62.4828 16.7699C62.0449 16.8921 61.6164 17.0156 61.1851 17.1388C60.8239 17.2419 60.4626 17.3447 60.1061 17.4484C59.6062 17.594 59.1138 17.7409 58.623 17.8881C58.3523 17.9693 58.0822 18.0505 57.8143 18.132C57.294 18.2905 56.7782 18.4498 56.2688 18.6101C56.0498 18.6791 55.8336 18.7482 55.6168 18.8172C55.0776 18.989 54.5411 19.1611 54.0147 19.3348C53.8812 19.3789 53.751 19.423 53.6184 19.4674C51.8737 20.0473 50.2011 20.637 48.6011 21.2361C48.3955 21.3131 48.1854 21.3897 47.9816 21.4673C47.6155 21.6065 47.2578 21.7467 46.8996 21.8872C46.573 22.0153 46.2467 22.143 45.9264 22.2716C45.7969 22.3239 45.6603 22.3753 45.532 22.4277C88.3695 47.3935 140.365 57.7696 190.472 56.4716Z" fill="#F4DAB8"/>
<path d="M354.799 119.362C383.887 111.731 412.171 101.382 439.472 88.8091C441.851 87.7134 444.236 86.6289 446.6 85.4991C455.844 81.0821 447.774 67.3455 438.561 71.7461C436.255 72.8482 433.933 73.9102 431.612 74.9743C332.312 120.493 220.265 130.881 113.247 110.519C85.2312 105.189 57.6521 97.8398 30.6104 88.8173C27.6559 87.8317 24.7026 86.8418 21.7612 85.8163C12.063 82.4336 7.89413 97.8149 17.5273 101.174C20.9754 102.376 24.4344 103.548 27.9025 104.693C132.985 139.384 247.178 147.595 354.799 119.362Z" fill="#7F4220"/>
<path d="M39.8966 208.329C39.8966 208.329 21.7506 257.105 30.8261 319.699C30.8279 319.711 30.8291 319.723 30.8309 319.735C58.1113 326.869 85.9027 331.855 113.888 335.426C113.889 335.419 113.89 335.411 113.891 335.404C116.967 297.651 126.766 257.749 149.187 222.836L39.8966 208.329Z" fill="#F7B077"/>
<path d="M30.8308 319.736C38.1266 370.002 62.9805 429.176 128.876 479.137C128.876 479.137 107.68 411.662 113.888 335.426C85.9026 331.855 58.1112 326.87 30.8308 319.736Z" fill="#FABC75"/>
<path d="M225.32 80.4098C334.997 80.4098 424.102 62.7392 425.72 40.8148C425.735 40.6162 425.744 40.4088 425.744 40.2103C425.744 24.9756 383.48 11.707 321.18 4.89111C313.885 13.7783 305.229 21.5986 295.664 27.9936C265.06 48.4764 227.272 55.5158 190.472 56.4716C140.364 57.7696 88.3694 47.3935 45.5322 22.4271C45.4039 22.4791 45.2856 22.5323 45.1587 22.5843C44.5761 22.8236 44.004 23.0642 43.4444 23.306C43.3039 23.3671 43.1589 23.4273 43.0196 23.4884C42.3204 23.795 41.6398 24.1033 40.9784 24.4139C40.8537 24.4722 40.7342 24.5309 40.6116 24.589C40.0493 24.8563 39.5016 25.1249 38.9675 25.3949C38.8386 25.46 38.7084 25.5248 38.5819 25.5899C37.9497 25.9147 37.3332 26.2407 36.7423 26.5691C36.7362 26.5725 36.7308 26.5758 36.725 26.5792C36.1539 26.897 35.608 27.2172 35.0755 27.5389C34.9563 27.611 34.8383 27.6834 34.7209 27.7555C34.2376 28.0535 33.7684 28.3528 33.3189 28.6535C33.2705 28.6858 33.2201 28.7174 33.1723 28.7496C32.6815 29.0811 32.215 29.4144 31.7661 29.7493C31.6703 29.821 31.5781 29.8931 31.4842 29.9649C31.1256 30.2386 30.7813 30.5135 30.4508 30.7893C30.3604 30.8651 30.2674 30.9399 30.1792 31.0156C29.789 31.3498 29.4174 31.6853 29.0692 32.0225C29.0169 32.0733 28.97 32.1247 28.9186 32.1755C28.6267 32.4638 28.3518 32.7536 28.0905 33.0441C28.006 33.1383 27.9233 33.2326 27.8418 33.3269C27.5793 33.6319 27.3311 33.9382 27.1031 34.2453C27.0757 34.2824 27.0441 34.3192 27.0173 34.3563C26.7707 34.6954 26.5508 35.036 26.3467 35.3778C26.2895 35.473 26.2379 35.5682 26.1846 35.6634C26.032 35.9356 25.8927 36.2084 25.7677 36.4821C25.7288 36.5663 25.6862 36.6506 25.6497 36.7354C25.5031 37.0794 25.3769 37.4245 25.2735 37.7709C25.2513 37.8451 25.2361 37.9193 25.216 37.9939C25.1391 38.2785 25.0767 38.5638 25.0293 38.8502C25.0135 38.9485 24.9968 39.0467 24.9837 39.1449C24.9381 39.4986 24.9067 39.8532 24.9067 40.2096C24.9067 40.5028 24.9222 40.7978 24.9542 41.0852C25.0263 41.5222 25.1135 41.961 25.2017 42.3996C30.8635 63.5837 118.297 80.4098 225.32 80.4098Z" fill="#E5BC85"/>
</svg>
