<svg width="561" height="338" viewBox="0 0 561 338" fill="none" xmlns="http://www.w3.org/2000/svg">
<path d="M11.8004 142.786C11.8004 144.519 13.2052 145.924 14.9383 145.924C16.6715 145.924 18.0762 144.519 18.0762 142.786C18.0762 141.052 16.6715 139.648 14.9383 139.648C13.206 139.648 11.8004 141.052 11.8004 142.786Z" stroke="#ACB6E8" stroke-width="1.27627" stroke-miterlimit="10" stroke-linejoin="round"/>
<path d="M41.2157 227.793C39.4827 227.793 38.0778 226.389 38.0778 224.655C38.0778 222.922 39.4827 221.518 41.2157 221.518C42.9487 221.518 44.3536 222.922 44.3536 224.655C44.3536 226.389 42.9487 227.793 41.2157 227.793Z" stroke="#ACB6E8" stroke-width="1.27627" stroke-miterlimit="10" stroke-linejoin="round"/>
<path d="M545.542 162.222C545.542 163.955 546.947 165.36 548.68 165.36C550.413 165.36 551.818 163.955 551.818 162.222C551.818 160.489 550.413 159.084 548.68 159.084C546.947 159.084 545.542 160.489 545.542 162.222Z" stroke="#ACB6E8" stroke-width="1.27627" stroke-miterlimit="10" stroke-linejoin="round"/>
<path d="M25.1111 73.6758V80.3847" stroke="#ACB6E8" stroke-width="1.27627" stroke-miterlimit="10" stroke-linejoin="round"/>
<path d="M21.7562 77.0306H28.4651" stroke="#ACB6E8" stroke-width="1.27627" stroke-miterlimit="10" stroke-linejoin="round"/>
<path d="M29.0377 197.324L21.7562 219.175L6.66899 210.998L29.0377 197.324Z" stroke="#ACB6E8" stroke-width="1.27627" stroke-miterlimit="10" stroke-linejoin="round"/>
<path opacity="0.55" d="M526.404 105.344L558.994 116.233L539.213 132.244L526.404 105.344Z" fill="#FFF6D2"/>
<path d="M529.938 192.133L548.284 212.705L521.366 223.223L529.938 192.133Z" stroke="#ACB6E8" stroke-width="1.27627" stroke-miterlimit="10" stroke-linejoin="round"/>
<path d="M327.802 332.332C333.963 324.694 340.279 317.828 346.762 312.249C360.871 300.109 375.986 294.582 386.997 301.968C389.185 303.436 391.271 305.624 392.321 309.124C399.998 297.791 410.604 287.34 419.821 277.241C425.303 271.234 461.192 240.103 465.366 259.152C465.722 260.776 465.836 262.593 465.771 264.532C477.379 248.449 489.701 234.43 502.215 222.923C510.603 215.209 519.408 208.405 527.376 207.885C535.343 207.366 542.259 214.542 542.534 228.28C542.646 233.894 541.676 240.144 540.435 246.287C536.899 263.791 531.169 280.948 524.176 297.113C529.777 291.663 535.521 287.395 540.863 286.796C555.624 285.141 544.441 312.372 534.601 332.331H327.802V332.332Z" fill="#9FB78D"/>
<path d="M524.861 295.726C518.101 303.321 512.288 311.758 507.6 320.78" stroke="black" stroke-width="1.27627" stroke-miterlimit="10"/>
<path d="M465.811 264.473C448.71 283.973 433.181 304.494 419.371 325.838" stroke="black" stroke-width="1.27627" stroke-miterlimit="10"/>
<path d="M392.261 309.583C388.111 315.789 383.963 321.996 379.813 328.203" stroke="black" stroke-width="1.27627" stroke-miterlimit="10"/>
<path d="M534.824 297.183C526.346 308.465 518.581 320.284 511.589 332.543" stroke="#6D875C" stroke-width="1.27627" stroke-miterlimit="10"/>
<path d="M523.207 233.077C499.755 264.826 479.245 298.116 461.925 332.543" stroke="#6D875C" stroke-width="1.27627" stroke-miterlimit="10"/>
<path d="M374.23 309.127C367.999 316.924 361.88 324.83 355.876 332.838" stroke="#6D875C" stroke-width="1.27627" stroke-miterlimit="10"/>
<path d="M37.2541 298.723C52.0817 280.635 74.1849 264.143 87.5577 272.526C90.2148 274.192 95.3718 281.911 88.8101 305.929C95.4314 294.365 102.171 282.016 109.989 271.365C118.488 259.785 127.435 247.158 137.944 237.421C150.063 226.191 171.792 203.177 192.842 216.094C198.998 219.872 202.015 227.439 203.556 234.278C205.313 242.077 204.899 250.161 203.728 257.713C202.142 267.93 183.5 311.967 174.753 332.264H14.939C14.939 332.264 31.4122 305.85 37.2541 298.723Z" fill="#9FB78D"/>
<path d="M186.616 228.421C161.638 261.643 140.4 296.478 123.158 332.503" stroke="#6D875C" stroke-width="1.27627" stroke-miterlimit="10"/>
<path d="M68.2828 305.932C62.1405 314.78 56.137 323.75 50.2755 332.838" stroke="#6D875C" stroke-width="1.27627" stroke-miterlimit="10"/>
<path d="M350.307 296.337L346.796 318.277C346.796 318.277 318.729 318.277 318.514 318.277C318.299 318.277 322.619 294.831 322.619 294.831" fill="#F4C3AB"/>
<path d="M318.233 313.376H348.376L350.751 333.289H298.854C298.361 319.014 314.577 321.609 318.233 313.376Z" fill="#DFE8FE"/>
<path d="M350.307 329.564H299.17" stroke="#9095AD" stroke-width="0.850844" stroke-miterlimit="10"/>
<path d="M349.275 320.91C349.275 320.91 341.336 321.434 338.411 329.564" stroke="#9095AD" stroke-width="0.850844" stroke-miterlimit="10"/>
<path d="M307.856 321.339C307.856 321.339 312.667 323.638 314.702 329.563" stroke="#9095AD" stroke-width="0.850844" stroke-miterlimit="10"/>
<path d="M316.294 316.029L320.703 320.524" stroke="#9095AD" stroke-width="0.850844" stroke-miterlimit="10"/>
<path d="M313.588 317.967L317.997 322.463" stroke="#9095AD" stroke-width="0.850844" stroke-miterlimit="10"/>
<path d="M288.586 296.337L285.075 318.277C285.075 318.277 257.008 318.277 256.793 318.277C256.578 318.277 260.899 294.831 260.899 294.831" fill="#F4C3AB"/>
<path d="M256.512 313.376H286.655L289.03 333.289H237.133C236.64 319.014 252.856 321.609 256.512 313.376Z" fill="#DFE8FE"/>
<path d="M288.586 329.564H237.45" stroke="#9095AD" stroke-width="0.850844" stroke-miterlimit="10"/>
<path d="M287.554 320.91C287.554 320.91 279.615 321.434 276.689 329.564" stroke="#9095AD" stroke-width="0.850844" stroke-miterlimit="10"/>
<path d="M246.135 321.339C246.135 321.339 250.946 323.638 252.981 329.563" stroke="#9095AD" stroke-width="0.850844" stroke-miterlimit="10"/>
<path d="M254.574 316.029L258.983 320.524" stroke="#9095AD" stroke-width="0.850844" stroke-miterlimit="10"/>
<path d="M251.867 317.967L256.277 322.463" stroke="#9095AD" stroke-width="0.850844" stroke-miterlimit="10"/>
<path d="M369.558 118.594C372.256 129.804 376.359 140.835 376.843 152.458C377.347 164.576 373.309 176.469 371.063 188.256C367.947 204.616 353.631 309.601 353.631 309.601H308.173L330.333 152.774L325.917 128.874" fill="#2C2635"/>
<path d="M297.435 129.649C297.435 129.649 297.146 150.044 297.435 149.976C297.723 149.908 251.829 309.601 251.829 309.601H298.263C298.263 309.601 348.026 161.38 347.782 152.774C347.537 144.168 344.285 132.19 340.139 123.134" fill="#2C2635"/>
<path d="M315.009 257.494L328.633 165.738" stroke="black" stroke-width="1.27627" stroke-miterlimit="10"/>
<path d="M366.313 132.516C367.212 132.972 367.603 134.027 367.893 134.993C369.307 139.694 370.214 144.548 370.593 149.442C365.159 149.195 359.686 148.048 354.94 145.392C350.194 142.735 346.224 138.463 344.61 133.271" stroke="#645B72" stroke-width="0.850844" stroke-miterlimit="10"/>
<path d="M273.738 72.5808C284.503 97.3753 292.144 123.524 296.424 150.214L376.612 131.322C368.998 103.626 354.832 77.7523 335.602 56.4157L303.47 49.1282L279.055 62.9901" fill="#8668BC"/>
<path d="M36.4748 266.015L26.7539 286.823C26.7539 286.823 59.5471 304.103 59.799 304.235C60.05 304.368 69.3582 281.563 69.3582 281.563" fill="#A85C47"/>
<path d="M64.4999 297.643L28.5458 280.634L18.3731 302.158L74.3016 332.164C80.8718 317.74 67.3468 316.932 64.3833 303.183C63.7001 300.011 64.4999 297.643 64.4999 297.643Z" fill="#4C4139"/>
<path d="M20.2076 298.723L75.5635 328.93" stroke="black" stroke-width="0.850844" stroke-miterlimit="10"/>
<path d="M72.3362 317.379C72.3362 317.379 66.0706 316.002 61.3723 320.974" stroke="black" stroke-width="0.850844" stroke-miterlimit="10"/>
<path d="M65.0325 304.345L58.2939 306.107" stroke="black" stroke-width="0.850844" stroke-miterlimit="10"/>
<path d="M64.4378 300.698L57.5383 301.572" stroke="black" stroke-width="0.850844" stroke-miterlimit="10"/>
<path d="M66.97 309.414L60.9877 310.792" stroke="black" stroke-width="0.850844" stroke-miterlimit="10"/>
<path d="M28.4871 293.804C27.758 295.862 28.6828 298.329 30.5538 299.315C32.424 300.301 34.5315 299.431 35.2615 297.373C35.9907 295.315 35.0658 292.847 33.1948 291.861C31.3238 290.876 29.2163 291.745 28.4871 293.804Z" stroke="black" stroke-width="0.850844" stroke-miterlimit="10"/>
<path d="M119.028 287.57L118.603 310.531C118.603 310.531 155.589 312.992 155.872 313.011C156.155 313.03 155.392 288.411 155.392 288.411" fill="#A85C47"/>
<path d="M157.488 305.078L117.725 304.151L117.178 327.952L180.474 332.637C180.615 316.788 167.929 321.546 159.634 310.188C157.719 307.567 157.488 305.078 157.488 305.078Z" fill="#4C4139"/>
<path d="M117.457 324.067L180.312 329.169" stroke="black" stroke-width="0.850844" stroke-miterlimit="10"/>
<path d="M172.669 319.926C172.669 319.926 166.384 321.214 164.112 327.667" stroke="black" stroke-width="0.850844" stroke-miterlimit="10"/>
<path d="M160.698 310.985L155.257 315.334" stroke="black" stroke-width="0.850844" stroke-miterlimit="10"/>
<path d="M158.673 307.895L152.723 311.498" stroke="black" stroke-width="0.850844" stroke-miterlimit="10"/>
<path d="M164.529 314.83L159.623 318.52" stroke="black" stroke-width="0.850844" stroke-miterlimit="10"/>
<path d="M123.023 316.206C123.193 318.383 125.041 320.262 127.151 320.402C129.26 320.542 130.833 318.891 130.663 316.714C130.492 314.537 128.644 312.658 126.534 312.519C124.425 312.379 122.853 314.029 123.023 316.206Z" stroke="black" stroke-width="0.850844" stroke-miterlimit="10"/>
<path d="M129.054 141.498C129.054 141.498 148.551 167.665 158.636 192.021C162.9 202.317 165.726 224.019 167.653 241.914C168.992 254.349 171.454 293.623 171.454 293.623L116.334 294.831L115.111 214.012C115.111 214.012 94.9261 178.796 92.5506 172.908C90.175 167.019 80.5307 154.181 87.8216 137.305" fill="#A2BDFF"/>
<path d="M125.224 294.831C125.224 294.831 122.112 224.257 120.444 218.083C118.776 211.909 90.5758 168.088 90.5758 168.088" stroke="black" stroke-width="0.850844" stroke-miterlimit="10"/>
<path d="M102.265 159.188C102.265 159.188 108.056 204.953 106.718 216.069C105.324 227.642 102.683 237.851 97.4651 251.354C89.9215 270.872 77.0661 297.289 77.0661 297.289L29.0377 277.458L59.8569 217.373C59.8569 217.373 54.7697 163.449 56.7964 146.412C58.4403 132.588 61.2633 128.092 68.3347 118.433" fill="#A2BDFF"/>
<path d="M38.6453 281.47L64.7654 230.548C67.8089 224.614 69.1353 217.951 68.5865 211.305C67.2294 194.858 64.9271 162.843 66.4041 150.424C68.048 136.599 70.8711 132.104 77.9424 122.445" stroke="black" stroke-width="0.850844" stroke-miterlimit="10"/>
<path d="M106.321 198.517L103.838 165.273" stroke="black" stroke-width="0.850844" stroke-miterlimit="10"/>
<path d="M90.9756 153.192C90.9756 153.192 85.4247 160.004 82.3277 160.004C79.2306 160.004 66.0578 160.004 66.0578 160.004" stroke="black" stroke-width="0.850844" stroke-miterlimit="10"/>
<path d="M93.7767 234.321C88.3321 237.927 83.0646 241.801 78.0003 245.925" stroke="black" stroke-width="0.850844" stroke-miterlimit="10"/>
<path d="M85.4232 233.344C83.3488 234.442 81.0796 235.171 78.7542 235.487" stroke="black" stroke-width="0.850844" stroke-miterlimit="10"/>
<path d="M159.189 217.912C157.847 222.177 156.504 226.442 155.162 230.709" stroke="black" stroke-width="0.850844" stroke-miterlimit="10"/>
<path d="M155.217 215.716C153.924 218.205 152.326 220.534 150.467 222.634" stroke="black" stroke-width="0.850844" stroke-miterlimit="10"/>
<path d="M143.513 163.135C139.351 163.034 136.362 162.689 132.266 162.032C131.629 161.93 130.981 161.817 130.415 161.541C129.682 161.184 129.149 160.585 128.636 160.003C126.334 157.39 124.034 154.777 121.732 152.165" stroke="black" stroke-width="0.850844" stroke-miterlimit="10"/>
<path d="M84.3128 281.911L36.3813 263.139" stroke="black" stroke-width="0.850844" stroke-miterlimit="10"/>
<path d="M116.086 278.435L170.273 275.618" stroke="black" stroke-width="0.850844" stroke-miterlimit="10"/>
<path d="M179.429 107.185L181.299 113.076L214.214 104.764L218.607 128.227C218.607 128.227 193.754 144.911 182.075 148.536C170.397 152.161 157.773 151.075 154.164 133.46C150.556 115.845 148.439 103.754 148.439 103.754" fill="#894434"/>
<path d="M154.911 71.028C154.911 71.028 170.514 71.6048 174.977 79.9082C179.44 88.2116 183.59 109.89 183.59 109.89L148.857 117.898L145.759 96.0742" fill="#FFE689"/>
<path d="M156.487 74.2952C156.487 74.2952 151.693 78.9383 144.696 75.2618C137.699 71.5853 136.268 61.302 136.268 61.302C136.268 61.302 126.663 57.7276 117.267 58.8626C103.893 60.4784 96.803 68.2109 89.4143 78.4048C78.0376 94.1003 55.9395 137.304 55.9395 137.304C55.9395 137.304 68.0896 160.742 101.683 165.022C131.418 168.811 139.342 156.309 139.342 156.309L163.126 88.5528L156.487 74.2952Z" fill="#FFE689"/>
<path d="M151.676 115.171L160.648 94.7495" stroke="black" stroke-width="0.850844" stroke-miterlimit="10"/>
<path d="M152.75 84.2399C148.847 85.4073 144.298 84.7232 140.524 82.5382C133.651 78.5597 128.527 68.6542 130.385 59.9943" stroke="#CC8A4A" stroke-width="1.27627" stroke-miterlimit="10"/>
<path d="M160.987 75.3358C160.115 78.6703 158.373 81.0603 156.162 82.6046" stroke="#CC8A4A" stroke-width="1.27627" stroke-miterlimit="10"/>
<path d="M148.674 49.745L138.886 52.0202L138.499 55.1649L135.752 61.1225C135.752 61.1225 134.655 72.9713 145.62 77.5761C152.021 80.2639 156.394 75.7162 156.394 75.7162L160.648 65.7426" fill="#A85C47"/>
<path d="M170.231 63.0879C172.237 58.6678 173.121 53.3849 173.451 49.5893C173.731 46.3765 173.763 41.4824 171.963 38.7487C169.646 35.227 164.8 34.6527 160.775 33.7593C154.166 32.2925 148.891 37.8536 146.301 43.2998C144.311 47.4834 143.064 51.89 143.99 56.5245C145.495 64.0596 152.306 72.3332 160.718 71.3692C165.289 70.8451 168.288 67.3711 170.231 63.0879Z" fill="#A85C47"/>
<path d="M161.432 51.4722C161.284 52.2686 160.67 52.8217 160.061 52.7085C159.452 52.5953 159.079 51.8577 159.228 51.0621C159.376 50.2657 159.99 49.7127 160.598 49.8258C161.208 49.939 161.581 50.6767 161.432 51.4722Z" fill="black"/>
<path d="M172.068 54.1396C171.92 54.936 171.305 55.489 170.697 55.3759C170.088 55.2627 169.714 54.525 169.863 53.7295C170.011 52.9331 170.626 52.38 171.234 52.4932C171.842 52.6064 172.216 53.344 172.068 54.1396Z" fill="black"/>
<path d="M167.368 51.6475C167.368 51.6475 167.201 55.4499 167.441 56.7985C167.618 57.794 168.088 59.4054 166.718 59.7645C165.862 59.9883 163.926 59.6292 163.926 59.6292" stroke="black" stroke-width="0.850844" stroke-miterlimit="10"/>
<path d="M133.526 39.9774C133.225 43.1518 133.77 46.3842 135.063 49.2575C135.301 49.7867 138.499 55.1641 138.499 55.1641L146.685 45.6823C146.685 45.6823 150.16 43.9219 150.672 43.944C152.264 44.0112 153.856 43.3782 155.126 42.4014C156.685 41.2026 157.82 39.5204 158.755 37.7796C158.861 39.0857 160.24 39.871 161.515 40.0658C163.941 40.4368 166.123 39.4218 167.889 37.7728C168.335 41.0409 172.157 44.708 175.463 44.7123C179.301 44.7174 183.386 43.0829 185.115 39.3443C186.495 36.3613 186.27 32.8907 184.966 30.0642C183.79 27.5176 181.344 26.3494 178.792 25.2544C176.24 24.1593 172.764 24.0028 170.629 24.6196C170.181 22.9239 168.677 21.7327 167.093 21.0393C162.523 19.0406 156.648 20.5841 153.505 24.6077C153.318 24.8477 153.124 25.1072 152.842 25.2161C152.543 25.3318 152.213 25.2518 151.905 25.1795C148.477 24.3737 144.472 24.5252 141.232 26.1231C136.371 28.5182 134.01 34.8842 133.526 39.9774Z" fill="black"/>
<path d="M148.793 66.1051C148.947 66.2446 152.218 71.171 159.132 71.6458" stroke="black" stroke-width="0.850844" stroke-miterlimit="10"/>
<path d="M162.554 62.4447C162.012 62.734 161.46 63.0267 160.858 63.1475C160.256 63.2683 159.584 63.1926 159.107 62.8054C158.826 62.5774 158.632 62.2592 158.483 61.9291C157.981 60.8162 157.954 59.4982 158.411 58.3657" stroke="black" stroke-width="0.850844" stroke-miterlimit="10"/>
<path d="M155.575 50.1951C155.553 52.7672 157.62 54.8696 160.192 54.8918C162.764 54.9139 164.866 52.8463 164.888 50.2751C164.91 47.7038 162.843 45.6005 160.272 45.5784C157.699 45.5563 155.596 47.623 155.575 50.1951Z" stroke="#E88852" stroke-width="0.850844" stroke-miterlimit="10"/>
<path d="M168.604 53.3908C168.582 55.9629 170.478 58.0637 172.84 58.0841C175.202 58.1045 177.134 56.0361 177.156 53.464C177.178 50.8919 175.281 48.7912 172.92 48.7708C170.558 48.7512 168.625 50.8196 168.604 53.3908Z" stroke="#E88852" stroke-width="0.850844" stroke-miterlimit="10"/>
<path d="M156.214 47.8833L145.063 47.4894" stroke="#E88852" stroke-width="0.850844" stroke-miterlimit="10"/>
<path d="M164.893 49.7135L169.505 50.5805" stroke="#E88852" stroke-width="0.850844" stroke-miterlimit="10"/>
<path d="M150.5 50.7754C150.69 48.3888 147.665 46.1979 145.474 46.7441C140.206 48.0578 141.003 57.3346 145.639 58.6832C146.951 59.0644 148.921 58.7317 149.547 57.2657" fill="#A85C47"/>
<path d="M144.696 50.767L148.667 55.1641" stroke="black" stroke-width="0.850844" stroke-miterlimit="10"/>
<path d="M148.551 47.6129C149.551 48.36 150.314 49.4312 150.711 50.6428" stroke="black" stroke-width="0.850844" stroke-miterlimit="10"/>
<path d="M141.81 53.9602C142.269 55.9725 143.399 58.1685 145.481 58.7317C146.927 59.1231 148.675 58.6484 149.43 57.1841" stroke="black" stroke-width="0.850844" stroke-miterlimit="10"/>
<path d="M126.551 100.585L125.08 110.889L155.601 110.22L155.464 135.415C155.464 135.415 115.616 143.505 103.756 140.95C93.922 138.831 86.3291 131.718 89.0127 116.534C92.2272 98.3418 95.7011 86.2743 95.7011 86.2743" fill="#A85C47"/>
<path d="M131.961 76.1527L126.315 105.867L88.919 102.962L93.0328 79.0549" fill="#FFE689"/>
<path d="M128.158 96.167L90.5756 93.332" stroke="#CC8A4A" stroke-width="1.27627" stroke-miterlimit="10"/>
<path d="M88.919 102.962L93.0328 79.0549" stroke="black" stroke-width="0.850844" stroke-miterlimit="10"/>
<path d="M131.961 76.1527L126.315 105.867" stroke="black" stroke-width="0.850844" stroke-miterlimit="10"/>
<path d="M125.08 110.889C125.08 110.889 109.361 110.208 103.838 112.378" stroke="black" stroke-width="0.850844" stroke-miterlimit="10"/>
<path d="M320.883 316.633H396.073V332.332H320.883V316.633Z" fill="#EAA242"/>
<path d="M383.29 316.633H387.671V332.332H383.29V316.633Z" fill="#D8892B"/>
<path d="M369.245 316.633H373.627V332.332H369.245V316.633Z" fill="#D8892B"/>
<path d="M355.2 316.633H359.582V332.332H355.2V316.633Z" fill="#D8892B"/>
<path d="M341.155 316.633H345.537V332.332H341.155V316.633Z" fill="#D8892B"/>
<path d="M327.11 316.633H331.492V332.332H327.11V316.633Z" fill="#D8892B"/>
<path d="M311.363 269.668H386.553V285.367H311.363V269.668Z" fill="#EAA242"/>
<path d="M373.77 269.668H378.151V285.367H373.77V269.668Z" fill="#D8892B"/>
<path d="M359.725 269.668H364.107V285.367H359.725V269.668Z" fill="#D8892B"/>
<path d="M345.68 269.668H350.062V285.367H345.68V269.668Z" fill="#D8892B"/>
<path d="M331.635 269.668H336.017V285.367H331.635V269.668Z" fill="#D8892B"/>
<path d="M317.59 269.668H321.972V285.367H317.59V269.668Z" fill="#D8892B"/>
<path d="M322.598 285.368H397.787V301.066H322.598V285.368Z" fill="#EAA242"/>
<path d="M385.005 285.368H389.387V301.066H385.005V285.368Z" fill="#D8892B"/>
<path d="M370.96 285.368H375.342V301.066H370.96V285.368Z" fill="#D8892B"/>
<path d="M356.915 285.368H361.297V301.066H356.915V285.368Z" fill="#D8892B"/>
<path d="M342.871 285.368H347.253V301.066H342.871V285.368Z" fill="#D8892B"/>
<path d="M328.826 285.368H333.208V301.066H328.826V285.368Z" fill="#D8892B"/>
<path d="M327.025 300.934H402.215V316.633H327.025V300.934Z" fill="#EAA242"/>
<path d="M389.433 300.934H393.815V316.633H389.433V300.934Z" fill="#D8892B"/>
<path d="M375.388 300.934H379.77V316.633H375.388V300.934Z" fill="#D8892B"/>
<path d="M361.343 300.934H365.725V316.633H361.343V300.934Z" fill="#D8892B"/>
<path d="M347.298 300.934H351.68V316.633H347.298V300.934Z" fill="#D8892B"/>
<path d="M333.253 300.934H337.635V316.633H333.253V300.934Z" fill="#D8892B"/>
<path d="M396.073 316.633H327.025" stroke="#8E5D28" stroke-width="1.27627" stroke-miterlimit="10"/>
<path d="M397.787 300.273H327.025" stroke="#8E5D28" stroke-width="1.27627" stroke-miterlimit="10"/>
<path d="M387.196 285.368H322.597" stroke="#8E5D28" stroke-width="1.27627" stroke-miterlimit="10"/>
<path d="M388.251 266.716L399.144 259.005L442.71 320.545L431.818 328.256C419.072 337.279 398.986 330.818 386.956 313.825C374.925 296.831 375.506 275.739 388.251 266.716Z" fill="#EAA242"/>
<mask id="mask0_2010_6099" style="mask-type:luminance" maskUnits="userSpaceOnUse" x="378" y="259" width="65" height="74">
<path d="M388.251 266.716L399.144 259.005L442.71 320.545L431.818 328.256C419.072 337.279 398.986 330.818 386.956 313.825C374.925 296.831 375.506 275.739 388.251 266.716Z" fill="white"/>
</mask>
<g mask="url(#mask0_2010_6099)">
<path d="M371.131 288.256L397.874 269.323L395.676 266.218L368.932 285.151L371.131 288.256ZM369.425 299.225L396.169 280.292L398.368 283.397L371.623 302.33L369.425 299.225ZM369.918 313.3L396.662 294.367L398.86 297.472L372.117 316.405L369.918 313.3ZM404.259 335.052L431.003 316.119L433.201 319.224L406.458 338.157L404.259 335.052ZM391.147 329.909L417.891 310.976L420.09 314.082L393.346 333.015L391.147 329.909ZM378.037 324.768L404.781 305.835L406.979 308.939L380.235 327.872L378.037 324.768Z" fill="#D8892B"/>
</g>
<path d="M397.624 306.261C385.594 289.267 386.174 268.175 398.921 259.152C411.667 250.128 431.753 256.59 443.784 273.584C455.814 290.578 455.234 311.67 442.487 320.693C429.741 329.717 409.655 323.255 397.624 306.261Z" fill="#FFD652"/>
<path d="M398.928 259.157C386.183 268.18 385.603 289.272 397.633 306.266C409.664 323.26 429.749 329.721 442.494 320.697" stroke="black" stroke-width="1.27627" stroke-miterlimit="10"/>
<path d="M404.736 301.227C395.403 288.043 395.42 271.988 404.773 265.367C414.127 258.746 429.275 264.065 438.608 277.249C447.94 290.432 447.924 306.487 438.57 313.108C429.217 319.73 414.069 314.41 404.736 301.227Z" fill="#EAA242"/>
<path d="M444.383 305.205C447.144 297.359 445.223 286.587 438.615 277.253C429.282 264.07 414.135 258.751 404.782 265.372" stroke="black" stroke-width="1.27627" stroke-miterlimit="10"/>
<path d="M399.317 272.428C396.594 277.769 397.102 284.512 398.88 290.069" stroke="black" stroke-width="1.27627" stroke-miterlimit="10"/>
<path d="M393.811 321.644C391.34 319.367 389.028 316.753 386.956 313.825C377.969 301.129 376.019 286.147 380.923 275.618" stroke="black" stroke-width="1.27627" stroke-miterlimit="10"/>
<path d="M185.771 291.086L192.391 329.166C192.765 331.313 194.477 332.867 196.473 332.867H220.633C222.228 332.867 223.678 331.866 224.374 330.295C229.557 318.592 249.945 268.688 245.738 216.367" fill="#FFC3C0"/>
<path d="M289.301 291.086L295.401 325.812C296.12 329.906 299.42 332.868 303.261 332.868H320.709C324.456 332.868 327.7 330.047 328.518 326.08L336.057 289.487" fill="#FFC3C0"/>
<path d="M332.556 157.591C332.658 157.299 332.791 157.027 332.961 156.776C335.716 152.694 341.325 152.872 345.664 153.252C350.959 153.716 356.708 153.874 361.905 154.814C371.448 156.54 366.735 168.633 364.855 174.809C363.606 178.912 360.658 191.409 355.376 192.46C350.695 193.389 344.451 182.411 342.486 179.457C339.96 175.661 330.636 163.084 332.556 157.591Z" fill="#D6706E"/>
<path d="M134.544 182.731C139.825 182.731 145.088 180.643 148.827 177.013L146.615 174.732C143.263 177.983 138.238 179.816 133.499 179.521C130.905 179.358 127.322 178.505 124.455 175.466C128.727 173.607 132.35 168.691 131.216 163.807C130.535 160.869 128.611 158.932 126.071 158.623C123.453 158.304 120.785 159.871 119.441 162.52C117.817 165.719 117.834 169.785 119.312 173.327C118.44 173.275 117.686 173.025 117.054 172.575C115.322 171.347 114.293 168.427 114.301 164.765L111.124 164.757C111.112 169.52 112.603 173.314 115.214 175.167C116.845 176.323 118.817 176.739 121.091 176.412C121.149 176.488 121.209 176.562 121.268 176.637C124.147 180.234 128.419 182.385 133.3 182.691C133.713 182.718 134.13 182.731 134.544 182.731ZM125.385 161.759C125.486 161.759 125.588 161.765 125.688 161.778C126.879 161.923 127.742 162.899 128.12 164.526C128.959 168.138 125.536 171.744 122.713 172.739C122.663 172.757 122.612 172.774 122.562 172.792C121.146 169.95 120.981 166.507 122.273 163.959C122.959 162.609 124.179 161.759 125.385 161.759Z" fill="#D6706E"/>
<path d="M211.392 311.89H283.456C331.634 311.89 370.69 272.834 370.69 224.656C370.69 176.477 331.634 137.421 283.456 137.421H211.392C163.214 137.421 124.158 176.477 124.158 224.656C124.158 272.834 163.214 311.89 211.392 311.89Z" fill="#FFC3C0"/>
<path d="M346.634 200.453H359.515V261.296H346.634C331.561 261.296 319.342 247.676 319.342 230.874C319.341 214.073 331.56 200.453 346.634 200.453Z" fill="#D6706E"/>
<path d="M358.309 261.296C343.236 261.296 331.017 247.676 331.017 230.874C331.017 214.073 343.236 200.453 358.309 200.453C373.382 200.453 385.601 214.073 385.601 230.874C385.601 247.676 373.382 261.296 358.309 261.296Z" fill="#FFC3C0"/>
<path d="M349.993 247.566C352.935 247.566 355.319 245.181 355.319 242.239V219.93C355.319 216.988 352.934 214.604 349.993 214.604C347.05 214.604 344.666 216.989 344.666 219.93V242.239C344.665 245.181 347.05 247.566 349.993 247.566Z" fill="#ED8C8C"/>
<path d="M347.927 215.022L347.926 215.02C348.562 214.752 349.26 214.604 349.994 214.604C352.936 214.604 355.32 216.989 355.32 219.93V242.239C355.32 245.181 352.935 247.566 349.994 247.566C349.259 247.566 348.561 247.417 347.924 247.149C349.838 246.342 351.181 244.448 351.181 242.24V219.931C351.18 217.724 349.839 215.831 347.927 215.022Z" fill="#D6706E"/>
<path d="M349.993 214.604C347.051 214.604 344.666 216.989 344.666 219.93V242.239" stroke="black" stroke-width="1.27627" stroke-miterlimit="10"/>
<path d="M371.232 247.566C374.175 247.566 376.559 245.181 376.559 242.239V219.93C376.559 216.988 374.174 214.604 371.232 214.604C368.29 214.604 365.906 216.989 365.906 219.93V242.239C365.905 245.181 368.29 247.566 371.232 247.566Z" fill="#ED8C8C"/>
<path d="M369.166 215.022L369.165 215.02C369.8 214.752 370.499 214.604 371.232 214.604C374.175 214.604 376.559 216.989 376.559 219.93V242.239C376.559 245.181 374.174 247.566 371.232 247.566C370.498 247.566 369.799 247.417 369.163 247.149C371.077 246.342 372.42 244.448 372.42 242.24V219.931C372.419 217.724 371.078 215.831 369.166 215.022Z" fill="#D6706E"/>
<path d="M371.232 214.604C368.29 214.604 365.906 216.989 365.906 219.93V232.817" stroke="black" stroke-width="1.27627" stroke-miterlimit="10"/>
<path d="M369.601 203.176C369.601 203.176 364.994 199.693 355.319 200.452" stroke="black" stroke-width="1.27627" stroke-miterlimit="10"/>
<path d="M365.364 260.27C365.364 260.27 351.132 265.7 339.428 252.835" stroke="black" stroke-width="1.27627" stroke-miterlimit="10"/>
<path d="M314.709 195.552C312.493 195.552 310.697 192.724 310.697 189.237C310.697 185.749 312.493 182.922 314.709 182.922C316.925 182.922 318.722 185.749 318.722 189.237C318.722 192.724 316.925 195.552 314.709 195.552Z" fill="black"/>
<path d="M348.679 195.552C346.463 195.552 344.667 192.724 344.667 189.237C344.667 185.749 346.463 182.922 348.679 182.922C350.895 182.922 352.692 185.749 352.692 189.237C352.692 192.724 350.895 195.552 348.679 195.552Z" fill="black"/>
<path d="M275.482 260.687C264.654 256.281 259.448 243.931 263.854 233.104C268.26 222.276 280.61 217.07 291.437 221.476C302.265 225.882 307.471 238.232 303.065 249.059C298.658 259.887 286.309 265.093 275.482 260.687Z" fill="#F7B0A9"/>
<path d="M196.517 182.922H162.992C176.792 155.913 204.885 137.42 237.298 137.42H270.823C238.41 137.42 210.317 155.913 196.517 182.922Z" fill="#ED8C8C"/>
<path d="M175.051 182.922H162.992C176.792 155.913 204.885 137.42 237.298 137.42H270.823C261.535 137.42 252.604 138.945 244.26 141.748C214.739 142.701 189.103 158.998 175.051 182.922Z" fill="#D6706E"/>
<mask id="mask1_2010_6099" style="mask-type:luminance" maskUnits="userSpaceOnUse" x="160" y="85" width="111" height="98">
<path d="M196.517 182.922H162.992C149.641 95.4669 190.005 86.0854 211.07 85.7613C244.113 85.2516 270.823 137.42 270.823 137.42C238.41 137.42 210.317 155.913 196.517 182.922Z" fill="white"/>
</mask>
<g mask="url(#mask1_2010_6099)">
<path d="M193.425 97.3225L206.398 94.1906L224.093 167.485L211.12 170.617C195.939 174.281 179.672 160.845 174.785 140.606C169.899 120.366 178.244 100.988 193.425 97.3225Z" fill="#EAA242"/>
<mask id="mask2_2010_6099" style="mask-type:luminance" maskUnits="userSpaceOnUse" x="173" y="94" width="52" height="78">
<path d="M193.425 97.3225L206.398 94.1906L224.093 167.485L211.12 170.617C195.939 174.281 179.672 160.845 174.785 140.606C169.899 120.366 178.244 100.988 193.425 97.3225Z" fill="white"/>
</mask>
<g mask="url(#mask2_2010_6099)">
<path d="M169.547 110.996L201.4 103.306L200.507 99.6079L168.655 107.298L169.547 110.996ZM163.903 120.555L195.755 112.865L196.648 116.564L164.795 124.253L163.903 120.555ZM159.152 133.812L191.004 126.122L191.897 129.821L160.044 137.51L159.152 133.812ZM183.003 166.729L214.855 159.039L215.747 162.738L183.895 170.428L183.003 166.729ZM172.725 157.1L204.578 149.41L205.47 153.109L173.618 160.799L172.725 157.1ZM162.449 147.47L194.301 139.78L195.194 143.479L163.341 151.169L162.449 147.47Z" fill="#D8892B"/>
</g>
<path d="M187.485 137.532C182.599 117.291 190.944 97.9122 206.125 94.2469C221.306 90.5816 237.575 104.018 242.461 124.259C247.348 144.499 239.003 163.878 223.822 167.543C208.64 171.209 192.372 157.772 187.485 137.532Z" fill="#FFD652"/>
<path d="M206.141 94.2527C190.961 97.9173 182.616 117.296 187.502 137.536C192.388 157.776 208.656 171.212 223.836 167.547" stroke="black" stroke-width="1.27627" stroke-miterlimit="10"/>
<path d="M195.958 135.485C192.167 119.783 198.124 104.874 209.264 102.185C220.404 99.4952 232.508 110.043 236.299 125.745C240.09 141.446 234.132 156.355 222.992 159.045C211.852 161.735 199.749 151.186 195.958 135.485Z" fill="#EAA242"/>
<path d="M231.325 153.853C236.793 147.587 238.996 136.868 236.312 125.752C232.522 110.051 220.418 99.5024 209.279 102.192" stroke="black" stroke-width="1.27627" stroke-miterlimit="10"/>
<path d="M201.59 106.724C197.084 110.678 195.061 117.13 194.655 122.951" stroke="black" stroke-width="1.27627" stroke-miterlimit="10"/>
</g>
<path d="M146.095 114.597C153.619 110.169 162.051 107.67 170.802 107.275C177.412 106.977 185.655 109.744 188.375 116.463C189.2 118.502 189.37 120.902 189.303 123.078C189.273 124.077 188.623 130.251 186.849 128.076C186.335 127.446 185.236 123.755 185.236 123.755C186.056 126.077 186.189 128.648 185.599 130.817C185.293 131.944 184.491 133.095 183.502 132.624C183.251 134.582 181.822 136.01 180.176 135.947C180.005 135.941 179.828 135.921 179.675 135.987C179.404 136.106 179.275 136.46 179.157 136.78C178.118 139.605 175.974 144.783 174.356 143.879C172.091 142.615 173.523 136.705 174.289 134.974C172.952 133.78 171.39 133.025 169.848 132.827C165.411 132.257 161.896 136.146 157.566 136.553C155.273 136.769 149.785 134.657 149.785 134.657" fill="#A85C47"/>
<path d="M146.769 134.116C148.829 134.595 150.888 135.075 152.948 135.554" stroke="black" stroke-width="0.850844" stroke-miterlimit="10"/>
<path d="M179.585 113.754C180.688 114.815 181.7 116.036 182.587 117.374C183.86 119.299 184.887 121.515 185.277 123.834" stroke="black" stroke-width="0.850844" stroke-miterlimit="10"/>
<path d="M184.766 117.635C184.66 118.777 184.618 119.941 184.641 121.116" stroke="black" stroke-width="0.850844" stroke-miterlimit="10"/>
<path d="M177.101 119.997C178.299 121.362 179.474 122.759 180.625 124.185C181.128 124.809 181.636 125.451 181.984 126.209C182.226 126.736 182.384 127.303 182.531 127.867C182.912 129.331 183.23 130.81 183.483 132.293" stroke="black" stroke-width="0.850844" stroke-miterlimit="10"/>
<path d="M174.358 125.086C176.025 126.575 177.556 128.326 178.894 130.27C179.288 130.842 179.675 131.454 179.854 132.147C180.043 132.878 179.98 133.628 179.861 134.326C179.769 134.875 179.643 135.408 179.486 135.924" stroke="black" stroke-width="0.850844" stroke-miterlimit="10"/>
<path d="M174.395 135C174.839 135.41 175.229 135.917 175.537 136.484" stroke="black" stroke-width="0.850844" stroke-miterlimit="10"/>
<path d="M155.818 110.396C153.369 111.339 148.233 112.455 148.233 112.455" stroke="black" stroke-width="0.850844" stroke-miterlimit="10"/>
<path d="M177.79 162.393C177.79 162.393 170.114 168.83 162.992 182.922H196.517C210.317 155.913 238.41 137.42 270.823 137.42" stroke="black" stroke-width="1.27627" stroke-miterlimit="10"/>
<path d="M334.451 297.288C334.451 297.288 319.802 311.89 292.956 311.89C266.11 311.89 215.583 311.89 204.727 311.89C193.872 311.89 175.165 308.499 165.328 300.267" stroke="black" stroke-width="1.27627" stroke-miterlimit="10"/>
<path d="M289.489 291.086L282.871 325.812C282.09 329.906 278.511 332.868 274.344 332.868H255.417C251.353 332.868 247.833 330.047 246.946 326.08L238.767 289.487" fill="#FFC3C0"/>
<path d="M190.005 291.086L182.748 329.166C182.339 331.313 180.461 332.867 178.275 332.867H151.792C150.044 332.867 148.455 331.866 147.692 330.295C142.01 318.592 119.663 268.688 124.274 216.367" fill="#FFC3C0"/>
<path d="M286.062 312.367L288.723 295.101" stroke="black" stroke-width="1.27627" stroke-miterlimit="10"/>
<path d="M243.264 312.572L237.886 285.812" stroke="black" stroke-width="1.27627" stroke-miterlimit="10"/>
<path d="M185.771 312.676L191.287 279.256" stroke="black" stroke-width="1.27627" stroke-miterlimit="10"/>
<path d="M297.4 157.177C300.105 160.194 287.816 196.385 281.183 198.317C267.644 202.261 252.977 173.248 251.996 168.59C251.107 164.371 252.117 161.029 255.348 159.72C266.485 155.205 291.686 150.807 297.4 157.177Z" fill="#D6706E"/>
<path d="M283.435 196.237C276.798 203.096 262.825 175.404 260.788 171.394" stroke="black" stroke-width="1.27627" stroke-miterlimit="10"/>
<path d="M259.361 168.575C258.195 166.328 256.306 163.014 257.547 160.461C257.816 159.909 258.238 159.438 258.469 158.868" stroke="black" stroke-width="1.27627" stroke-miterlimit="10"/>
<path d="M227.414 91.3819C228.305 91.8107 228.792 93.087 228.999 94.2782C229.558 93.3422 231.081 93.5073 231.809 94.319C232.536 95.1307 232.684 96.2921 232.8 97.3761C233.727 96.7065 235.137 97.1421 235.812 98.0652C236.488 98.9884 236.564 100.226 236.392 101.357C236.946 101.121 237.616 101.408 237.987 101.882C238.358 102.356 238.49 102.972 238.567 103.569C239.068 107.452 237.578 111.539 234.693 114.185C234.419 114.437 234.09 114.691 233.72 114.658C233.019 114.595 232.832 113.666 232.836 112.962C232.52 113.666 232.069 114.31 231.514 114.846C231.36 114.995 231.186 115.143 230.975 115.175C230.453 115.255 230.107 114.624 230.084 114.098C230.061 113.571 229.815 113.081 229.901 112.549C229.195 113.338 228.412 114.172 227.373 114.373C225.713 114.692 225.507 111.049 225.35 110.044C225.388 110.818 224.37 111.294 223.651 111.006C222.933 110.717 222.514 109.97 222.246 109.244C221.121 106.193 221.695 102.81 222.281 99.6104C222.518 98.3188 222.772 96.8349 222.772 96.8349C222.772 96.8349 221.51 96.0062 220.325 95.5187C222.506 90.4757 226.023 90.6859 227.414 91.3819Z" fill="#A85C47"/>
<path d="M229.039 94.4688C228.87 95.6931 228.701 96.9175 228.532 98.1418C227.973 102.188 227.384 106.33 225.455 109.929" stroke="black" stroke-width="0.850844" stroke-miterlimit="10"/>
<path d="M232.788 97.377C232.721 99.9933 232.666 102.641 232.115 105.21C231.562 107.787 230.754 110.316 229.734 112.746" stroke="black" stroke-width="0.850844" stroke-miterlimit="10"/>
<path d="M236.467 101.378C235.916 105.468 234.674 109.429 232.836 112.963" stroke="black" stroke-width="0.850844" stroke-miterlimit="10"/>
<path d="M222.771 96.835V93.9634" stroke="black" stroke-width="0.850844" stroke-miterlimit="10"/>
<path d="M143.308 230.105L129.982 229.39L121.992 304.479L135.317 305.195C150.91 306.032 165.338 289.902 167.545 269.167C169.752 248.431 158.9 230.942 143.308 230.105Z" fill="#EAA242"/>
<mask id="mask3_2010_6099" style="mask-type:luminance" maskUnits="userSpaceOnUse" x="121" y="229" width="47" height="77">
<path d="M143.308 230.105L129.982 229.39L121.992 304.479L135.317 305.195C150.91 306.032 165.338 289.902 167.545 269.167C169.752 248.431 158.9 230.942 143.308 230.105Z" fill="white"/>
</mask>
<g mask="url(#mask3_2010_6099)">
<path d="M169.274 235.389L136.559 233.632L136.155 237.421L168.871 239.178L169.274 235.389ZM175.341 251.316L142.625 249.559L143.028 245.77L175.744 247.527L175.341 251.316ZM181.812 263.454L149.096 261.697L149.499 257.908L182.215 259.665L181.812 263.454ZM162.392 300.065L129.676 298.308L130.079 294.519L162.795 296.276L162.392 300.065ZM171.357 288.756L138.641 286.999L139.045 283.211L171.761 284.968L171.357 288.756ZM180.323 277.447L147.607 275.69L148.01 271.901L180.726 273.658L180.323 277.447Z" fill="#D8892B"/>
</g>
<path d="M119.778 304.241C104.44 301.579 94.9026 282.736 98.4746 262.155C102.047 241.573 117.376 227.046 132.713 229.708C148.05 232.37 157.588 251.212 154.016 271.794C150.444 292.376 135.115 306.903 119.778 304.241Z" fill="#FFD652"/>
<path d="M130.247 229.403C145.84 230.241 156.691 247.729 154.484 268.465C152.278 289.2 137.849 305.331 122.257 304.493" stroke="black" stroke-width="1.27627" stroke-miterlimit="10"/>
<path d="M120.455 295.838C109.171 294.039 102.092 279.612 104.643 263.616C107.194 247.62 118.41 236.111 129.694 237.911C140.978 239.711 148.057 254.137 145.506 270.133C142.954 286.13 131.739 297.638 120.455 295.838Z" fill="#EAA242"/>
<path d="M113.004 292.424C106.737 287.271 103.138 277.159 104.35 265.772C106.062 249.686 116.725 237.144 128.166 237.759" stroke="black" stroke-width="1.27627" stroke-miterlimit="10"/>
<path d="M136.414 240.807C141.419 243.866 144.28 249.826 145.448 255.46" stroke="black" stroke-width="1.27627" stroke-miterlimit="10"/>
<path d="M90.1314 318.472H165.321V332.794H90.1314V318.472Z" fill="#EAA242"/>
<path d="M152.538 318.472H156.92V332.794H152.538V318.472Z" fill="#D8892B"/>
<path d="M138.493 318.472H142.875V332.794H138.493V318.472Z" fill="#D8892B"/>
<path d="M124.448 318.472H128.83V332.794H124.448V318.472Z" fill="#D8892B"/>
<path d="M110.404 318.472H114.785V332.794H110.404V318.472Z" fill="#D8892B"/>
<path d="M96.3587 318.472H100.741V332.794H96.3587V318.472Z" fill="#D8892B"/>
<path d="M96.2738 304.151H171.464V318.472H96.2738V304.151Z" fill="#EAA242"/>
<path d="M158.681 304.151H163.063V318.472H158.681V304.151Z" fill="#D8892B"/>
<path d="M144.636 304.151H149.018V318.472H144.636V304.151Z" fill="#D8892B"/>
<path d="M130.591 304.151H134.973V318.472H130.591V304.151Z" fill="#D8892B"/>
<path d="M116.546 304.151H120.928V318.472H116.546V304.151Z" fill="#D8892B"/>
<path d="M102.501 304.151H106.883V318.472H102.501V304.151Z" fill="#D8892B"/>
<path d="M165.321 318.472H96.2737" stroke="black" stroke-width="1.27627" stroke-miterlimit="10"/>
<path d="M158.177 304.345H117.7" stroke="black" stroke-width="1.27627" stroke-miterlimit="10"/>
<path d="M337.486 43.9746C346.322 48.7606 354.23 55.0985 361.11 62.4056C366.74 68.3845 372.529 75.5103 376.023 83.0037C387.19 106.946 361.059 125.774 344.974 139.231C343.664 140.327 342.349 141.415 341.019 142.485L321.336 123.797L344.652 94.2391L328.509 68.6474" fill="#FFB5A1"/>
<path d="M322.516 69.323L338.844 91.701L367.338 67.811C367.338 67.811 349.658 48.8483 341.888 44.3711C333.454 39.5111 327.22 39.3597 319.939 42.1666C312.266 45.125 304.157 49.4481 304.157 49.4481" fill="#8668BC"/>
<path d="M348.565 135.191C344.909 140.113 340.431 144.424 335.374 147.891C334.21 148.688 332.998 149.45 331.651 149.868C330.355 150.271 328.98 150.34 327.623 150.339C324.21 150.335 320.799 149.92 317.387 150.156C315.859 150.261 313.886 150.384 312.505 151.111C311.939 151.41 311.461 151.937 310.905 152.287C310.172 152.749 309.407 153.163 308.62 153.526C307.859 153.877 307.055 154.184 306.216 154.206C305.063 154.235 303.909 153.685 303.207 152.769C301.944 153.588 299.939 153.365 298.574 152.733C297.966 153.312 296.741 153.353 296.044 152.885C295.347 152.417 295.442 151.878 295.143 151.093C295.058 150.87 294.981 150.642 294.97 150.403C294.955 150.091 295.055 149.786 295.101 149.476C295.192 148.87 294.962 148.496 294.838 147.954C294.719 147.426 294.969 146.867 295.177 146.38C297.273 141.474 298.837 135.273 303.465 131.964C306.213 129.999 309.365 128.651 312.478 127.383C317.211 125.454 322.515 124.099 325.836 120.215" fill="#FFB5A1"/>
<path d="M317.724 143.621C315 144.256 312.298 145.062 309.801 146.32C307.303 147.578 304.86 150.511 303.209 152.769" stroke="black" stroke-width="0.850844" stroke-miterlimit="10"/>
<path d="M310.595 139.135C307.968 140.572 305.591 142.464 303.601 144.702C301.441 147.132 298.575 152.732 298.575 152.732" stroke="black" stroke-width="0.850844" stroke-miterlimit="10"/>
<path d="M306.176 135.356C303.567 136.765 301.393 139.012 299.609 141.524C297.825 144.035 296.117 146.616 295.002 150.214" stroke="black" stroke-width="0.850844" stroke-miterlimit="10"/>
<path d="M338.844 91.7002L324.379 71.8763" stroke="black" stroke-width="0.850844" stroke-miterlimit="10"/>
<path d="M332.916 83.5755L360.552 60.7831" stroke="black" stroke-width="0.850844" stroke-miterlimit="10"/>
<path d="M353.664 90.4409C350.197 91.3879 346.864 92.945 343.834 95.0346" stroke="black" stroke-width="0.850844" stroke-miterlimit="10"/>
<path d="M331.518 150.214C329.134 150.567 326.723 150.692 324.315 150.675C321.998 150.658 319.673 150.353 317.359 150.432C315.153 150.508 312.962 151.097 310.952 152.155C309.664 152.833 308.43 153.71 307.047 154.052C305.663 154.394 304.029 154.063 303.202 152.731C302.293 153.59 300.641 153.448 299.574 152.884C299.364 152.774 299.154 152.633 298.924 152.631C298.672 152.628 298.444 152.79 298.213 152.908C297.356 153.348 296.09 153.277 295.371 152.581C294.652 151.885 294.832 150.938 295.052 149.882" stroke="black" stroke-width="0.850844" stroke-miterlimit="10"/>
<path d="M295.002 150.175C294.3 147.505 295.167 144.669 296.379 142.188C296.998 140.921 298.3 138.148 298.3 138.148" stroke="black" stroke-width="0.850844" stroke-miterlimit="10"/>
<path d="M295.339 55.5087C290.531 55.2508 285.72 54.7293 280.913 55.0024C273.846 55.404 265.741 57.68 262.92 64.6986C259.894 72.2294 259.411 80.4852 258.985 94.0238L287.621 91.7537L288.103 73.4547" fill="#8668BC"/>
<path d="M287.838 83.572L259.289 86.0863" stroke="black" stroke-width="0.850844" stroke-miterlimit="10"/>
<path d="M302.081 27.8622L313.042 46.2481C313.042 46.2481 312.797 57.1738 303.55 61.3284C296.28 64.5948 290.018 60.1908 290.018 60.1908L285.478 51.0426" fill="#FFB5A1"/>
<path d="M265.444 27.2053C265.444 27.2053 258.762 43.5687 258.762 53.0514L286.316 50.7354L287.131 27.795" fill="#FFEAC5"/>
<path d="M268.543 35.826C267.663 32.4575 267.677 28.8976 269.096 25.661C270.922 21.4935 275.039 18.3607 279.16 16.6803C285.926 13.9202 292.549 18.8806 296.294 24.206C299.17 28.2977 300.96 32.0202 300.815 37.1193C300.581 45.4108 295.172 56.1918 286.045 56.6921C280.959 56.9712 276.665 53.8852 274.527 49.608C272.388 45.3299 269.81 40.6699 268.543 35.826Z" fill="#FFB5A1"/>
<path d="M275.693 38.856C275.868 40.0054 275.911 41.1745 275.819 42.3334C275.749 43.2191 275.601 44.1099 275.71 44.9914C275.819 45.8737 276.777 46.3766 278 46.22" stroke="black" stroke-width="0.850844" stroke-miterlimit="10"/>
<path d="M282.804 37.6954C283.144 38.6092 283.986 39.1401 284.685 38.8798C285.385 38.6203 285.676 37.6682 285.336 36.7544C284.997 35.8406 284.154 35.3096 283.455 35.57C282.756 35.8295 282.465 36.7816 282.804 37.6954Z" fill="black"/>
<path d="M270.809 40.0216C271.149 40.9354 271.991 41.4663 272.69 41.2059C273.39 40.9464 273.681 39.9943 273.341 39.0805C273.002 38.1667 272.159 37.6358 271.46 37.8962C270.761 38.1557 270.47 39.1078 270.809 40.0216Z" fill="black"/>
<path d="M279.988 31.9581C280.285 31.2808 280.991 30.8648 281.706 30.6784C283.277 30.2683 284.977 30.7771 286.316 31.6952" stroke="black" stroke-width="0.850844" stroke-miterlimit="10"/>
<path d="M272.245 33.476C270.895 32.8081 269.471 33.5977 268.975 35.4406" stroke="black" stroke-width="0.850844" stroke-miterlimit="10"/>
<path d="M300.146 43.0557C299.342 50.2717 294.302 54.7505 288.12 56.9389" stroke="black" stroke-width="0.850844" stroke-miterlimit="10"/>
<path d="M281.137 45.6023C281.695 46.8803 282.261 49.3979 280.235 49.6064C279.415 49.6906 278.563 49.3724 277.999 48.77" stroke="black" stroke-width="0.850844" stroke-miterlimit="10"/>
<path d="M263.301 28.7257C262.704 22.9042 265.697 19.8233 268.975 16.7314C272.049 8.96743 275.672 5.57767 283.152 4.31757C289.4 3.26508 300.857 6.54848 307.305 13.7713C319.868 27.8417 320.914 38.855 320.914 38.855L295.535 49.619C295.535 49.619 294.843 30.5253 295.67 29.8693C295.67 29.8693 282.472 27.2538 273.05 21.5344C268.634 24.6851 267.064 32.0576 269.282 38.239C269.282 38.239 264.184 37.3286 263.301 28.7257Z" fill="#FFEAC5"/>
<path d="M292.452 32.5963C292.154 30.0463 295.416 27.4785 297.855 27.9107C303.719 28.9504 303.175 38.9734 298.105 40.7491C296.67 41.2519 294.482 41.0324 293.738 39.5026" fill="#FFB5A1"/>
<path d="M298.86 32.1776L294.634 37.1823" stroke="black" stroke-width="0.850844" stroke-miterlimit="10"/>
<path d="M293.817 29.438C293.013 30.2003 292.452 31.2171 292.239 32.3053" stroke="black" stroke-width="0.850844" stroke-miterlimit="10"/>
<path d="M299.727 39.7111C298.932 40.5228 297.978 41.2375 296.865 41.4655C295.752 41.6935 294.464 41.3319 293.85 40.3764" stroke="black" stroke-width="0.850844" stroke-miterlimit="10"/>
<path d="M310.425 11.9412C294.759 20.6334 278.638 29.4847 260.779 32.1904C260.779 32.1904 262.04 27.7669 262.04 25.1191C262.04 22.4712 263.535 13.2872 264.94 11.2494C268.547 6.01931 281.709 -0.476878 287.887 0.0276723C294.065 0.532223 300.925 6.4575 303.549 8.223C306.548 10.2412 310.425 11.9412 310.425 11.9412Z" fill="#D3B17A"/>
<path d="M304.207 8.78198C297.43 13.1536 289.887 16.1716 282.397 19.1623C280.703 19.8387 279.009 20.5151 277.314 21.1915" stroke="black" stroke-width="0.850844" stroke-miterlimit="10"/>
<path d="M273.105 22.9221C269.452 24.1592 265.375 25.3564 261.926 25.8592" stroke="black" stroke-width="0.850844" stroke-miterlimit="10"/>
<path d="M260.164 93.9633L266.574 93.2299C269.845 84.3343 273.339 75.5205 277.053 66.8002L293.602 76.7363C292.079 84.0161 291.816 92.8181 290.293 100.098C288.869 106.906 284.537 122.804 274.536 123.134C268.353 123.338 264.572 119.417 262.102 114.14C259.061 107.65 260.254 100.844 260.164 93.9633Z" fill="#FFB5A1"/>
<path d="M273.057 76.7372C274.524 72.6055 275.709 68.3683 277.456 64.3404C278.689 61.4969 280.312 58.8167 282.316 56.4496C284.292 54.1158 286.754 51.7275 289.588 50.5014C291.444 49.6982 293.396 50.4112 295.138 51.1532C296.163 51.5896 297.189 52.027 298.215 52.4634C298.413 52.5477 298.626 52.6455 298.729 52.8344C298.944 53.2326 298.539 53.6802 298.155 53.9209C297.563 54.2928 297.124 54.1898 296.45 54.3736C297.078 54.5063 297.678 54.9939 298.01 55.3674C298.503 55.9221 298.522 56.2063 298.388 56.9568C299.106 56.8878 299.785 57.2324 300.176 57.8408C300.56 58.4364 300.647 59.1817 300.579 59.8871C300.561 60.0725 300.536 60.2699 300.618 60.4367C300.719 60.6401 300.948 60.737 301.147 60.8485C305.118 63.0735 301.577 68.5546 299.305 70.6485C299.146 70.7957 298.975 70.9446 298.765 70.9982C298.388 71.0935 297.993 70.84 297.798 70.5039C297.603 70.1678 297.562 69.7662 297.526 69.3791C294.982 74.7096 296.651 79.5798 292.3 83.5737" fill="#FFB5A1"/>
<path d="M282.316 56.4497C284.292 54.1158 286.754 51.7275 289.588 50.5014C291.444 49.6982 292.199 50.1577 292.199 50.1577" stroke="black" stroke-width="0.850844" stroke-miterlimit="10"/>
<path d="M296.802 54.3881C294.89 53.9763 294.124 53.6938 292.172 53.9704C290.216 54.2477 287.992 55.6635 286.736 57.1227" stroke="black" stroke-width="0.850844" stroke-miterlimit="10"/>
<path d="M298.389 56.9577C298.389 56.9577 296.163 56.9423 293.568 58.1446C292.041 58.8516 290.234 60.4223 290.234 60.4223" stroke="black" stroke-width="0.850844" stroke-miterlimit="10"/>
<path d="M300.619 60.4376C299.223 60.6086 297.85 61.0077 296.615 61.6901C295.455 62.3316 294.542 63.2897 293.601 64.2077" stroke="black" stroke-width="0.850844" stroke-miterlimit="10"/>
<path d="M297.528 69.38L300.463 64.3634" stroke="black" stroke-width="0.850844" stroke-miterlimit="10"/>
<path d="M266.573 93.2308L263.023 104.961" stroke="black" stroke-width="0.850844" stroke-miterlimit="10"/>
<path d="M292.087 83.572C291.337 85.2482 290.588 86.9235 289.838 88.5997" stroke="black" stroke-width="0.850844" stroke-miterlimit="10"/>
<path d="M495.449 177.493C495.449 177.493 498.617 194.927 496.246 205.244C493.533 217.046 478.483 250.394 478.483 250.394L499.153 295.669L471.706 307.352C471.706 307.352 447.668 266.544 445.551 259.391C443.434 252.238 443.447 238.968 450.589 221.781C457.152 205.989 468.232 184.226 468.232 184.226" fill="#FFCBA4"/>
<path d="M468.121 303.734L498.49 291.966L508.308 312.07L456.637 332.95C453.828 318.462 471.867 315.107 468.121 303.734Z" fill="#19181E"/>
<path d="M506.699 308.706L456.337 328.994" stroke="#68534E" stroke-width="0.850844" stroke-miterlimit="10"/>
<path d="M462.216 317.627C462.216 317.627 467.267 318.108 470.212 323.405" stroke="#68534E" stroke-width="0.850844" stroke-miterlimit="10"/>
<path d="M468.887 309.682L473.906 312.579" stroke="#68534E" stroke-width="0.850844" stroke-miterlimit="10"/>
<path d="M466.573 312.735L471.593 315.632" stroke="#68534E" stroke-width="0.850844" stroke-miterlimit="10"/>
<path d="M460.766 308.54C460.514 308.758 460.272 309.016 460.177 309.367C460.013 309.979 460.359 310.712 460.848 311.128C461.336 311.544 461.933 311.711 462.511 311.841C464 312.176 468.949 309.664 468.949 309.664C468.949 309.664 462.581 306.968 460.766 308.54Z" stroke="#68534E" stroke-width="0.850844" stroke-miterlimit="10" stroke-linejoin="round"/>
<path d="M463.807 301.648C463.48 301.533 463.131 301.445 462.82 301.543C462.279 301.712 462.009 302.411 462.058 303.074C462.109 303.737 462.409 304.37 462.72 304.965C463.524 306.5 468.722 309.708 468.722 309.708C468.722 309.708 466.167 302.485 463.807 301.648Z" stroke="#68534E" stroke-width="0.850844" stroke-miterlimit="10" stroke-linejoin="round"/>
<path d="M490.011 315.429L494.562 303.366" stroke="#68534E" stroke-width="0.850844" stroke-miterlimit="10"/>
<path d="M496.037 313.001L499.153 304.744" stroke="#68534E" stroke-width="0.850844" stroke-miterlimit="10"/>
<path d="M424.203 172.557C424.203 172.557 409.946 197.68 407.077 203.17C404.208 208.659 395.112 223.649 389.843 238.004C384.574 252.361 372.277 297.278 372.277 297.278L403.602 304.297L423.151 241.444C423.151 241.444 449.421 208.449 457.209 193.898C462.533 183.949 462.126 164.897 461.563 160.178" fill="#FFCBA4"/>
<path d="M373.238 293.743L404.665 302.295L400.635 324.303L346.656 310.443C352.994 297.115 369.504 305.12 373.238 293.743Z" fill="#19181E"/>
<path d="M401.336 320.641L348.762 307.081" stroke="#68534E" stroke-width="0.850844" stroke-miterlimit="10"/>
<path d="M360.239 301.42C360.239 301.42 364.021 304.805 363.246 310.816" stroke="#68534E" stroke-width="0.850844" stroke-miterlimit="10"/>
<path d="M370.324 298.986L372.645 304.296" stroke="#68534E" stroke-width="0.850844" stroke-miterlimit="10"/>
<path d="M366.65 300.069L368.971 305.38" stroke="#68534E" stroke-width="0.850844" stroke-miterlimit="10"/>
<path d="M364.466 293.247C364.134 293.273 363.786 293.336 363.501 293.564C363.006 293.958 362.849 294.755 362.995 295.379C363.142 296.004 363.524 296.492 363.911 296.94C364.911 298.094 370.384 299.01 370.384 299.01C370.384 299.01 366.859 293.058 364.466 293.247Z" stroke="#68534E" stroke-width="0.850844" stroke-miterlimit="10" stroke-linejoin="round"/>
<path d="M371.004 289.504C370.81 289.217 370.581 288.94 370.272 288.834C369.736 288.649 369.104 289.052 368.75 289.615C368.397 290.178 368.264 290.866 368.161 291.529C367.896 293.241 370.176 298.909 370.176 298.909C370.176 298.909 372.407 291.579 371.004 289.504Z" stroke="#68534E" stroke-width="0.850844" stroke-miterlimit="10" stroke-linejoin="round"/>
<path d="M383.915 316.148L394.737 309.14" stroke="#68534E" stroke-width="0.850844" stroke-miterlimit="10"/>
<path d="M390.206 317.77L397.615 312.973" stroke="#68534E" stroke-width="0.850844" stroke-miterlimit="10"/>
<path d="M478.483 250.393L475.866 255.977" stroke="black" stroke-width="0.850844" stroke-miterlimit="10"/>
<path d="M436.169 149.001L460.077 139.921L495.519 142.712L500.603 149.001C500.603 149.001 508.897 161.172 504.632 182.499C500.367 203.827 493.526 223.97 493.526 223.97L402.053 203.829L436.169 149.001Z" fill="#4C4139"/>
<path d="M491.512 146.874C491.512 146.874 499.806 159.044 495.541 180.372C491.275 201.7 484.435 221.843 484.435 221.843" stroke="#70635B" stroke-width="0.850844" stroke-miterlimit="10"/>
<path d="M494.161 186.854L485.914 185.273C478.843 183.918 473.796 177.637 473.996 170.44L474.538 150.86" stroke="#70635B" stroke-width="0.850844" stroke-miterlimit="10"/>
<path d="M448.184 147.617L440.709 163.511C437.549 171.042 429.578 175.365 421.543 173.904L420.888 173.785" stroke="#70635B" stroke-width="0.850844" stroke-miterlimit="10"/>
<path d="M459.274 201.05C451.077 196.575 443.77 190.479 437.9 183.216" stroke="black" stroke-width="0.850844" stroke-miterlimit="10"/>
<path d="M463.324 188.951C458.025 186.742 452.725 184.532 447.426 182.324" stroke="black" stroke-width="0.850844" stroke-miterlimit="10"/>
<path d="M443.495 110.804C443.495 110.804 426.123 133.333 411.171 129.969C397.493 126.891 374.994 89.4514 374.994 89.4514L396.858 74.6909L417.045 97.5565L429.746 86.9567" fill="#F4B184"/>
<path d="M453.293 71.7358C448.418 72.1817 444.938 72.6079 440.932 75.4557C433.096 81.0262 418.363 93.2103 418.363 93.2103L438.111 119.004L463.652 96.72" fill="#DD5C3E"/>
<path d="M422.282 90.0009C422.646 89.7057 440.295 114.549 440.295 114.549" stroke="#F98355" stroke-width="0.850844" stroke-miterlimit="10"/>
<path d="M425.474 87.3983C425.837 87.1022 443.487 111.947 443.487 111.947" stroke="#F98355" stroke-width="0.850844" stroke-miterlimit="10"/>
<path d="M427.163 85.363C427.526 85.0669 445.176 109.912 445.176 109.912" stroke="#F98355" stroke-width="0.850844" stroke-miterlimit="10"/>
<path d="M456.812 68.986L438.697 85.0941C438.697 85.0941 433.49 96.5575 433.48 106.802C433.47 117.047 434.48 121.726 434.48 125.085C434.48 128.445 429.97 149.001 429.97 149.001H500.604C500.604 149.001 504.092 117.293 500.336 100.548C495.593 79.3986 476.377 69.6343 476.377 69.6343" fill="#DD5C3E"/>
<path d="M459.26 78.2065L454.402 99.6716" stroke="black" stroke-width="0.850844" stroke-miterlimit="10"/>
<path d="M437.04 89.5347C432.522 101.153 433.298 111.947 434.168 120.592" stroke="black" stroke-width="0.850844" stroke-miterlimit="10"/>
<path d="M456.37 97.9402C456.37 98.6974 456.985 99.3117 457.742 99.3117C458.499 99.3117 459.114 98.6974 459.114 97.9402C459.114 97.1829 458.499 96.5686 457.742 96.5686C456.985 96.5686 456.37 97.1829 456.37 97.9402Z" fill="black"/>
<path d="M459.69 90.3106C458.932 90.3106 458.318 89.6966 458.318 88.9391C458.318 88.1816 458.932 87.5675 459.69 87.5675C460.447 87.5675 461.061 88.1816 461.061 88.9391C461.061 89.6966 460.447 90.3106 459.69 90.3106Z" fill="black"/>
<path d="M472.356 55.1206C472.509 55.2185 480.081 71.5427 480.081 71.5427C480.081 71.5427 473.029 81.2917 459.468 78.181C455.316 77.2289 454.402 73.9668 454.402 73.9668L453.748 63.9498" fill="#FFCBA4"/>
<path d="M450.677 51.3497C448.473 53.6002 444.862 53.6385 442.611 51.434C440.361 49.2294 440.323 45.6184 442.527 43.3671C444.732 41.1166 448.343 41.0783 450.594 43.2829C452.845 45.4883 452.882 49.0992 450.677 51.3497Z" fill="#27243A"/>
<path d="M440.894 47.949C439.182 49.6974 436.376 49.7264 434.628 48.0145C432.88 46.3026 432.851 43.4973 434.563 41.7489C436.274 40.0004 439.08 39.9714 440.828 41.6833C442.577 43.3961 442.606 46.2013 440.894 47.949Z" fill="#27243A"/>
<path d="M432.551 42.3546C431.155 43.7806 428.867 43.8044 427.441 42.4082C426.015 41.0119 425.991 38.724 427.387 37.298C428.784 35.872 431.071 35.8482 432.497 37.2444C433.923 38.6406 433.947 40.9285 432.551 42.3546Z" fill="#27243A"/>
<path d="M426.224 35.3861C425.042 36.5935 423.105 36.6131 421.898 35.4312C420.691 34.2494 420.672 32.312 421.853 31.1055C423.035 29.8982 424.973 29.8786 426.179 31.0604C427.386 32.2423 427.406 34.1788 426.224 35.3861Z" fill="#27243A"/>
<path d="M428.311 17.4717C426.721 15.827 422.686 13.4455 417.607 15.2739C415.886 15.8933 412.318 18.3216 412.709 20.6921C413.191 23.6241 415.437 26.0856 417.389 28.194C418.054 28.9121 418.909 29.5349 419.885 29.5962C420.42 29.6294 420.948 29.4924 421.466 29.3562C422.092 29.192 422.717 29.0278 423.342 28.8627C424.346 28.5981 424.614 24.0138 424.941 22.9562C425.579 20.8937 426.57 18.8262 428.311 17.4717Z" fill="#27243A"/>
<path d="M457.945 35.0322C460.558 32.9519 463.689 31.5838 467.079 31.5736C471.445 31.5591 475.791 33.9568 478.865 36.9203C483.912 41.7871 482.13 49.523 478.909 54.8756C476.435 58.9877 473.862 62.0023 469.331 63.8546C461.964 66.8666 450.404 66.3033 446.424 58.4874C444.206 54.132 445.247 49.1665 448.171 45.6312C451.096 42.0942 454.185 38.0238 457.945 35.0322Z" fill="#FFCBA4"/>
<path d="M458.192 43.048C457.337 43.7644 456.399 44.3812 455.404 44.8841C454.642 45.2687 453.839 45.5912 453.169 46.1195C452.501 46.6479 452.565 47.6851 453.304 48.6091" stroke="black" stroke-width="0.850844" stroke-miterlimit="10"/>
<path d="M462.321 47.697C461.741 48.4313 461.726 49.386 462.287 49.8301C462.849 50.2742 463.774 50.0386 464.355 49.3043C464.935 48.57 464.95 47.6153 464.389 47.1712C463.827 46.7279 462.901 46.9636 462.321 47.697Z" fill="black"/>
<path d="M453.385 40.3508C452.804 41.0851 452.789 42.0397 453.351 42.4839C453.912 42.928 454.838 42.6923 455.418 41.958C455.998 41.2238 456.014 40.2691 455.452 39.825C454.891 39.3808 453.965 39.6165 453.385 40.3508Z" fill="black"/>
<path d="M451.87 51.0247C452.79 50.9396 453.528 51.8279 453.224 52.7009C453.071 53.1408 452.789 53.5092 452.284 53.5934C451.624 53.7032 451.19 53.4241 450.904 53.0199C450.343 52.2244 450.9 51.114 451.87 51.0247Z" fill="white"/>
<path d="M465.622 42.5282C466.324 42.4337 467.018 42.8055 467.528 43.299C468.646 44.3821 469.077 46.0302 468.992 47.5856" stroke="black" stroke-width="0.850844" stroke-miterlimit="10"/>
<path d="M459.468 38.2663C459.343 36.8258 457.985 36.0524 456.227 36.5638" stroke="black" stroke-width="0.850844" stroke-miterlimit="10"/>
<path d="M460.912 23.4616C465.888 20.858 470.701 21.6476 474.395 24.6315C482.4 24.315 491.726 30.7363 494.131 36.5858C495.795 40.6341 495.986 45.2721 494.966 49.5119C493.625 55.0925 490.849 60.6434 485.375 62.745C481.719 64.1481 478.572 64.5446 474.812 63.6086C474.812 63.6086 477.03 55.6669 477.926 56.1382C477.926 56.1382 470.87 43.9286 472.233 33.4411C467.755 30.7882 460.676 32.2703 456.112 36.6156C456.112 36.6156 451.634 28.3165 460.912 23.4616Z" fill="#27243A"/>
<path d="M473.785 55.4092C475.498 53.6386 479.387 54.5005 480.548 56.574C483.34 61.5599 475.567 67.2469 471.167 64.5617C469.923 63.8019 468.755 62.044 469.44 60.5619" fill="#FFCBA4"/>
<path d="M477.99 59.9127L471.706 59.8165" stroke="black" stroke-width="0.850844" stroke-miterlimit="10"/>
<path d="M476.96 54.5039C475.905 54.3694 474.809 54.5711 473.871 55.0739" stroke="black" stroke-width="0.850844" stroke-miterlimit="10"/>
<path d="M472.923 65.136C471.837 65.0381 470.726 64.7642 469.88 64.0767C469.034 63.3892 468.52 62.2125 468.856 61.1761" stroke="black" stroke-width="0.850844" stroke-miterlimit="10"/>
<path d="M463.863 65.5707C460.183 66.3645 456.201 65.8753 452.774 64.2094" stroke="black" stroke-width="0.850844" stroke-miterlimit="10"/>
<path d="M474.401 48.2484L481.138 45.8286" stroke="#FFE3A6" stroke-width="0.850844" stroke-miterlimit="10"/>
<path d="M473.028 43.6743L479.725 41.1541" stroke="#FFE3A6" stroke-width="0.850844" stroke-miterlimit="10"/>
<path d="M460.077 33.8386L459.468 28.3591" stroke="#FFE3A6" stroke-width="0.850844" stroke-miterlimit="10"/>
<path d="M488.804 71.5828C485.654 71.5828 483.1 69.029 483.1 65.8787C483.1 62.7285 485.654 60.1747 488.804 60.1747C491.954 60.1747 494.508 62.7285 494.508 65.8787C494.508 69.029 491.954 71.5828 488.804 71.5828Z" fill="#27243A"/>
<path d="M496.9 74.7249C494.453 74.7249 492.47 72.7414 492.47 70.2946C492.47 67.8478 494.453 65.8643 496.9 65.8643C499.347 65.8643 501.331 67.8478 501.331 70.2946C501.331 72.7414 499.347 74.7249 496.9 74.7249Z" fill="#27243A"/>
<path d="M502.069 72.4106C502.069 74.4067 503.687 76.0242 505.683 76.0242C507.679 76.0242 509.296 74.4059 509.296 72.4106C509.296 70.4154 507.679 68.7971 505.683 68.7971C503.687 68.7971 502.069 70.4146 502.069 72.4106Z" fill="#27243A"/>
<path d="M511.465 71.8585C511.465 73.5482 512.835 74.9173 514.524 74.9173C516.214 74.9173 517.583 73.5474 517.583 71.8585C517.583 70.1687 516.213 68.7997 514.524 68.7997C512.834 68.7988 511.465 70.1687 511.465 71.8585Z" fill="#27243A"/>
<path d="M522.507 57.5991C524.794 57.5362 529.344 58.6584 531.693 63.5185C532.489 65.1657 533.339 69.3961 531.402 70.8162C529.005 72.5732 525.678 72.7603 522.809 72.9007C521.832 72.9492 520.784 72.7952 520.044 72.1562C519.639 71.8065 519.358 71.3386 519.083 70.8791C518.751 70.3244 518.419 69.7696 518.087 69.214C517.555 68.3232 520.572 64.8594 521.077 63.8758C522.066 61.9563 522.804 59.785 522.507 57.5991Z" fill="#27243A"/>
<path d="M459.468 78.1819C469.329 80.195 478.892 68.986 478.892 68.986L483.58 72.6165C483.58 72.6165 481.699 86.002 470.217 87.6433C457.503 89.4615 459.468 78.1819 459.468 78.1819Z" fill="#F98355"/>
<path d="M459.26 78.2067C454.402 75.529 454.197 70.8324 454.197 70.8324C454.197 70.8324 440.577 74.1949 447.357 80.7481C454.583 87.7327 459.26 78.2067 459.26 78.2067Z" fill="#F98355"/>
<path d="M374.906 93.0228L448.826 106.783L446.205 120.862L372.285 107.102L374.906 93.0228Z" fill="#EAA242"/>
<path d="M436.258 104.441L440.566 105.243L437.945 119.322L433.637 118.52L436.258 104.441Z" fill="#D8892B"/>
<path d="M422.451 101.872L426.759 102.674L424.138 116.753L419.83 115.951L422.451 101.872Z" fill="#D8892B"/>
<path d="M408.646 99.3052L412.954 100.107L410.333 114.186L406.025 113.385L408.646 99.3052Z" fill="#D8892B"/>
<path d="M394.838 96.7354L399.146 97.5372L396.525 111.617L392.217 110.815L394.838 96.7354Z" fill="#D8892B"/>
<path d="M381.028 94.16L385.336 94.9619L382.715 109.041L378.408 108.239L381.028 94.16Z" fill="#D8892B"/>
<path d="M371.21 48.7544L445.13 62.5143L442.51 76.5937L368.59 62.8337L371.21 48.7544Z" fill="#FFD652"/>
<path d="M432.564 60.174L436.872 60.9758L434.251 75.0552L429.943 74.2533L432.564 60.174Z" fill="#F4B251"/>
<path d="M418.755 57.6038L423.063 58.4056L420.442 72.485L416.135 71.6831L418.755 57.6038Z" fill="#F4B251"/>
<path d="M404.948 55.0336L409.256 55.8354L406.635 69.9148L402.327 69.1129L404.948 55.0336Z" fill="#F4B251"/>
<path d="M391.142 52.4672L395.45 53.269L392.829 67.3484L388.522 66.5465L391.142 52.4672Z" fill="#F4B251"/>
<path d="M377.335 49.8973L381.643 50.6992L379.022 64.7786L374.714 63.9767L377.335 49.8973Z" fill="#F4B251"/>
<path d="M377.949 64.5764L451.869 78.3363L449.249 92.4157L375.329 78.6558L377.949 64.5764Z" fill="#FFD652"/>
<path d="M439.304 75.9993L443.612 76.8011L440.991 90.8805L436.683 90.0786L439.304 75.9993Z" fill="#F4B251"/>
<path d="M425.494 73.4258L429.802 74.2277L427.181 88.307L422.873 87.5052L425.494 73.4258Z" fill="#F4B251"/>
<path d="M411.687 70.8549L415.995 71.6567L413.374 85.7361L409.066 84.9342L411.687 70.8549Z" fill="#F4B251"/>
<path d="M397.879 68.2847L402.186 69.0865L399.566 83.1659L395.258 82.364L397.879 68.2847Z" fill="#F4B251"/>
<path d="M384.073 65.7191L388.381 66.521L385.76 80.6004L381.452 79.7985L384.073 65.7191Z" fill="#F4B251"/>
<path d="M369.253 77.4022L443.173 91.1621L440.553 105.241L366.633 91.4816L369.253 77.4022Z" fill="#EAA242"/>
<path d="M430.606 88.8215L434.913 89.6234L432.293 103.703L427.985 102.901L430.606 88.8215Z" fill="#D8892B"/>
<path d="M416.798 86.2515L421.106 87.0533L418.485 101.133L414.177 100.331L416.798 86.2515Z" fill="#D8892B"/>
<path d="M402.993 83.6857L407.301 84.4875L404.68 98.5669L400.372 97.765L402.993 83.6857Z" fill="#D8892B"/>
<path d="M389.183 81.1106L393.491 81.9125L390.87 95.9918L386.562 95.19L389.183 81.1106Z" fill="#D8892B"/>
<path d="M375.375 78.5404L379.683 79.3423L377.062 93.4216L372.754 92.6198L375.375 78.5404Z" fill="#D8892B"/>
<path d="M440.561 105.241L374.9 93.0164" stroke="black" stroke-width="1.27627" stroke-miterlimit="10"/>
<path d="M443.278 90.566L375.481 77.9437" stroke="black" stroke-width="1.27627" stroke-miterlimit="10"/>
<path d="M443.137 76.7082L377.944 64.5709" stroke="black" stroke-width="1.27627" stroke-miterlimit="10"/>
<path d="M484.121 80.4188C490.582 80.281 490.155 74.3429 495.448 78.0526C500.825 81.821 503.3 88.4269 505.376 94.656C510.33 109.519 514.35 125.931 513.516 141.697C513.283 146.079 512.571 150.615 510.083 154.23C505.565 160.795 496.836 159.804 490.031 158.182C481.014 156.031 472.484 152.125 464.062 148.374C456.048 144.805 440.296 137.092 440.296 137.092L451.526 114.694C457.717 118.954 483.257 126.881 483.101 126.358L480.346 96.7967" fill="#FFCBA4"/>
<path d="M483.1 126.357L496.76 130.735" stroke="black" stroke-width="0.850844" stroke-miterlimit="10"/>
<path d="M483.58 72.9211C483.58 72.9211 488.982 74.5556 495.592 77.5804C502.202 80.6051 506.838 89.4794 508.365 96.5788C509.893 103.678 513.048 123.402 513.048 123.402L477.99 124.2V97.6356" fill="#DD5C3E"/>
<path d="M457.742 118.604C455.033 117.824 448.846 111.812 441.177 108.097C439.061 107.071 436.712 105.556 434.587 104.543C432.401 103.501 432.843 105.619 433.481 106.803C434.513 108.717 435.831 110.414 437.55 111.763C436.784 112.319 435.736 112.218 434.809 112.027C431.792 111.402 428.97 110.09 426.064 109.067C423.159 108.043 420.037 107.3 417.01 107.871C416.62 107.945 416.166 108.104 416.072 108.491C416.017 108.72 416.104 108.998 415.95 109.176C415.812 109.337 415.565 109.319 415.358 109.367C414.804 109.495 414.523 110.163 414.614 110.723C414.705 111.284 415.063 111.759 415.401 112.216C417.147 114.579 418.65 117.123 419.877 119.793C420.279 120.668 420.653 121.56 421.157 122.38C421.829 123.47 424.909 126.478 425.812 127.384C433.62 135.211 441.09 137.481 451.923 142.712" fill="#FFCBA4"/>
<path d="M437.57 111.812C440.423 112.234 443.254 112.809 446.045 113.533" stroke="black" stroke-width="0.850844" stroke-miterlimit="10"/>
<path d="M416.131 109.108C418.286 111.374 421.115 112.874 423.971 114.149C425.803 114.966 427.668 115.708 429.561 116.37" stroke="black" stroke-width="0.850844" stroke-miterlimit="10"/>
<path d="M416.892 114.542C420.531 117.307 424.584 119.528 428.873 121.106" stroke="black" stroke-width="0.850844" stroke-miterlimit="10"/>
<path d="M419.743 119.845C421.751 121.472 423.806 123.04 425.905 124.546C426.459 124.943 427.052 125.35 427.732 125.403" stroke="black" stroke-width="0.850844" stroke-miterlimit="10"/>
<path d="M512.251 118.495L477.99 119.274" stroke="#F98355" stroke-width="0.850844" stroke-miterlimit="10"/>
<path d="M511.817 115.59L477.99 116.369" stroke="#F98355" stroke-width="0.850844" stroke-miterlimit="10"/>
<path d="M511.196 112.283L477.99 113.062" stroke="#F98355" stroke-width="0.850844" stroke-miterlimit="10"/>
<path d="M477.99 124.2V97.6356" stroke="black" stroke-width="0.850844" stroke-miterlimit="10"/>
</svg>
