<svg width="24" height="25" viewBox="0 0 24 25" fill="none" xmlns="http://www.w3.org/2000/svg">
<path d="M9.43069 0.079343C8.85691 -0.121654 8.05205 0.0728548 7.63318 0.51336L1.89688 6.54564C1.47801 6.98614 1.6035 7.50606 2.17728 7.70706L15.8141 12.4808C16.3879 12.6816 17.1925 12.4873 17.6116 12.0468L23.3479 6.01449C23.7668 5.57377 23.6413 5.05385 23.0675 4.85307L9.43069 0.079343Z" fill="#4100F4"/>
<path d="M7.78131 12.0879C7.20752 11.8869 6.40268 12.0812 5.98381 12.5217L0.247503 18.5542C-0.171366 18.9947 -0.0458809 19.5146 0.527901 19.7153L14.1647 24.4891C14.7385 24.6901 15.5432 24.4958 15.9622 24.0551L21.6983 18.0228C22.1174 17.5823 21.9917 17.0624 21.4179 16.8614L7.78131 12.0879Z" fill="#4100F4"/>
</svg>
