<svg width="642" height="386" viewBox="0 0 642 386" fill="none" xmlns="http://www.w3.org/2000/svg">
<path d="M627.767 163.238C627.767 165.22 626.161 166.826 624.18 166.826C622.198 166.826 620.592 165.22 620.592 163.238C620.592 161.257 622.198 159.651 624.18 159.651C626.16 159.651 627.767 161.257 627.767 163.238Z" stroke="#ACB6E8" stroke-width="1.45908" stroke-miterlimit="10" stroke-linejoin="round"/>
<path d="M594.138 260.423C596.119 260.423 597.726 258.817 597.726 256.836C597.726 254.854 596.119 253.248 594.138 253.248C592.157 253.248 590.551 254.854 590.551 256.836C590.551 258.817 592.157 260.423 594.138 260.423Z" stroke="#ACB6E8" stroke-width="1.45908" stroke-miterlimit="10" stroke-linejoin="round"/>
<path d="M17.5696 185.46C17.5696 187.441 15.9636 189.047 13.9822 189.047C12.0007 189.047 10.3948 187.441 10.3948 185.46C10.3948 183.479 12.0007 181.873 13.9822 181.873C15.9636 181.873 17.5696 183.479 17.5696 185.46Z" stroke="#ACB6E8" stroke-width="1.45908" stroke-miterlimit="10" stroke-linejoin="round"/>
<path d="M612.548 84.2294V91.8993" stroke="#ACB6E8" stroke-width="1.45908" stroke-miterlimit="10" stroke-linejoin="round"/>
<path d="M616.384 88.0652H608.714" stroke="#ACB6E8" stroke-width="1.45908" stroke-miterlimit="10" stroke-linejoin="round"/>
<path d="M608.061 225.589L616.386 250.57L633.634 241.221L608.061 225.589Z" stroke="#ACB6E8" stroke-width="1.45908" stroke-miterlimit="10" stroke-linejoin="round"/>
<path opacity="0.55" d="M39.449 120.434L2.19092 132.883L24.8057 151.187L39.449 120.434Z" fill="#FFF6D2"/>
<path d="M35.4093 219.655L14.4355 243.173L45.2095 255.198L35.4093 219.655Z" stroke="#ACB6E8" stroke-width="1.45908" stroke-miterlimit="10" stroke-linejoin="round"/>
<path d="M266.501 379.937C259.458 371.205 252.237 363.355 244.825 356.977C228.695 343.098 211.415 336.779 198.827 345.223C196.325 346.901 193.941 349.403 192.741 353.404C183.964 340.447 171.839 328.499 161.301 316.954C155.034 310.087 114.004 274.497 109.232 296.274C108.825 298.13 108.695 300.208 108.77 302.425C95.4978 284.038 81.4109 268.011 67.1051 254.856C57.515 246.037 47.4493 238.258 38.3398 237.664C29.2313 237.069 21.325 245.273 21.0108 260.98C20.8824 267.398 21.9913 274.544 23.4105 281.566C27.4531 301.577 34.0034 321.192 41.9982 339.673C35.5948 333.442 29.028 328.563 22.9203 327.878C6.04552 325.986 18.83 357.117 30.0795 379.936H266.501V379.937Z" fill="#9FB78D"/>
<path d="M41.2129 338.086C48.9411 346.77 55.5868 356.415 60.9465 366.73" stroke="black" stroke-width="1.45908" stroke-miterlimit="10"/>
<path d="M108.722 302.357C128.273 324.65 146.027 348.11 161.814 372.512" stroke="black" stroke-width="1.45908" stroke-miterlimit="10"/>
<path d="M192.808 353.929C197.552 361.025 202.295 368.121 207.039 375.217" stroke="black" stroke-width="1.45908" stroke-miterlimit="10"/>
<path d="M29.824 339.752C39.5162 352.651 48.3942 366.162 56.387 380.178" stroke="#6D875C" stroke-width="1.45908" stroke-miterlimit="10"/>
<path d="M43.105 266.464C69.9161 302.76 93.3644 340.819 113.165 380.178" stroke="#6D875C" stroke-width="1.45908" stroke-miterlimit="10"/>
<path d="M213.421 353.407C220.544 362.321 227.54 371.359 234.404 380.514" stroke="#6D875C" stroke-width="1.45908" stroke-miterlimit="10"/>
<path d="M598.667 341.513C581.716 320.834 556.446 301.98 541.158 311.563C538.12 313.468 532.225 322.293 539.726 349.751C532.156 336.531 524.451 322.413 515.513 310.236C505.797 296.998 495.569 282.562 483.554 271.43C469.699 258.592 444.858 232.281 420.793 247.049C413.755 251.367 410.306 260.019 408.544 267.837C406.535 276.753 407.008 285.995 408.348 294.629C410.161 306.31 431.473 356.654 441.473 379.859H624.179C624.179 379.859 605.346 349.661 598.667 341.513Z" fill="#9FB78D"/>
<path d="M427.909 261.141C456.465 299.121 480.745 338.945 500.457 380.131" stroke="#6D875C" stroke-width="1.45908" stroke-miterlimit="10"/>
<path d="M563.193 349.754C570.215 359.87 577.078 370.125 583.78 380.514" stroke="#6D875C" stroke-width="1.45908" stroke-miterlimit="10"/>
<path d="M240.772 338.785L244.786 363.868C244.786 363.868 276.873 363.868 277.119 363.868C277.365 363.868 272.426 337.063 272.426 337.063" fill="#F4C3AB"/>
<path d="M277.44 358.263H242.978L240.263 381.029H299.594C300.158 364.709 281.62 367.676 277.44 358.263Z" fill="#DFE8FE"/>
<path d="M240.772 376.77H299.233" stroke="#9095AD" stroke-width="0.97272" stroke-miterlimit="10"/>
<path d="M241.951 366.876C241.951 366.876 251.028 367.476 254.372 376.77" stroke="#9095AD" stroke-width="0.97272" stroke-miterlimit="10"/>
<path d="M289.304 367.367C289.304 367.367 283.803 369.995 281.477 376.769" stroke="#9095AD" stroke-width="0.97272" stroke-miterlimit="10"/>
<path d="M279.657 361.298L274.615 366.437" stroke="#9095AD" stroke-width="0.97272" stroke-miterlimit="10"/>
<path d="M282.751 363.512L277.71 368.652" stroke="#9095AD" stroke-width="0.97272" stroke-miterlimit="10"/>
<path d="M311.334 338.785L315.348 363.868C315.348 363.868 347.435 363.868 347.68 363.868C347.926 363.868 342.987 337.063 342.987 337.063" fill="#F4C3AB"/>
<path d="M348.003 358.263H313.541L310.826 381.029H370.157C370.72 364.709 352.182 367.676 348.003 358.263Z" fill="#DFE8FE"/>
<path d="M311.334 376.77H369.794" stroke="#9095AD" stroke-width="0.97272" stroke-miterlimit="10"/>
<path d="M312.514 366.876C312.514 366.876 321.591 367.476 324.935 376.77" stroke="#9095AD" stroke-width="0.97272" stroke-miterlimit="10"/>
<path d="M359.866 367.367C359.866 367.367 354.366 369.995 352.04 376.769" stroke="#9095AD" stroke-width="0.97272" stroke-miterlimit="10"/>
<path d="M350.218 361.298L345.177 366.437" stroke="#9095AD" stroke-width="0.97272" stroke-miterlimit="10"/>
<path d="M353.311 363.512L348.27 368.652" stroke="#9095AD" stroke-width="0.97272" stroke-miterlimit="10"/>
<path d="M218.763 135.582C215.678 148.397 210.988 161.008 210.434 174.296C209.859 188.15 214.475 201.746 217.042 215.221C220.605 233.925 236.971 353.949 236.971 353.949H288.941L263.606 174.657L268.656 147.333" fill="#2C2635"/>
<path d="M301.217 148.221C301.217 148.221 301.547 171.537 301.217 171.459C300.888 171.381 353.355 353.949 353.355 353.949H300.27C300.27 353.949 243.38 184.496 243.659 174.657C243.938 164.819 247.657 151.125 252.397 140.772" fill="#2C2635"/>
<path d="M281.125 294.378L265.549 189.479" stroke="black" stroke-width="1.45908" stroke-miterlimit="10"/>
<path d="M222.472 151.497C221.444 152.019 220.998 153.225 220.666 154.329C219.049 159.703 218.012 165.252 217.58 170.848C223.791 170.565 230.049 169.254 235.475 166.217C240.901 163.181 245.438 158.297 247.285 152.36" stroke="#645B72" stroke-width="0.97272" stroke-miterlimit="10"/>
<path d="M328.308 82.9771C316.001 111.323 307.265 141.218 302.372 171.731L210.698 150.133C219.402 118.469 235.597 88.8893 257.583 64.4964L294.316 56.1651L322.229 72.0126" fill="#8668BC"/>
<path d="M599.556 304.119L610.669 327.907C610.669 327.907 573.178 347.663 572.89 347.814C572.603 347.965 561.962 321.893 561.962 321.893" fill="#A85C47"/>
<path d="M567.516 340.277L608.62 320.832L620.25 345.439L556.31 379.743C548.799 363.254 564.261 362.33 567.649 346.611C568.43 342.985 567.516 340.277 567.516 340.277Z" fill="#4C4139"/>
<path d="M618.153 341.512L554.868 376.046" stroke="black" stroke-width="0.97272" stroke-miterlimit="10"/>
<path d="M558.557 362.841C558.557 362.841 565.72 361.267 571.092 366.95" stroke="black" stroke-width="0.97272" stroke-miterlimit="10"/>
<path d="M566.906 347.939L574.61 349.953" stroke="black" stroke-width="0.97272" stroke-miterlimit="10"/>
<path d="M567.588 343.771L575.476 344.77" stroke="black" stroke-width="0.97272" stroke-miterlimit="10"/>
<path d="M564.691 353.734L571.531 355.309" stroke="black" stroke-width="0.97272" stroke-miterlimit="10"/>
<path d="M608.689 335.888C609.523 338.241 608.465 341.062 606.326 342.189C604.188 343.316 601.779 342.321 600.944 339.968C600.111 337.615 601.168 334.795 603.307 333.667C605.446 332.541 607.856 333.534 608.689 335.888Z" stroke="black" stroke-width="0.97272" stroke-miterlimit="10"/>
<path d="M505.178 328.761L505.664 355.012C505.664 355.012 463.38 357.825 463.056 357.847C462.732 357.869 463.605 329.723 463.605 329.723" fill="#A85C47"/>
<path d="M461.21 348.777L506.669 347.717L507.294 374.927L434.931 380.284C434.77 362.165 449.273 367.604 458.757 354.62C460.946 351.623 461.21 348.777 461.21 348.777Z" fill="#4C4139"/>
<path d="M506.975 370.486L435.118 376.319" stroke="black" stroke-width="0.97272" stroke-miterlimit="10"/>
<path d="M443.854 365.751C443.854 365.751 451.038 367.224 453.636 374.601" stroke="black" stroke-width="0.97272" stroke-miterlimit="10"/>
<path d="M457.54 355.531L463.761 360.502" stroke="black" stroke-width="0.97272" stroke-miterlimit="10"/>
<path d="M459.856 351.998L466.658 356.117" stroke="black" stroke-width="0.97272" stroke-miterlimit="10"/>
<path d="M453.162 359.926L458.77 364.144" stroke="black" stroke-width="0.97272" stroke-miterlimit="10"/>
<path d="M500.614 361.5C500.419 363.988 498.306 366.136 495.894 366.297C493.483 366.457 491.685 364.569 491.88 362.081C492.074 359.592 494.187 357.444 496.599 357.284C499.011 357.124 500.808 359.011 500.614 361.5Z" stroke="black" stroke-width="0.97272" stroke-miterlimit="10"/>
<path d="M493.716 161.765C493.716 161.765 471.427 191.681 459.897 219.525C455.023 231.296 451.792 256.107 449.589 276.565C448.058 290.782 445.243 335.682 445.243 335.682L508.259 337.062L509.657 244.667C509.657 244.667 532.733 204.406 535.449 197.675C538.165 190.943 549.191 176.265 540.855 156.972" fill="#A2BDFF"/>
<path d="M498.096 337.063C498.096 337.063 501.654 256.379 503.56 249.321C505.467 242.263 537.707 192.165 537.707 192.165" stroke="black" stroke-width="0.97272" stroke-miterlimit="10"/>
<path d="M524.343 181.99C524.343 181.99 517.722 234.309 519.252 247.018C520.846 260.249 523.865 271.921 529.831 287.358C538.455 309.671 553.152 339.872 553.152 339.872L608.06 317.201L572.826 248.509C572.826 248.509 578.642 186.861 576.325 167.383C574.445 151.579 571.218 146.44 563.134 135.396" fill="#A2BDFF"/>
<path d="M597.076 321.787L567.215 263.571C563.735 256.787 562.219 249.17 562.846 241.572C564.398 222.769 567.03 186.168 565.341 171.97C563.462 156.165 560.235 151.026 552.15 139.983" stroke="black" stroke-width="0.97272" stroke-miterlimit="10"/>
<path d="M519.707 226.953L522.545 188.947" stroke="black" stroke-width="0.97272" stroke-miterlimit="10"/>
<path d="M537.249 175.134C537.249 175.134 543.595 182.923 547.135 182.923C550.676 182.923 565.736 182.923 565.736 182.923" stroke="black" stroke-width="0.97272" stroke-miterlimit="10"/>
<path d="M534.047 267.885C540.271 272.007 546.293 276.436 552.083 281.151" stroke="black" stroke-width="0.97272" stroke-miterlimit="10"/>
<path d="M543.598 266.769C545.97 268.024 548.564 268.857 551.223 269.218" stroke="black" stroke-width="0.97272" stroke-miterlimit="10"/>
<path d="M459.267 249.125C460.801 254.001 462.336 258.878 463.87 263.755" stroke="black" stroke-width="0.97272" stroke-miterlimit="10"/>
<path d="M463.806 246.615C465.283 249.46 467.111 252.123 469.237 254.524" stroke="black" stroke-width="0.97272" stroke-miterlimit="10"/>
<path d="M477.187 186.503C481.945 186.387 485.362 185.993 490.044 185.241C490.773 185.124 491.513 184.995 492.161 184.68C492.999 184.271 493.609 183.587 494.195 182.922C496.826 179.935 499.456 176.948 502.088 173.961" stroke="black" stroke-width="0.97272" stroke-miterlimit="10"/>
<path d="M544.867 322.292L599.665 300.832" stroke="black" stroke-width="0.97272" stroke-miterlimit="10"/>
<path d="M508.542 318.318L446.593 315.097" stroke="black" stroke-width="0.97272" stroke-miterlimit="10"/>
<path d="M436.126 122.538L433.989 129.272L396.358 119.77L391.336 146.594C391.336 146.594 419.749 165.668 433.101 169.812C446.452 173.956 460.885 172.715 465.01 152.576C469.135 132.438 471.555 118.615 471.555 118.615" fill="#894434"/>
<path d="M464.156 81.2021C464.156 81.2021 446.318 81.8616 441.216 91.3544C436.114 100.847 431.369 125.631 431.369 125.631L471.078 134.785L474.619 109.836" fill="#FFE689"/>
<path d="M462.354 84.9376C462.354 84.9376 467.834 90.2458 475.834 86.0426C483.833 81.8395 485.47 70.0832 485.47 70.0832C485.47 70.0832 496.451 65.9968 507.191 67.2944C522.482 69.1416 530.587 77.9817 539.034 89.6359C552.041 107.58 577.304 156.972 577.304 156.972C577.304 156.972 563.414 183.767 525.009 188.661C491.014 192.992 481.955 178.699 481.955 178.699L454.764 101.237L462.354 84.9376Z" fill="#FFE689"/>
<path d="M467.855 131.668L457.598 108.321" stroke="black" stroke-width="0.97272" stroke-miterlimit="10"/>
<path d="M466.627 96.3062C471.09 97.6407 476.29 96.8587 480.605 94.3607C488.463 89.8123 494.321 78.4879 492.196 68.5875" stroke="#CC8A4A" stroke-width="1.45908" stroke-miterlimit="10"/>
<path d="M457.21 86.1273C458.207 89.9393 460.2 92.6717 462.727 94.4372" stroke="#CC8A4A" stroke-width="1.45908" stroke-miterlimit="10"/>
<path d="M471.287 56.87L482.478 59.4711L482.92 63.0663L486.06 69.8772C486.06 69.8772 487.315 83.4233 474.779 88.6877C467.461 91.7605 462.462 86.5613 462.462 86.5613L457.598 75.1591" fill="#A85C47"/>
<path d="M446.643 72.1246C444.35 67.0714 443.339 61.0317 442.961 56.6924C442.641 53.0194 442.605 47.4244 444.663 44.299C447.311 40.2729 452.852 39.6163 457.454 38.595C465.009 36.918 471.04 43.2757 474.001 49.5021C476.276 54.285 477.701 59.3227 476.643 64.6211C474.922 73.2355 467.136 82.6942 457.518 81.5921C452.293 80.9929 448.865 77.0213 446.643 72.1246Z" fill="#A85C47"/>
<path d="M456.702 58.8448C456.872 59.7553 457.574 60.3876 458.27 60.2582C458.966 60.1288 459.393 59.2855 459.223 58.376C459.054 57.4655 458.351 56.8332 457.656 56.9626C456.959 57.092 456.532 57.9354 456.702 58.8448Z" fill="black"/>
<path d="M444.543 61.8945C444.712 62.8049 445.414 63.4372 446.11 63.3078C446.806 63.1785 447.233 62.3351 447.063 61.4256C446.894 60.5152 446.192 59.8829 445.496 60.0123C444.801 60.1416 444.374 60.985 444.543 61.8945Z" fill="black"/>
<path d="M449.916 59.0448C449.916 59.0448 450.107 63.3919 449.832 64.9336C449.63 66.0717 449.092 67.9141 450.659 68.3245C451.638 68.5804 453.851 68.1699 453.851 68.1699" stroke="black" stroke-width="0.97272" stroke-miterlimit="10"/>
<path d="M488.606 45.7037C488.95 49.3329 488.327 53.0282 486.849 56.3131C486.577 56.9182 482.921 63.0657 482.921 63.0657L473.562 52.2258C473.562 52.2258 469.589 50.2132 469.004 50.2385C467.184 50.3153 465.364 49.5916 463.912 48.475C462.13 47.1044 460.833 45.1813 459.764 43.1911C459.642 44.6843 458.065 45.5821 456.608 45.8048C453.834 46.2289 451.34 45.0685 449.321 43.1834C448.811 46.9196 444.441 51.112 440.662 51.1169C436.274 51.1227 431.604 49.2541 429.627 44.98C428.05 41.5696 428.307 37.6019 429.798 34.3705C431.142 31.4592 433.939 30.1236 436.856 28.8717C439.773 27.6198 443.748 27.4409 446.188 28.1461C446.701 26.2075 448.42 24.8456 450.231 24.0529C455.455 21.768 462.172 23.5325 465.765 28.1325C465.979 28.4068 466.201 28.7034 466.523 28.828C466.865 28.9602 467.242 28.8688 467.594 28.7861C471.513 27.865 476.092 28.0381 479.797 29.8649C485.354 32.6031 488.053 39.881 488.606 45.7037Z" fill="black"/>
<path d="M471.151 75.5732C470.974 75.7328 467.234 81.3648 459.33 81.9076" stroke="black" stroke-width="0.97272" stroke-miterlimit="10"/>
<path d="M455.42 71.3886C456.039 71.7193 456.67 72.0539 457.358 72.192C458.047 72.3302 458.814 72.2436 459.36 71.801C459.681 71.5403 459.903 71.1765 460.073 70.7991C460.647 69.5268 460.678 68.02 460.156 66.7253" stroke="black" stroke-width="0.97272" stroke-miterlimit="10"/>
<path d="M463.398 57.3846C463.423 60.3252 461.059 62.7287 458.12 62.754C455.179 62.7793 452.775 60.4156 452.75 57.476C452.725 54.5365 455.089 52.1319 458.028 52.1066C460.97 52.0814 463.373 54.4441 463.398 57.3846Z" stroke="#E88852" stroke-width="0.97272" stroke-miterlimit="10"/>
<path d="M448.502 61.0378C448.528 63.9783 446.359 66.38 443.659 66.4033C440.959 66.4267 438.751 64.062 438.726 61.1215C438.7 58.1809 440.868 55.7793 443.569 55.756C446.269 55.7336 448.478 58.0983 448.502 61.0378Z" stroke="#E88852" stroke-width="0.97272" stroke-miterlimit="10"/>
<path d="M462.667 54.7417L475.415 54.2913" stroke="#E88852" stroke-width="0.97272" stroke-miterlimit="10"/>
<path d="M452.746 56.8339L447.473 57.8251" stroke="#E88852" stroke-width="0.97272" stroke-miterlimit="10"/>
<path d="M469.199 58.0484C468.981 55.3199 472.44 52.8152 474.945 53.4397C480.967 54.9415 480.056 65.5471 474.756 67.0889C473.256 67.5246 471.003 67.1443 470.288 65.4683" fill="#A85C47"/>
<path d="M475.835 58.0385L471.295 63.0656" stroke="black" stroke-width="0.97272" stroke-miterlimit="10"/>
<path d="M471.426 54.4324C470.284 55.2865 469.411 56.5111 468.958 57.8963" stroke="black" stroke-width="0.97272" stroke-miterlimit="10"/>
<path d="M479.134 61.6884C478.609 63.9889 477.317 66.4995 474.937 67.1435C473.284 67.5909 471.286 67.0481 470.422 65.3741" stroke="black" stroke-width="0.97272" stroke-miterlimit="10"/>
<path d="M496.578 114.992L498.26 126.773L463.367 126.008L463.525 154.811C463.525 154.811 509.08 164.06 522.639 161.139C533.881 158.717 542.562 150.585 539.494 133.226C535.819 112.428 531.847 98.6319 531.847 98.6319" fill="#A85C47"/>
<path d="M490.393 87.0612L496.848 121.031L539.601 117.711L534.898 90.3791" fill="#FFE689"/>
<path d="M494.74 109.942L537.707 106.701" stroke="#CC8A4A" stroke-width="1.45908" stroke-miterlimit="10"/>
<path d="M539.602 117.711L534.898 90.3792" stroke="black" stroke-width="0.97272" stroke-miterlimit="10"/>
<path d="M490.393 87.0612L496.848 121.031" stroke="black" stroke-width="0.97272" stroke-miterlimit="10"/>
<path d="M498.261 126.773C498.261 126.773 516.231 125.994 522.546 128.476" stroke="black" stroke-width="0.97272" stroke-miterlimit="10"/>
<path d="M274.412 361.987H188.452V379.935H274.412V361.987Z" fill="#EAA242"/>
<path d="M203.064 361.987H198.055V379.935H203.064V361.987Z" fill="#D8892B"/>
<path d="M219.123 361.987H214.114V379.935H219.123V361.987Z" fill="#D8892B"/>
<path d="M235.179 361.987H230.17V379.935H235.179V361.987Z" fill="#D8892B"/>
<path d="M251.235 361.987H246.226V379.935H251.235V361.987Z" fill="#D8892B"/>
<path d="M267.291 361.987H262.282V379.935H267.291V361.987Z" fill="#D8892B"/>
<path d="M285.295 308.296H199.335V326.243H285.295V308.296Z" fill="#EAA242"/>
<path d="M213.949 308.296H208.94V326.243H213.949V308.296Z" fill="#D8892B"/>
<path d="M230.007 308.296H224.997V326.243H230.007V308.296Z" fill="#D8892B"/>
<path d="M246.063 308.296H241.053V326.243H246.063V308.296Z" fill="#D8892B"/>
<path d="M262.119 308.296H257.109V326.243H262.119V308.296Z" fill="#D8892B"/>
<path d="M278.177 308.296H273.168V326.243H278.177V308.296Z" fill="#D8892B"/>
<path d="M272.45 326.244H186.49V344.191H272.45V326.244Z" fill="#EAA242"/>
<path d="M201.103 326.244H196.094V344.191H201.103V326.244Z" fill="#D8892B"/>
<path d="M217.16 326.244H212.15V344.191H217.16V326.244Z" fill="#D8892B"/>
<path d="M233.217 326.244H228.208V344.191H233.217V326.244Z" fill="#D8892B"/>
<path d="M249.275 326.244H244.265V344.191H249.275V326.244Z" fill="#D8892B"/>
<path d="M265.331 326.244H260.321V344.191H265.331V326.244Z" fill="#D8892B"/>
<path d="M267.389 344.04H181.429V361.988H267.389V344.04Z" fill="#EAA242"/>
<path d="M196.042 344.04H191.032V361.988H196.042V344.04Z" fill="#D8892B"/>
<path d="M212.099 344.04H207.09V361.988H212.099V344.04Z" fill="#D8892B"/>
<path d="M228.155 344.04H223.146V361.988H228.155V344.04Z" fill="#D8892B"/>
<path d="M244.213 344.04H239.203V361.988H244.213V344.04Z" fill="#D8892B"/>
<path d="M260.27 344.04H255.26V361.988H260.27V344.04Z" fill="#D8892B"/>
<path d="M188.452 361.987H267.391" stroke="#8E5D28" stroke-width="1.45908" stroke-miterlimit="10"/>
<path d="M186.49 343.284H267.388" stroke="#8E5D28" stroke-width="1.45908" stroke-miterlimit="10"/>
<path d="M198.599 326.244H272.451" stroke="#8E5D28" stroke-width="1.45908" stroke-miterlimit="10"/>
<path d="M197.395 304.92L184.942 296.105L135.135 366.46L147.588 375.275C162.159 385.591 185.122 378.204 198.875 358.777C212.629 339.349 211.966 315.236 197.395 304.92Z" fill="#EAA242"/>
<mask id="mask0_370_21102" style="mask-type:luminance" maskUnits="userSpaceOnUse" x="135" y="296" width="74" height="84">
<path d="M197.393 304.92L184.94 296.104L135.133 366.459L147.586 375.275C162.157 385.591 185.12 378.204 198.874 358.777C212.628 339.348 211.965 315.236 197.393 304.92Z" fill="white"/>
</mask>
<g mask="url(#mask0_370_21102)">
<path d="M216.965 329.546L186.39 307.901L188.904 304.352L219.478 325.996L216.965 329.546ZM218.914 342.086L188.339 320.441L185.826 323.991L216.401 345.636L218.914 342.086ZM218.351 358.177L187.776 336.532L185.263 340.081L215.837 361.726L218.351 358.177ZM179.091 383.045L148.516 361.4L146.003 364.95L176.577 386.595L179.091 383.045ZM194.08 377.165L163.506 355.52L160.992 359.071L191.567 380.716L194.08 377.165ZM209.069 371.287L178.494 349.642L175.981 353.192L206.555 374.837L209.069 371.287Z" fill="#D8892B"/>
</g>
<path d="M186.677 350.129C200.431 330.7 199.767 306.587 185.195 296.271C170.623 285.955 147.66 293.343 133.906 312.771C120.152 332.2 120.816 356.312 135.388 366.628C149.961 376.944 172.923 369.557 186.677 350.129Z" fill="#FFD652"/>
<path d="M185.187 296.278C199.758 306.594 200.422 330.707 186.669 350.135C172.914 369.563 149.952 376.95 135.381 366.633" stroke="black" stroke-width="1.45908" stroke-miterlimit="10"/>
<path d="M178.547 344.374C189.217 329.302 189.198 310.947 178.504 303.377C167.811 295.808 150.493 301.889 139.824 316.961C129.154 332.033 129.173 350.387 139.867 357.957C150.56 365.527 167.878 359.445 178.547 344.374Z" fill="#EAA242"/>
<path d="M133.221 348.922C130.065 339.953 132.261 327.637 139.815 316.966C150.485 301.895 167.802 295.813 178.494 303.383" stroke="black" stroke-width="1.45908" stroke-miterlimit="10"/>
<path d="M184.743 311.45C187.856 317.556 187.275 325.265 185.243 331.618" stroke="black" stroke-width="1.45908" stroke-miterlimit="10"/>
<path d="M191.036 367.716C193.861 365.113 196.504 362.124 198.873 358.777C209.148 344.263 211.376 327.134 205.77 315.097" stroke="black" stroke-width="1.45908" stroke-miterlimit="10"/>
<path d="M428.876 332.781L421.307 376.316C420.88 378.771 418.922 380.547 416.641 380.547H389.019C387.196 380.547 385.539 379.403 384.743 377.606C378.817 364.228 355.509 307.175 360.318 247.36" fill="#FFC3C0"/>
<path d="M310.517 332.782L303.543 372.482C302.721 377.162 298.949 380.548 294.557 380.548H274.61C270.326 380.548 266.617 377.324 265.682 372.789L257.063 330.954" fill="#FFC3C0"/>
<path d="M261.064 180.165C260.947 179.831 260.795 179.52 260.601 179.233C257.451 174.566 251.038 174.769 246.077 175.204C240.024 175.735 233.452 175.915 227.511 176.99C216.6 178.963 221.989 192.789 224.138 199.849C225.566 204.539 228.936 218.826 234.975 220.028C240.327 221.09 247.465 208.54 249.712 205.163C252.599 200.822 263.259 186.445 261.064 180.165Z" fill="#D6706E"/>
<path d="M487.441 208.906C481.403 208.906 475.387 206.519 471.112 202.369L473.641 199.762C477.473 203.478 483.218 205.574 488.636 205.236C491.601 205.05 495.698 204.075 498.976 200.6C494.091 198.475 489.949 192.855 491.245 187.271C492.025 183.913 494.224 181.698 497.127 181.345C500.121 180.98 503.171 182.772 504.708 185.8C506.564 189.458 506.544 194.106 504.855 198.155C505.852 198.095 506.714 197.809 507.436 197.296C509.417 195.891 510.593 192.553 510.583 188.366L514.216 188.357C514.23 193.803 512.525 198.14 509.539 200.259C507.675 201.581 505.421 202.056 502.821 201.682C502.755 201.768 502.687 201.854 502.618 201.939C499.328 206.051 494.443 208.51 488.863 208.86C488.391 208.892 487.915 208.906 487.441 208.906ZM497.912 184.931C497.797 184.931 497.68 184.937 497.565 184.952C496.203 185.117 495.217 186.233 494.785 188.093C493.826 192.223 497.739 196.345 500.967 197.482C501.024 197.503 501.083 197.523 501.139 197.543C502.759 194.294 502.947 190.358 501.47 187.445C500.686 185.902 499.291 184.931 497.912 184.931Z" fill="#D6706E"/>
<path d="M399.586 356.565H317.199C262.12 356.565 217.469 311.915 217.469 256.835C217.469 201.756 262.12 157.105 317.199 157.105H399.586C454.665 157.105 499.316 201.756 499.316 256.835C499.316 311.915 454.665 356.565 399.586 356.565Z" fill="#FFC3C0"/>
<path d="M244.971 229.166H230.245V298.725H244.971C262.202 298.725 276.172 283.154 276.172 263.946C276.173 244.738 262.203 229.166 244.971 229.166Z" fill="#D6706E"/>
<path d="M231.623 298.725C248.855 298.725 262.824 283.154 262.824 263.946C262.824 244.738 248.855 229.166 231.623 229.166C214.391 229.166 200.422 244.738 200.422 263.946C200.422 283.154 214.391 298.725 231.623 298.725Z" fill="#FFC3C0"/>
<path d="M241.131 283.029C237.767 283.029 235.042 280.302 235.042 276.938V251.434C235.042 248.07 237.768 245.344 241.131 245.344C244.494 245.344 247.22 248.071 247.22 251.434V276.938C247.221 280.302 244.494 283.029 241.131 283.029Z" fill="#ED8C8C"/>
<path d="M243.491 245.823L243.492 245.82C242.765 245.513 241.967 245.344 241.128 245.344C237.765 245.344 235.039 248.071 235.039 251.433V276.938C235.039 280.302 237.766 283.028 241.128 283.028C241.968 283.028 242.766 282.858 243.494 282.552C241.306 281.629 239.77 279.463 239.77 276.939V251.434C239.772 248.911 241.305 246.747 243.491 245.823Z" fill="#D6706E"/>
<path d="M241.131 245.344C244.494 245.344 247.22 248.071 247.22 251.434V276.938" stroke="black" stroke-width="1.45908" stroke-miterlimit="10"/>
<path d="M216.848 283.029C213.485 283.029 210.759 280.302 210.759 276.938V251.434C210.759 248.07 213.486 245.344 216.848 245.344C220.212 245.344 222.938 248.071 222.938 251.434V276.938C222.939 280.302 220.212 283.029 216.848 283.029Z" fill="#ED8C8C"/>
<path d="M219.211 245.823L219.212 245.82C218.486 245.514 217.687 245.344 216.848 245.344C213.485 245.344 210.759 248.071 210.759 251.434V276.938C210.759 280.302 213.486 283.029 216.848 283.029C217.688 283.029 218.488 282.858 219.214 282.552C217.026 281.629 215.491 279.464 215.491 276.939V251.435C215.492 248.911 217.026 246.747 219.211 245.823Z" fill="#D6706E"/>
<path d="M216.847 245.344C220.211 245.344 222.937 248.071 222.937 251.434V266.166" stroke="black" stroke-width="1.45908" stroke-miterlimit="10"/>
<path d="M218.713 232.279C218.713 232.279 223.98 228.298 235.041 229.165" stroke="black" stroke-width="1.45908" stroke-miterlimit="10"/>
<path d="M223.558 297.552C223.558 297.552 239.829 303.76 253.21 289.051" stroke="black" stroke-width="1.45908" stroke-miterlimit="10"/>
<path d="M281.469 223.562C284.002 223.562 286.056 220.33 286.056 216.343C286.056 212.355 284.002 209.123 281.469 209.123C278.935 209.123 276.882 212.355 276.882 216.343C276.882 220.33 278.935 223.562 281.469 223.562Z" fill="black"/>
<path d="M242.633 223.562C245.167 223.562 247.22 220.33 247.22 216.343C247.22 212.355 245.167 209.123 242.633 209.123C240.099 209.123 238.046 212.355 238.046 216.343C238.046 220.33 240.099 223.562 242.633 223.562Z" fill="black"/>
<path d="M326.315 298.028C338.694 292.991 344.645 278.872 339.608 266.494C334.571 254.115 320.453 248.164 308.074 253.201C295.695 258.238 289.744 272.357 294.781 284.735C299.819 297.114 313.937 303.065 326.315 298.028Z" fill="#F7B0A9"/>
<path d="M416.591 209.123H454.918C439.141 178.245 407.024 157.104 369.968 157.104H331.641C368.697 157.104 400.814 178.245 416.591 209.123Z" fill="#ED8C8C"/>
<path d="M441.132 209.123H454.918C439.141 178.245 407.024 157.104 369.968 157.104H331.641C342.26 157.104 352.469 158.847 362.009 162.051C395.758 163.141 425.066 181.772 441.132 209.123Z" fill="#D6706E"/>
<mask id="mask1_370_21102" style="mask-type:luminance" maskUnits="userSpaceOnUse" x="331" y="98" width="127" height="112">
<path d="M416.592 209.123H454.919C470.182 109.141 424.036 98.4162 399.954 98.0456C362.178 97.463 331.642 157.104 331.642 157.104C368.698 157.104 400.815 178.245 416.592 209.123Z" fill="white"/>
</mask>
<g mask="url(#mask1_370_21102)">
<path d="M420.126 111.263L405.294 107.682L385.065 191.475L399.897 195.056C417.252 199.245 435.849 183.884 441.436 160.746C447.022 137.607 437.482 115.453 420.126 111.263Z" fill="#EAA242"/>
<mask id="mask2_370_21102" style="mask-type:luminance" maskUnits="userSpaceOnUse" x="385" y="107" width="59" height="89">
<path d="M420.125 111.263L405.293 107.683L385.063 191.476L399.895 195.056C417.251 199.246 435.848 183.885 441.434 160.747C447.021 137.608 437.48 115.454 420.125 111.263Z" fill="white"/>
</mask>
<g mask="url(#mask2_370_21102)">
<path d="M447.422 126.896L411.007 118.104L412.027 113.877L448.442 122.668L447.422 126.896ZM453.875 137.824L417.46 129.033L416.44 133.261L452.854 142.053L453.875 137.824ZM459.306 152.98L422.892 144.189L421.871 148.417L458.286 157.209L459.306 152.98ZM432.039 190.613L395.624 181.821L394.604 186.05L431.019 194.841L432.039 190.613ZM443.789 179.604L407.374 170.813L406.353 175.041L442.768 183.833L443.789 179.604ZM455.537 168.595L419.122 159.804L418.102 164.032L454.517 172.824L455.537 168.595Z" fill="#D8892B"/>
</g>
<path d="M426.916 157.232C432.503 134.092 422.962 111.937 405.606 107.747C388.251 103.556 369.652 118.918 364.065 142.057C358.479 165.197 368.019 187.352 385.375 191.542C402.731 195.733 421.329 180.371 426.916 157.232Z" fill="#FFD652"/>
<path d="M405.588 107.754C422.943 111.943 432.483 134.098 426.897 157.237C421.311 180.376 402.713 195.737 385.358 191.547" stroke="black" stroke-width="1.45908" stroke-miterlimit="10"/>
<path d="M417.229 154.891C421.563 136.941 414.752 119.896 402.016 116.821C389.281 113.747 375.443 125.806 371.109 143.756C366.775 161.707 373.586 178.751 386.322 181.826C399.057 184.901 412.895 172.842 417.229 154.891Z" fill="#EAA242"/>
<path d="M376.797 175.892C370.546 168.728 368.027 156.473 371.095 143.765C375.429 125.815 389.266 113.755 402 116.83" stroke="black" stroke-width="1.45908" stroke-miterlimit="10"/>
<path d="M410.791 122.012C415.942 126.532 418.255 133.908 418.719 140.562" stroke="black" stroke-width="1.45908" stroke-miterlimit="10"/>
</g>
<path d="M474.235 131.012C465.634 125.949 455.994 123.092 445.989 122.641C438.432 122.3 429.009 125.463 425.899 133.145C424.955 135.476 424.762 138.22 424.838 140.707C424.873 141.85 425.615 148.908 427.643 146.422C428.23 145.701 429.487 141.481 429.487 141.481C428.55 144.136 428.398 147.075 429.072 149.555C429.422 150.844 430.339 152.16 431.47 151.621C431.757 153.859 433.391 155.492 435.272 155.42C435.468 155.412 435.67 155.39 435.845 155.466C436.155 155.601 436.302 156.006 436.437 156.373C437.625 159.602 440.076 165.521 441.926 164.488C444.515 163.042 442.878 156.286 442.002 154.307C443.531 152.942 445.316 152.079 447.08 151.852C452.153 151.201 456.171 155.647 461.121 156.113C463.743 156.359 470.017 153.945 470.017 153.945" fill="#A85C47"/>
<path d="M473.465 153.327C471.11 153.875 468.756 154.423 466.401 154.971" stroke="black" stroke-width="0.97272" stroke-miterlimit="10"/>
<path d="M435.948 130.048C434.687 131.261 433.53 132.657 432.516 134.187C431.06 136.387 429.886 138.92 429.441 141.572" stroke="black" stroke-width="0.97272" stroke-miterlimit="10"/>
<path d="M430.023 134.484C430.145 135.791 430.193 137.121 430.166 138.464" stroke="black" stroke-width="0.97272" stroke-miterlimit="10"/>
<path d="M438.789 137.185C437.419 138.746 436.076 140.343 434.76 141.973C434.184 142.686 433.604 143.421 433.206 144.286C432.929 144.889 432.748 145.537 432.581 146.182C432.145 147.856 431.781 149.547 431.492 151.242" stroke="black" stroke-width="0.97272" stroke-miterlimit="10"/>
<path d="M441.924 143.004C440.018 144.706 438.267 146.707 436.738 148.929C436.288 149.584 435.845 150.283 435.641 151.075C435.425 151.912 435.497 152.769 435.632 153.566C435.738 154.194 435.882 154.804 436.061 155.393" stroke="black" stroke-width="0.97272" stroke-miterlimit="10"/>
<path d="M441.882 154.337C441.374 154.805 440.928 155.385 440.576 156.034" stroke="black" stroke-width="0.97272" stroke-miterlimit="10"/>
<path d="M463.12 126.208C465.919 127.287 471.791 128.562 471.791 128.562" stroke="black" stroke-width="0.97272" stroke-miterlimit="10"/>
<path d="M438 185.654C438 185.654 446.775 193.013 454.918 209.123H416.591C400.813 178.245 368.697 157.104 331.641 157.104" stroke="black" stroke-width="1.45908" stroke-miterlimit="10"/>
<path d="M258.901 339.872C258.901 339.872 275.648 356.565 306.339 356.565C337.03 356.565 394.794 356.565 407.205 356.565C419.616 356.565 441.003 352.688 452.248 343.278" stroke="black" stroke-width="1.45908" stroke-miterlimit="10"/>
<path d="M310.301 332.782L317.867 372.482C318.759 377.162 322.851 380.548 327.616 380.548H349.253C353.9 380.548 357.924 377.324 358.937 372.789L368.288 330.954" fill="#FFC3C0"/>
<path d="M424.036 332.781L432.332 376.316C432.8 378.771 434.947 380.547 437.447 380.547H467.722C469.72 380.547 471.537 379.403 472.41 377.606C478.906 364.228 504.453 307.175 499.182 247.36" fill="#FFC3C0"/>
<path d="M314.22 357.111L311.178 337.372" stroke="black" stroke-width="1.45908" stroke-miterlimit="10"/>
<path d="M363.147 357.345L369.296 326.752" stroke="black" stroke-width="1.45908" stroke-miterlimit="10"/>
<path d="M428.877 357.465L422.571 319.257" stroke="black" stroke-width="1.45908" stroke-miterlimit="10"/>
<path d="M301.257 179.691C298.164 183.14 312.214 224.514 319.797 226.724C335.275 231.233 352.043 198.063 353.165 192.739C354.181 187.915 353.027 184.095 349.332 182.598C336.6 177.437 307.789 172.408 301.257 179.691Z" fill="#D6706E"/>
<path d="M317.223 224.347C324.81 232.188 340.785 200.529 343.114 195.944" stroke="black" stroke-width="1.45908" stroke-miterlimit="10"/>
<path d="M344.745 192.722C346.078 190.154 348.238 186.364 346.819 183.446C346.512 182.814 346.029 182.276 345.765 181.625" stroke="black" stroke-width="1.45908" stroke-miterlimit="10"/>
<path d="M381.267 104.472C380.249 104.962 379.693 106.421 379.455 107.783C378.816 106.713 377.075 106.902 376.243 107.83C375.412 108.758 375.242 110.085 375.11 111.325C374.05 110.559 372.438 111.057 371.667 112.112C370.894 113.168 370.807 114.583 371.003 115.876C370.37 115.606 369.604 115.934 369.18 116.476C368.756 117.018 368.606 117.722 368.517 118.405C367.944 122.844 369.648 127.516 372.946 130.542C373.259 130.83 373.635 131.119 374.059 131.081C374.86 131.01 375.074 129.948 375.069 129.143C375.43 129.948 375.946 130.684 376.58 131.297C376.756 131.468 376.955 131.636 377.197 131.673C377.793 131.764 378.189 131.044 378.215 130.441C378.241 129.839 378.522 129.279 378.424 128.671C379.231 129.573 380.126 130.526 381.315 130.756C383.212 131.121 383.447 126.956 383.627 125.807C383.584 126.692 384.748 127.236 385.57 126.907C386.391 126.577 386.869 125.723 387.176 124.893C388.462 121.404 387.806 117.536 387.136 113.879C386.865 112.402 386.575 110.706 386.575 110.706C386.575 110.706 388.017 109.758 389.372 109.201C386.879 103.436 382.858 103.676 381.267 104.472Z" fill="#A85C47"/>
<path d="M379.41 108.001C379.603 109.401 379.797 110.801 379.99 112.2C380.629 116.826 381.303 121.562 383.508 125.676" stroke="black" stroke-width="0.97272" stroke-miterlimit="10"/>
<path d="M375.125 111.325C375.201 114.316 375.265 117.344 375.894 120.28C376.526 123.227 377.45 126.118 378.617 128.896" stroke="black" stroke-width="0.97272" stroke-miterlimit="10"/>
<path d="M370.917 115.901C371.547 120.576 372.966 125.105 375.068 129.144" stroke="black" stroke-width="0.97272" stroke-miterlimit="10"/>
<path d="M386.575 110.706V107.423" stroke="black" stroke-width="0.97272" stroke-miterlimit="10"/>
<path d="M477.421 263.066L492.654 262.248L501.789 348.093L486.556 348.911C468.729 349.868 452.234 331.427 449.712 307.722C447.189 284.016 459.595 264.023 477.421 263.066Z" fill="#EAA242"/>
<mask id="mask3_370_21102" style="mask-type:luminance" maskUnits="userSpaceOnUse" x="449" y="262" width="53" height="87">
<path d="M477.42 263.065L492.654 262.247L501.789 348.092L486.555 348.911C468.729 349.868 452.233 331.427 449.711 307.722C447.188 284.016 459.594 264.022 477.42 263.065Z" fill="white"/>
</mask>
<g mask="url(#mask3_370_21102)">
<path d="M447.735 269.106L485.137 267.098L485.598 271.429L448.196 273.438L447.735 269.106ZM440.799 287.315L478.201 285.306L477.74 280.974L440.338 282.983L440.799 287.315ZM433.402 301.191L470.804 299.183L470.343 294.851L432.941 296.86L433.402 301.191ZM455.603 343.047L493.005 341.038L492.544 336.706L455.142 338.715L455.603 343.047ZM445.354 330.118L482.756 328.11L482.295 323.778L444.892 325.787L445.354 330.118ZM435.104 317.189L472.506 315.18L472.045 310.849L434.643 312.857L435.104 317.189Z" fill="#D8892B"/>
</g>
<path d="M504.321 347.82C521.855 344.777 532.759 323.236 528.676 299.706C524.592 276.176 507.067 259.568 489.533 262.611C471.999 265.654 461.095 287.196 465.178 310.726C469.262 334.256 486.787 350.864 504.321 347.82Z" fill="#FFD652"/>
<path d="M492.352 262.263C474.526 263.22 462.121 283.214 464.643 306.92C467.166 330.625 483.662 349.067 501.487 348.109" stroke="black" stroke-width="1.45908" stroke-miterlimit="10"/>
<path d="M503.548 338.215C516.448 336.157 524.542 319.664 521.625 301.377C518.708 283.089 505.886 269.932 492.986 271.99C480.085 274.047 471.992 290.54 474.909 308.828C477.826 327.115 490.648 340.272 503.548 338.215Z" fill="#EAA242"/>
<path d="M512.066 334.31C519.23 328.42 523.345 316.86 521.96 303.841C520.003 285.452 507.813 271.113 494.732 271.816" stroke="black" stroke-width="1.45908" stroke-miterlimit="10"/>
<path d="M485.303 275.3C479.581 278.797 476.31 285.611 474.975 292.052" stroke="black" stroke-width="1.45908" stroke-miterlimit="10"/>
<path d="M538.214 364.09H452.254V380.463H538.214V364.09Z" fill="#EAA242"/>
<path d="M466.867 364.09H461.858V380.463H466.867V364.09Z" fill="#D8892B"/>
<path d="M482.925 364.09H477.915V380.463H482.925V364.09Z" fill="#D8892B"/>
<path d="M498.982 364.09H493.973V380.463H498.982V364.09Z" fill="#D8892B"/>
<path d="M515.038 364.09H510.029V380.463H515.038V364.09Z" fill="#D8892B"/>
<path d="M531.094 364.09H526.085V380.463H531.094V364.09Z" fill="#D8892B"/>
<path d="M531.192 347.717H445.232V364.09H531.192V347.717Z" fill="#EAA242"/>
<path d="M459.845 347.717H454.835V364.09H459.845V347.717Z" fill="#D8892B"/>
<path d="M475.904 347.717H470.894V364.09H475.904V347.717Z" fill="#D8892B"/>
<path d="M491.959 347.717H486.949V364.09H491.959V347.717Z" fill="#D8892B"/>
<path d="M508.016 347.717H503.006V364.09H508.016V347.717Z" fill="#D8892B"/>
<path d="M524.073 347.717H519.064V364.09H524.073V347.717Z" fill="#D8892B"/>
<path d="M452.254 364.09H531.193" stroke="black" stroke-width="1.45908" stroke-miterlimit="10"/>
<path d="M460.423 347.939H506.699" stroke="black" stroke-width="1.45908" stroke-miterlimit="10"/>
<path d="M255.428 50.274C245.327 55.7456 236.286 62.9914 228.421 71.3451C221.984 78.1804 215.366 86.3269 211.371 94.8937C198.605 122.266 228.479 143.79 246.869 159.175C248.366 160.428 249.869 161.672 251.39 162.896L273.893 141.531L247.236 107.738L265.692 78.481" fill="#FFB5A1"/>
<path d="M272.543 79.2535L253.876 104.837L221.3 77.525C221.3 77.525 241.513 55.846 250.396 50.7276C260.038 45.1714 267.165 44.9982 275.49 48.2072C284.261 51.5894 293.532 56.5318 293.532 56.5318" fill="#8668BC"/>
<path d="M242.762 154.556C246.941 160.183 252.061 165.112 257.843 169.075C259.172 169.986 260.559 170.858 262.098 171.336C263.58 171.796 265.152 171.875 266.703 171.874C270.605 171.87 274.505 171.395 278.406 171.664C280.152 171.785 282.408 171.925 283.987 172.757C284.634 173.098 285.18 173.701 285.816 174.101C286.655 174.629 287.528 175.102 288.428 175.517C289.299 175.919 290.218 176.269 291.177 176.295C292.495 176.329 293.814 175.699 294.616 174.653C296.061 175.588 298.353 175.334 299.914 174.611C300.608 175.273 302.009 175.32 302.806 174.785C303.602 174.25 303.494 173.633 303.836 172.736C303.933 172.481 304.022 172.22 304.034 171.947C304.051 171.59 303.936 171.241 303.884 170.887C303.78 170.195 304.043 169.767 304.184 169.147C304.321 168.544 304.035 167.905 303.797 167.348C301.401 161.739 299.612 154.65 294.322 150.867C291.181 148.621 287.577 147.08 284.018 145.63C278.607 143.424 272.543 141.875 268.746 137.435" fill="#FFB5A1"/>
<path d="M278.022 164.194C281.136 164.92 284.225 165.841 287.08 167.28C289.935 168.719 292.729 172.071 294.616 174.653" stroke="black" stroke-width="0.97272" stroke-miterlimit="10"/>
<path d="M286.172 159.065C289.175 160.708 291.892 162.872 294.167 165.43C296.636 168.208 299.914 174.61 299.914 174.61" stroke="black" stroke-width="0.97272" stroke-miterlimit="10"/>
<path d="M291.223 154.745C294.206 156.356 296.691 158.925 298.731 161.796C300.771 164.667 302.723 167.618 303.998 171.732" stroke="black" stroke-width="0.97272" stroke-miterlimit="10"/>
<path d="M253.876 104.836L270.414 82.1725" stroke="black" stroke-width="0.97272" stroke-miterlimit="10"/>
<path d="M260.653 95.5477L229.058 69.4905" stroke="black" stroke-width="0.97272" stroke-miterlimit="10"/>
<path d="M236.933 103.396C240.897 104.478 244.707 106.259 248.171 108.648" stroke="black" stroke-width="0.97272" stroke-miterlimit="10"/>
<path d="M262.252 171.732C264.977 172.136 267.733 172.278 270.486 172.259C273.136 172.239 275.793 171.891 278.439 171.981C280.961 172.068 283.466 172.741 285.764 173.951C287.237 174.726 288.647 175.728 290.229 176.119C291.81 176.51 293.678 176.132 294.624 174.61C295.663 175.591 297.552 175.429 298.771 174.785C299.011 174.658 299.252 174.498 299.515 174.495C299.803 174.492 300.064 174.677 300.327 174.812C301.307 175.315 302.754 175.233 303.576 174.437C304.398 173.642 304.193 172.56 303.941 171.352" stroke="black" stroke-width="0.97272" stroke-miterlimit="10"/>
<path d="M303.997 171.688C304.8 168.635 303.808 165.393 302.423 162.557C301.715 161.107 300.227 157.937 300.227 157.937" stroke="black" stroke-width="0.97272" stroke-miterlimit="10"/>
<path d="M303.613 63.4605C309.109 63.1657 314.609 62.5695 320.105 62.8817C328.184 63.3408 337.45 65.9429 340.675 73.9668C344.135 82.5764 344.687 92.0147 345.174 107.493L312.436 104.897L311.885 83.9771" fill="#8668BC"/>
<path d="M312.187 95.5429L344.826 98.4173" stroke="black" stroke-width="0.97272" stroke-miterlimit="10"/>
<path d="M295.906 31.8538L283.375 52.8733C283.375 52.8733 283.655 65.364 294.227 70.1138C302.538 73.848 309.697 68.8132 309.697 68.8132L314.886 58.3545" fill="#FFB5A1"/>
<path d="M337.789 31.1024C337.789 31.1024 345.429 49.8098 345.429 60.6508L313.928 58.003L312.996 31.7765" fill="#FFEAC5"/>
<path d="M334.248 40.9575C335.255 37.1065 335.238 33.0366 333.616 29.3364C331.528 24.572 326.821 20.9904 322.11 19.0693C314.375 15.9138 306.804 21.5848 302.523 27.673C299.234 32.3508 297.188 36.6065 297.354 42.436C297.621 51.9151 303.805 64.2405 314.239 64.8124C320.054 65.1315 324.963 61.6034 327.407 56.7136C329.852 51.8227 332.8 46.4952 334.248 40.9575Z" fill="#FFB5A1"/>
<path d="M326.074 44.4218C325.874 45.7359 325.825 47.0724 325.93 48.3973C326.01 49.4099 326.179 50.4283 326.055 51.4361C325.93 52.4448 324.835 53.0197 323.436 52.8407" stroke="black" stroke-width="0.97272" stroke-miterlimit="10"/>
<path d="M317.943 43.0949C317.555 44.1396 316.592 44.7466 315.793 44.4489C314.993 44.1523 314.66 43.0638 315.049 42.0191C315.437 40.9744 316.4 40.3674 317.199 40.6651C317.999 40.9617 318.331 42.0502 317.943 43.0949Z" fill="black"/>
<path d="M331.658 45.7549C331.27 46.7996 330.307 47.4065 329.507 47.1089C328.708 46.8122 328.375 45.7237 328.763 44.679C329.151 43.6343 330.114 43.0274 330.914 43.325C331.713 43.6217 332.046 44.7102 331.658 45.7549Z" fill="black"/>
<path d="M321.164 36.5366C320.824 35.7624 320.017 35.2867 319.2 35.0737C317.404 34.6048 315.46 35.1865 313.93 36.2361" stroke="black" stroke-width="0.97272" stroke-miterlimit="10"/>
<path d="M330.015 38.2713C331.559 37.5077 333.187 38.4104 333.754 40.5173" stroke="black" stroke-width="0.97272" stroke-miterlimit="10"/>
<path d="M298.118 49.2239C299.037 57.4736 304.799 62.594 311.867 65.0958" stroke="black" stroke-width="0.97272" stroke-miterlimit="10"/>
<path d="M319.848 52.1343C319.211 53.5953 318.563 56.4736 320.879 56.7119C321.817 56.8082 322.792 56.4444 323.437 55.7557" stroke="black" stroke-width="0.97272" stroke-miterlimit="10"/>
<path d="M340.239 32.8413C340.922 26.186 337.5 22.6638 333.752 19.1289C330.239 10.2528 326.096 6.37751 317.545 4.93692C310.402 3.73366 297.304 7.48739 289.932 15.7448C275.57 31.8307 274.374 44.4216 274.374 44.4216L303.388 56.7274C303.388 56.7274 304.18 34.8986 303.234 34.1487C303.234 34.1487 318.323 31.1585 329.094 24.6199C334.142 28.2219 335.938 36.6505 333.402 43.7173C333.402 43.7173 339.231 42.6765 340.239 32.8413Z" fill="#FFEAC5"/>
<path d="M306.914 37.2661C307.254 34.3508 303.525 31.4152 300.737 31.9093C294.033 33.098 294.655 44.5566 300.451 46.5867C302.091 47.1616 304.593 46.9106 305.443 45.1616" fill="#FFB5A1"/>
<path d="M299.588 36.7875L304.419 42.5091" stroke="black" stroke-width="0.97272" stroke-miterlimit="10"/>
<path d="M305.353 33.6554C306.273 34.5269 306.914 35.6893 307.157 36.9334" stroke="black" stroke-width="0.97272" stroke-miterlimit="10"/>
<path d="M298.595 45.4002C299.505 46.3282 300.595 47.1452 301.868 47.4059C303.14 47.6666 304.613 47.2532 305.315 46.1608" stroke="black" stroke-width="0.97272" stroke-miterlimit="10"/>
<path d="M286.367 13.6519C304.276 23.5892 322.707 33.7084 343.124 36.8017C343.124 36.8017 341.682 31.7445 341.682 28.7174C341.682 25.6903 339.973 15.1907 338.367 12.8611C334.244 6.88177 319.196 -0.544943 312.133 0.0318803C305.07 0.608703 297.228 7.38272 294.227 9.40112C290.799 11.7084 286.367 13.6519 286.367 13.6519Z" fill="#D3B17A"/>
<path d="M293.474 10.0403C301.222 15.0381 309.846 18.4884 318.409 21.9075C320.346 22.6808 322.282 23.4541 324.219 24.2274" stroke="black" stroke-width="0.97272" stroke-miterlimit="10"/>
<path d="M329.032 26.206C333.208 27.6203 337.868 28.9889 341.812 29.5638" stroke="black" stroke-width="0.97272" stroke-miterlimit="10"/>
<path d="M343.826 107.423L336.499 106.585C332.759 96.4148 328.765 86.3384 324.519 76.369L305.598 87.7284C307.34 96.051 307.64 106.114 309.381 114.436C311.01 122.22 315.962 140.394 327.396 140.772C334.465 141.005 338.788 136.523 341.611 130.49C345.087 123.07 343.723 115.289 343.826 107.423Z" fill="#FFB5A1"/>
<path d="M329.086 87.7298C327.409 83.0063 326.054 78.1621 324.057 73.5573C322.647 70.3065 320.791 67.2424 318.501 64.5363C316.242 61.8681 313.427 59.1377 310.187 57.736C308.065 56.8178 305.834 57.6329 303.842 58.4811C302.67 58.9801 301.497 59.4801 300.325 59.9791C300.098 60.0754 299.855 60.1873 299.737 60.4032C299.491 60.8584 299.954 61.3701 300.393 61.6454C301.07 62.0704 301.572 61.9527 302.342 62.1628C301.624 62.3146 300.938 62.872 300.559 63.299C299.995 63.9332 299.973 64.2581 300.126 65.116C299.306 65.0372 298.53 65.4312 298.082 66.1267C297.644 66.8076 297.543 67.6597 297.621 68.4661C297.642 68.6781 297.671 68.9038 297.577 69.0945C297.462 69.3269 297.199 69.4378 296.973 69.5652C292.432 72.1089 296.48 78.3752 299.078 80.769C299.26 80.9373 299.456 81.1075 299.695 81.1688C300.126 81.2778 300.578 80.9879 300.801 80.6037C301.024 80.2195 301.071 79.7603 301.111 79.3177C304.02 85.4118 302.112 90.9797 307.087 95.5456" fill="#FFB5A1"/>
<path d="M318.501 64.5352C316.242 61.867 313.427 59.1366 310.187 57.7349C308.066 56.8167 307.202 57.3419 307.202 57.3419" stroke="black" stroke-width="0.97272" stroke-miterlimit="10"/>
<path d="M301.94 62.1787C304.127 61.7079 305.003 61.385 307.234 61.7011C309.47 62.0182 312.013 63.6368 313.449 65.305" stroke="black" stroke-width="0.97272" stroke-miterlimit="10"/>
<path d="M300.125 65.1166C300.125 65.1166 302.67 65.0991 305.637 66.4736C307.383 67.2819 309.449 69.0775 309.449 69.0775" stroke="black" stroke-width="0.97272" stroke-miterlimit="10"/>
<path d="M297.577 69.095C299.174 69.2905 300.744 69.7467 302.155 70.5268C303.482 71.2603 304.526 72.3556 305.6 73.4051" stroke="black" stroke-width="0.97272" stroke-miterlimit="10"/>
<path d="M301.11 79.3184L297.754 73.5833" stroke="black" stroke-width="0.97272" stroke-miterlimit="10"/>
<path d="M336.5 106.586L340.558 119.996" stroke="black" stroke-width="0.97272" stroke-miterlimit="10"/>
<path d="M307.331 95.5433C308.188 97.4596 309.045 99.3749 309.902 101.291" stroke="black" stroke-width="0.97272" stroke-miterlimit="10"/>
<path d="M74.8397 202.918C74.8397 202.918 71.2173 222.849 73.9283 234.644C77.0303 248.137 94.2358 286.26 94.2358 286.26L70.6055 338.021L101.983 351.377C101.983 351.377 129.465 304.725 131.885 296.547C134.305 288.369 134.29 273.198 126.125 253.55C118.623 235.495 105.955 210.615 105.955 210.615" fill="#FFCBA4"/>
<path d="M106.081 347.241L71.3617 333.788L60.1375 356.772L119.21 380.642C122.421 364.079 101.798 360.244 106.081 347.241Z" fill="#19181E"/>
<path d="M61.978 352.925L119.554 376.12" stroke="#68534E" stroke-width="0.97272" stroke-miterlimit="10"/>
<path d="M112.832 363.125C112.832 363.125 107.057 363.675 103.69 369.731" stroke="#68534E" stroke-width="0.97272" stroke-miterlimit="10"/>
<path d="M105.205 354.042L99.4666 357.354" stroke="#68534E" stroke-width="0.97272" stroke-miterlimit="10"/>
<path d="M107.851 357.532L102.112 360.844" stroke="#68534E" stroke-width="0.97272" stroke-miterlimit="10"/>
<path d="M114.49 352.736C114.778 352.985 115.055 353.28 115.163 353.682C115.351 354.381 114.955 355.22 114.397 355.695C113.838 356.171 113.156 356.362 112.495 356.51C110.793 356.893 105.135 354.021 105.135 354.021C105.135 354.021 112.415 350.939 114.49 352.736Z" stroke="#68534E" stroke-width="0.97272" stroke-miterlimit="10" stroke-linejoin="round"/>
<path d="M111.013 344.857C111.387 344.724 111.786 344.624 112.142 344.736C112.76 344.93 113.069 345.728 113.012 346.487C112.955 347.245 112.612 347.968 112.256 348.648C111.337 350.403 105.394 354.071 105.394 354.071C105.394 354.071 108.315 345.813 111.013 344.857Z" stroke="#68534E" stroke-width="0.97272" stroke-miterlimit="10" stroke-linejoin="round"/>
<path d="M81.0551 360.611L75.8521 346.821" stroke="#68534E" stroke-width="0.97272" stroke-miterlimit="10"/>
<path d="M74.1673 357.836L70.6052 348.396" stroke="#68534E" stroke-width="0.97272" stroke-miterlimit="10"/>
<path d="M156.29 197.275C156.29 197.275 172.589 225.996 175.869 232.272C179.149 238.547 189.548 255.685 195.572 272.096C201.596 288.509 215.653 339.86 215.653 339.86L179.842 347.885L157.493 276.028C157.493 276.028 127.46 238.307 118.557 221.673C112.469 210.298 112.934 188.518 113.578 183.122" fill="#FFCBA4"/>
<path d="M214.555 335.82L178.627 345.596L183.234 370.757L244.945 354.911C237.699 339.675 218.824 348.826 214.555 335.82Z" fill="#19181E"/>
<path d="M182.43 366.57L242.536 351.068" stroke="#68534E" stroke-width="0.97272" stroke-miterlimit="10"/>
<path d="M229.416 344.596C229.416 344.596 225.093 348.466 225.978 355.338" stroke="#68534E" stroke-width="0.97272" stroke-miterlimit="10"/>
<path d="M217.886 341.814L215.232 347.885" stroke="#68534E" stroke-width="0.97272" stroke-miterlimit="10"/>
<path d="M222.086 343.052L219.433 349.124" stroke="#68534E" stroke-width="0.97272" stroke-miterlimit="10"/>
<path d="M224.583 335.252C224.962 335.283 225.36 335.355 225.686 335.614C226.252 336.066 226.431 336.976 226.263 337.69C226.096 338.404 225.659 338.962 225.217 339.474C224.074 340.793 217.816 341.841 217.816 341.841C217.816 341.841 221.846 335.037 224.583 335.252Z" stroke="#68534E" stroke-width="0.97272" stroke-miterlimit="10" stroke-linejoin="round"/>
<path d="M217.109 330.974C217.33 330.645 217.592 330.329 217.945 330.207C218.558 329.996 219.281 330.456 219.684 331.1C220.088 331.744 220.241 332.53 220.358 333.289C220.661 335.246 218.055 341.726 218.055 341.726C218.055 341.726 215.505 333.345 217.109 330.974Z" stroke="#68534E" stroke-width="0.97272" stroke-miterlimit="10" stroke-linejoin="round"/>
<path d="M202.348 361.433L189.976 353.422" stroke="#68534E" stroke-width="0.97272" stroke-miterlimit="10"/>
<path d="M195.155 363.288L186.686 357.804" stroke="#68534E" stroke-width="0.97272" stroke-miterlimit="10"/>
<path d="M94.2344 286.261L97.2265 292.644" stroke="black" stroke-width="0.97272" stroke-miterlimit="10"/>
<path d="M142.61 170.345L115.278 159.964L74.7592 163.154L68.9462 170.345C68.9462 170.345 59.4641 184.258 64.3403 208.641C69.2166 233.024 77.0373 256.052 77.0373 256.052L181.612 233.027L142.61 170.345Z" fill="#4C4139"/>
<path d="M79.339 167.913C79.339 167.913 69.8569 181.827 74.7332 206.209C79.6094 230.592 87.4301 253.621 87.4301 253.621" stroke="#70635B" stroke-width="0.97272" stroke-miterlimit="10"/>
<path d="M76.3105 213.62L85.7391 211.813C93.8234 210.263 99.5926 203.083 99.365 194.854L98.7454 172.47" stroke="#70635B" stroke-width="0.97272" stroke-miterlimit="10"/>
<path d="M128.874 168.762L137.42 186.934C141.033 195.543 150.145 200.485 159.332 198.815L160.08 198.679" stroke="#70635B" stroke-width="0.97272" stroke-miterlimit="10"/>
<path d="M116.195 229.849C125.566 224.734 133.919 217.764 140.631 209.461" stroke="black" stroke-width="0.97272" stroke-miterlimit="10"/>
<path d="M111.565 216.017C117.624 213.492 123.683 210.966 129.741 208.441" stroke="black" stroke-width="0.97272" stroke-miterlimit="10"/>
<path d="M134.235 126.676C134.235 126.676 154.096 152.432 171.19 148.586C186.827 145.067 212.549 102.265 212.549 102.265L187.553 85.3901L164.474 111.531L149.954 99.4128" fill="#F4B184"/>
<path d="M123.035 82.0114C128.608 82.5211 132.587 83.0084 137.166 86.2641C146.125 92.6325 162.968 106.562 162.968 106.562L140.391 136.05L111.192 110.574" fill="#DD5C3E"/>
<path d="M158.487 102.893C158.071 102.555 137.893 130.958 137.893 130.958" stroke="#F98355" stroke-width="0.97272" stroke-miterlimit="10"/>
<path d="M154.838 99.9174C154.422 99.5789 134.244 127.982 134.244 127.982" stroke="#F98355" stroke-width="0.97272" stroke-miterlimit="10"/>
<path d="M152.907 97.591C152.492 97.2525 132.314 125.656 132.314 125.656" stroke="#F98355" stroke-width="0.97272" stroke-miterlimit="10"/>
<path d="M119.011 78.868L139.721 97.2835C139.721 97.2835 145.673 110.389 145.685 122.101C145.696 133.813 144.542 139.163 144.542 143.003C144.542 146.844 149.698 170.344 149.698 170.344H68.9459C68.9459 170.344 64.9587 134.094 69.2523 114.951C74.6752 90.7721 96.6431 79.6092 96.6431 79.6092" fill="#DD5C3E"/>
<path d="M116.212 89.4095L121.766 113.949" stroke="black" stroke-width="0.97272" stroke-miterlimit="10"/>
<path d="M141.615 102.36C146.78 115.642 145.893 127.982 144.899 137.866" stroke="black" stroke-width="0.97272" stroke-miterlimit="10"/>
<path d="M119.515 111.969C119.515 112.835 118.813 113.538 117.947 113.538C117.081 113.538 116.379 112.835 116.379 111.969C116.379 111.104 117.081 110.401 117.947 110.401C118.813 110.401 119.515 111.104 119.515 111.969Z" fill="black"/>
<path d="M115.722 103.247C116.588 103.247 117.29 102.545 117.29 101.679C117.29 100.813 116.588 100.111 115.722 100.111C114.856 100.111 114.154 100.813 114.154 101.679C114.154 102.545 114.856 103.247 115.722 103.247Z" fill="black"/>
<path d="M101.239 63.0166C101.064 63.1285 92.4075 81.7911 92.4075 81.7911C92.4075 81.7911 100.469 92.9365 115.973 89.3803C120.719 88.2918 121.765 84.5624 121.765 84.5624L122.512 73.1105" fill="#FFCBA4"/>
<path d="M126.023 58.7058C128.544 61.2787 132.672 61.3225 135.245 58.8021C137.818 56.2818 137.861 52.1536 135.341 49.5798C132.821 47.0069 128.692 46.9632 126.119 49.4835C123.546 52.0048 123.503 56.133 126.023 58.7058Z" fill="#27243A"/>
<path d="M137.209 54.8175C139.166 56.8164 142.373 56.8495 144.372 54.8924C146.371 52.9352 146.404 49.7282 144.447 47.7293C142.49 45.7303 139.283 45.6972 137.284 47.6544C135.285 49.6124 135.252 52.8195 137.209 54.8175Z" fill="#27243A"/>
<path d="M146.746 48.4213C148.343 50.0516 150.958 50.0789 152.589 48.4826C154.219 46.8864 154.246 44.2707 152.65 42.6405C151.054 41.0102 148.438 40.983 146.808 42.5792C145.177 44.1754 145.15 46.7911 146.746 48.4213Z" fill="#27243A"/>
<path d="M153.98 40.4555C155.331 41.8358 157.546 41.8581 158.925 40.507C160.305 39.1559 160.328 36.941 158.977 35.5617C157.626 34.1814 155.411 34.1591 154.031 35.5102C152.651 36.8613 152.629 39.0752 153.98 40.4555Z" fill="#27243A"/>
<path d="M151.593 19.9749C153.411 18.0947 158.024 15.372 163.831 17.4624C165.799 18.1705 169.877 20.9467 169.431 23.6567C168.879 27.0087 166.311 29.8227 164.08 32.2331C163.32 33.0541 162.343 33.7661 161.226 33.8362C160.615 33.8741 160.011 33.7175 159.419 33.5619C158.704 33.3741 157.989 33.1864 157.274 32.9977C156.127 32.6952 155.82 27.4542 155.446 26.2451C154.717 23.8872 153.584 21.5235 151.593 19.9749Z" fill="#27243A"/>
<path d="M117.716 40.0508C114.728 37.6725 111.149 36.1084 107.273 36.0967C102.282 36.0802 97.3132 38.8213 93.7988 42.2093C88.0286 47.7733 90.0664 56.6172 93.7482 62.7366C96.5768 67.4378 99.5183 70.8841 104.698 73.0017C113.121 76.4451 126.336 75.8012 130.887 66.8658C133.423 61.8864 132.232 56.2097 128.89 52.168C125.545 48.1244 122.014 43.4709 117.716 40.0508Z" fill="#FFCBA4"/>
<path d="M117.432 49.2138C118.41 50.0329 119.482 50.7381 120.62 51.313C121.491 51.7526 122.409 52.1213 123.174 52.7254C123.939 53.3294 123.865 54.5152 123.021 55.5715" stroke="black" stroke-width="0.97272" stroke-miterlimit="10"/>
<path d="M112.713 54.5293C113.376 55.3688 113.394 56.4602 112.752 56.968C112.11 57.4757 111.051 57.2063 110.388 56.3668C109.724 55.5274 109.707 54.436 110.349 53.9282C110.991 53.4214 112.049 53.6909 112.713 54.5293Z" fill="black"/>
<path d="M122.929 46.1313C123.593 46.9708 123.61 48.0621 122.968 48.5699C122.326 49.0777 121.268 48.8082 120.604 47.9688C119.941 47.1293 119.924 46.0379 120.566 45.5302C121.208 45.0224 122.266 45.2918 122.929 46.1313Z" fill="black"/>
<path d="M124.661 58.3338C123.61 58.2366 122.766 59.2521 123.114 60.2501C123.289 60.753 123.611 61.1742 124.188 61.2705C124.942 61.396 125.438 61.0769 125.765 60.6149C126.407 59.7054 125.77 58.436 124.661 58.3338Z" fill="white"/>
<path d="M108.939 48.6197C108.136 48.5118 107.343 48.9369 106.76 49.501C105.481 50.7393 104.989 52.6235 105.086 54.4016" stroke="black" stroke-width="0.97272" stroke-miterlimit="10"/>
<path d="M115.974 43.7478C116.117 42.101 117.669 41.2168 119.679 41.8014" stroke="black" stroke-width="0.97272" stroke-miterlimit="10"/>
<path d="M114.323 26.8223C108.635 23.8458 103.132 24.7484 98.9094 28.1598C89.7571 27.7979 79.0951 35.139 76.3462 41.8265C74.4435 46.4547 74.2257 51.757 75.391 56.604C76.924 62.9841 80.098 69.3301 86.3564 71.7328C90.5362 73.3368 94.1333 73.7901 98.4318 72.7201C98.4318 72.7201 95.8969 63.6407 94.8716 64.1796C94.8716 64.1796 102.938 50.2211 101.38 38.2313C106.5 35.1984 114.594 36.8928 119.81 41.8605C119.81 41.8605 124.93 32.3726 114.323 26.8223Z" fill="#27243A"/>
<path d="M99.606 63.3461C97.6479 61.3219 93.2016 62.3073 91.8749 64.6778C88.6834 70.3779 97.5691 76.8796 102.599 73.8097C104.022 72.941 105.357 70.9314 104.574 69.2369" fill="#FFCBA4"/>
<path d="M94.8 68.4946L101.984 68.3847" stroke="black" stroke-width="0.97272" stroke-miterlimit="10"/>
<path d="M95.9771 62.3105C97.1832 62.1568 98.4361 62.3874 99.508 62.9623" stroke="black" stroke-width="0.97272" stroke-miterlimit="10"/>
<path d="M100.593 74.466C101.834 74.3542 103.104 74.041 104.071 73.255C105.038 72.469 105.626 71.1238 105.241 69.939" stroke="black" stroke-width="0.97272" stroke-miterlimit="10"/>
<path d="M110.95 74.964C115.157 75.8715 119.71 75.3122 123.628 73.4076" stroke="black" stroke-width="0.97272" stroke-miterlimit="10"/>
<path d="M98.9022 55.1596L91.1992 52.3932" stroke="#FFE3A6" stroke-width="0.97272" stroke-miterlimit="10"/>
<path d="M100.47 49.9304L92.814 47.0492" stroke="#FFE3A6" stroke-width="0.97272" stroke-miterlimit="10"/>
<path d="M115.278 38.6858L115.975 32.4215" stroke="#FFE3A6" stroke-width="0.97272" stroke-miterlimit="10"/>
<path d="M82.4357 81.8364C86.0372 81.8364 88.9568 78.9168 88.9568 75.3153C88.9568 71.7138 86.0372 68.7942 82.4357 68.7942C78.8342 68.7942 75.9146 71.7138 75.9146 75.3153C75.9146 78.9168 78.8342 81.8364 82.4357 81.8364Z" fill="#27243A"/>
<path d="M73.1797 85.4293C75.977 85.4293 78.2447 83.1617 78.2447 80.3644C78.2447 77.5671 75.977 75.2994 73.1797 75.2994C70.3824 75.2994 68.1147 77.5671 68.1147 80.3644C68.1147 83.1617 70.3824 85.4293 73.1797 85.4293Z" fill="#27243A"/>
<path d="M67.2716 82.7828C67.2716 85.0648 65.4224 86.914 63.1404 86.914C60.8584 86.914 59.0093 85.0639 59.0093 82.7828C59.0093 80.5018 60.8584 78.6517 63.1404 78.6517C65.4224 78.6517 67.2716 80.5008 67.2716 82.7828Z" fill="#27243A"/>
<path d="M56.529 82.1514C56.529 84.0833 54.9629 85.6484 53.0321 85.6484C51.1003 85.6484 49.5352 84.0823 49.5352 82.1514C49.5352 80.2196 51.1012 78.6545 53.0321 78.6545C54.9639 78.6535 56.529 80.2196 56.529 82.1514Z" fill="#27243A"/>
<path d="M43.9052 65.8501C41.2906 65.7781 36.0894 67.0611 33.4038 72.6173C32.4933 74.5005 31.5215 79.3369 33.7364 80.9604C36.4766 82.969 40.2799 83.183 43.5609 83.3435C44.6776 83.399 45.875 83.2229 46.7213 82.4924C47.1843 82.0926 47.5062 81.5576 47.8204 81.0323C48.1998 80.3981 48.5792 79.7639 48.9585 79.1287C49.5665 78.1103 46.1182 74.1503 45.5404 73.0259C44.4101 70.8314 43.5658 68.349 43.9052 65.8501Z" fill="#27243A"/>
<path d="M115.974 89.381C104.701 91.6825 93.7679 78.8679 93.7679 78.8679L88.4082 83.0185C88.4082 83.0185 90.5589 98.3213 103.686 100.198C118.221 102.276 115.974 89.381 115.974 89.381Z" fill="#F98355"/>
<path d="M116.212 89.4092C121.766 86.348 121.999 80.9786 121.999 80.9786C121.999 80.9786 137.571 84.8228 129.82 92.3147C121.559 100.3 116.212 89.4092 116.212 89.4092Z" fill="#F98355"/>
<path d="M212.649 106.348L128.141 122.078L131.137 138.175L215.646 122.444L212.649 106.348Z" fill="#EAA242"/>
<path d="M142.508 119.402L137.583 120.319L140.579 136.415L145.504 135.498L142.508 119.402Z" fill="#D8892B"/>
<path d="M158.293 116.465L153.368 117.382L156.364 133.478L161.289 132.561L158.293 116.465Z" fill="#D8892B"/>
<path d="M174.076 113.53L169.151 114.447L172.147 130.543L177.072 129.626L174.076 113.53Z" fill="#D8892B"/>
<path d="M189.86 110.592L184.935 111.509L187.932 127.605L192.856 126.688L189.86 110.592Z" fill="#D8892B"/>
<path d="M205.649 107.648L200.724 108.565L203.72 124.661L208.645 123.744L205.649 107.648Z" fill="#D8892B"/>
<path d="M216.875 55.7379L132.366 71.4688L135.363 87.5649L219.871 71.834L216.875 55.7379Z" fill="#FFD652"/>
<path d="M146.733 68.7932L141.808 69.7099L144.804 85.8061L149.729 84.8893L146.733 68.7932Z" fill="#F4B251"/>
<path d="M162.518 65.8547L157.593 66.7715L160.589 82.8676L165.514 81.9509L162.518 65.8547Z" fill="#F4B251"/>
<path d="M178.305 62.9163L173.38 63.833L176.376 79.9292L181.301 79.0124L178.305 62.9163Z" fill="#F4B251"/>
<path d="M194.087 59.9823L189.162 60.8991L192.158 76.9952L197.083 76.0785L194.087 59.9823Z" fill="#F4B251"/>
<path d="M209.873 57.045L204.948 57.9618L207.944 74.0579L212.869 73.1411L209.873 57.045Z" fill="#F4B251"/>
<path d="M209.169 73.8267L124.661 89.5576L127.657 105.654L212.166 89.9228L209.169 73.8267Z" fill="#FFD652"/>
<path d="M139.026 86.8853L134.101 87.802L137.097 103.898L142.022 102.981L139.026 86.8853Z" fill="#F4B251"/>
<path d="M154.814 83.9429L149.889 84.8596L152.885 100.956L157.81 100.039L154.814 83.9429Z" fill="#F4B251"/>
<path d="M170.599 81.0039L165.674 81.9206L168.671 98.0167L173.595 97.1L170.599 81.0039Z" fill="#F4B251"/>
<path d="M186.385 78.0654L181.46 78.9822L184.456 95.0783L189.381 94.1616L186.385 78.0654Z" fill="#F4B251"/>
<path d="M202.168 75.1332L197.243 76.0499L200.239 92.146L205.164 91.2293L202.168 75.1332Z" fill="#F4B251"/>
<path d="M219.11 88.4897L134.602 104.221L137.598 120.317L222.106 104.586L219.11 88.4897Z" fill="#EAA242"/>
<path d="M148.971 101.545L144.046 102.462L147.042 118.558L151.967 117.641L148.971 101.545Z" fill="#D8892B"/>
<path d="M164.756 98.6068L159.831 99.5236L162.827 115.62L167.752 114.703L164.756 98.6068Z" fill="#D8892B"/>
<path d="M180.538 95.6734L175.613 96.5901L178.61 112.686L183.534 111.77L180.538 95.6734Z" fill="#D8892B"/>
<path d="M196.326 92.7293L191.401 93.6461L194.397 109.742L199.322 108.825L196.326 92.7293Z" fill="#D8892B"/>
<path d="M212.111 89.7915L207.187 90.7082L210.183 106.804L215.108 105.888L212.111 89.7915Z" fill="#D8892B"/>
<path d="M137.59 120.317L212.656 106.341" stroke="black" stroke-width="1.45908" stroke-miterlimit="10"/>
<path d="M134.482 103.54L211.991 89.1093" stroke="black" stroke-width="1.45908" stroke-miterlimit="10"/>
<path d="M134.644 87.6965L209.176 73.8207" stroke="black" stroke-width="1.45908" stroke-miterlimit="10"/>
<path d="M87.79 91.9386C80.4031 91.7811 80.8914 84.9924 74.8401 89.2335C68.6935 93.5417 65.8639 101.094 63.4904 108.215C57.8263 125.208 53.2312 143.97 54.1844 161.995C54.45 167.004 55.2641 172.19 58.1084 176.323C63.2745 183.829 73.2536 182.695 81.0334 180.84C91.3414 178.381 101.094 173.916 110.722 169.628C119.884 165.547 137.893 156.73 137.893 156.73L125.054 131.124C117.976 135.993 88.7773 145.056 88.9562 144.458L92.1049 110.663" fill="#FFCBA4"/>
<path d="M88.9571 144.457L73.3401 149.462" stroke="black" stroke-width="0.97272" stroke-miterlimit="10"/>
<path d="M88.406 83.3668C88.406 83.3668 82.2302 85.2354 74.6741 88.6934C67.117 92.1515 61.8167 102.297 60.0706 110.413C58.3246 118.53 54.7178 141.078 54.7178 141.078L94.7977 141.991V111.621" fill="#DD5C3E"/>
<path d="M117.948 135.593C121.045 134.702 128.117 127.828 136.885 123.581C139.305 122.409 141.99 120.676 144.419 119.518C146.918 118.327 146.413 120.748 145.684 122.101C144.504 124.29 142.997 126.23 141.032 127.772C141.908 128.408 143.106 128.293 144.165 128.074C147.614 127.36 150.841 125.86 154.163 124.69C157.485 123.52 161.054 122.669 164.515 123.323C164.96 123.408 165.479 123.59 165.586 124.031C165.65 124.294 165.55 124.611 165.726 124.815C165.884 124.999 166.166 124.978 166.403 125.033C167.036 125.179 167.358 125.943 167.254 126.584C167.15 127.225 166.74 127.767 166.354 128.29C164.357 130.992 162.639 133.9 161.236 136.953C160.777 137.953 160.349 138.972 159.773 139.91C159.005 141.156 155.484 144.595 154.451 145.631C145.525 154.579 136.985 157.174 124.6 163.155" fill="#FFCBA4"/>
<path d="M141.008 127.827C137.746 128.309 134.51 128.967 131.319 129.795" stroke="black" stroke-width="0.97272" stroke-miterlimit="10"/>
<path d="M165.519 124.736C163.055 127.327 159.821 129.042 156.555 130.499C154.461 131.433 152.329 132.281 150.165 133.039" stroke="black" stroke-width="0.97272" stroke-miterlimit="10"/>
<path d="M164.649 130.949C160.488 134.11 155.855 136.649 150.952 138.454" stroke="black" stroke-width="0.97272" stroke-miterlimit="10"/>
<path d="M161.388 137.011C159.094 138.871 156.744 140.664 154.344 142.385C153.711 142.84 153.033 143.305 152.256 143.365" stroke="black" stroke-width="0.97272" stroke-miterlimit="10"/>
<path d="M55.6296 135.468L94.7982 136.359" stroke="#F98355" stroke-width="0.97272" stroke-miterlimit="10"/>
<path d="M56.125 132.148L94.7984 133.039" stroke="#F98355" stroke-width="0.97272" stroke-miterlimit="10"/>
<path d="M56.8347 128.367L94.798 129.258" stroke="#F98355" stroke-width="0.97272" stroke-miterlimit="10"/>
<path d="M94.7983 141.99V111.62" stroke="black" stroke-width="0.97272" stroke-miterlimit="10"/>
</svg>
