<svg width="1705" height="1739" viewBox="0 0 1705 1739" fill="none" xmlns="http://www.w3.org/2000/svg">
<path d="M1288.11 1738.89C1269.62 1738.89 1251.04 1737.67 1232.88 1735.26C1197.51 1730.59 1162.85 1721.35 1129.89 1707.8C1107.54 1698.63 1085.8 1687.39 1065.31 1674.4C1064.03 1673.6 1062.79 1672.8 1061.55 1671.98C1016.36 1642.69 977.697 1605.41 946.712 1561.24C945.91 1560.14 945.152 1559.03 944.395 1557.92C896.577 1488.45 871.27 1406.85 871.27 1322.05C871.27 1302.76 872.605 1283.37 875.241 1264.42C882.994 1208.31 901.801 1155.25 931.123 1106.73C959.771 1059.33 996.962 1018.65 1041.66 985.831C1042.53 985.184 1043.52 984.48 1044.5 983.776C1115.71 932.388 1199.97 905.206 1288.11 905.206C1356.27 905.206 1423.9 922.027 1483.69 953.855C1484.72 954.395 1485.85 955.001 1486.98 955.628C1552.02 990.948 1606.76 1043.25 1645.16 1106.8C1684.28 1171.57 1704.96 1246 1704.96 1322.05C1704.96 1361.46 1699.46 1400.45 1688.62 1437.93C1688.12 1439.73 1687.58 1441.52 1687.03 1443.3C1665.7 1513.67 1625.68 1577.54 1571.33 1627.88C1570.53 1628.64 1569.6 1629.5 1568.67 1630.34C1560.2 1638.04 1551.28 1645.52 1542.17 1652.54C1525.84 1665.12 1508.41 1676.59 1490.36 1686.62C1468.14 1698.98 1444.63 1709.35 1420.48 1717.43C1388.33 1728.19 1354.85 1734.97 1320.95 1737.61C1310.11 1738.46 1299.06 1738.89 1288.11 1738.89Z" fill="white"/>
<path d="M1606.1 1400.16C1604.56 1404.12 1441.45 1597.87 1340.84 1597.87C1299.15 1597.87 1074.13 1637.45 1030.02 1593.91C1030.61 1594.52 1029.41 1593.32 1030.02 1593.91L1014.19 1581.36C1013.39 1580.56 1005.72 1564.17 1004.91 1563.35C975.8 1533.67 981.036 1442.03 981.036 1379.28C981.036 1298.86 918.829 1213.5 959.614 1150.73C961.026 1148.55 1006.59 1078.11 1008.05 1075.96C1025.01 1050.92 992.756 1049.43 1014.8 1028.86C1086.4 962.087 1182.48 921.237 1288.11 921.237C1324.58 921.237 1359.93 926.112 1393.52 935.249C1394.05 935.388 1392.08 940.456 1392.62 940.608C1393.14 940.751 1396.16 935.974 1396.68 936.117C1436.92 947.42 1474.61 964.846 1508.66 987.325C1617.27 1059.04 1617.56 1370.56 1606.1 1400.16Z" fill="#C0D48C"/>
<path d="M1155.46 1510.06C1123.95 1554.29 1062.68 1563.62 1018.17 1594.74C1013.46 1598.02 1011.02 1603.68 1006.5 1607.26C975.801 1576.48 949.683 1540.36 929.804 1500.52C929.432 1499.78 930.39 1495.1 930.026 1494.36C929.686 1493.67 928.02 1496.92 927.688 1496.22C902.021 1443.3 887.304 1383.98 887.304 1322.04C887.304 1241.62 910.986 1166.74 951.755 1103.99C951.771 1103.95 951.804 1103.94 951.82 1103.9C952.397 1103.45 952.299 1110.19 952.942 1109.26C953.695 1108.09 955.173 1099.24 956.004 1097.6C956.02 1097.55 956.053 1097.52 956.086 1097.48C973.05 1072.44 992.769 1049.43 1014.81 1028.86C1021.32 1031.92 1027.86 1036.59 1034.41 1043.15C1051.75 1060.54 1057.38 1088.63 1048.05 1111.36C1035.13 1142.88 1000.35 1158.05 974.139 1179.93C973.689 1180.3 973.226 1180.68 972.776 1181.07C972.407 1181.37 972.055 1181.7 971.687 1182.01C965.481 1187.68 959.758 1195.88 963.319 1203.27C968.592 1214.17 984.93 1208.93 995.528 1203.03C996.764 1202.34 998.013 1201.67 999.266 1201C1000.51 1200.34 1001.77 1199.68 1003.03 1199.06C1007.3 1196.89 1011.64 1194.87 1016.03 1193C1017.57 1192.34 1019.13 1191.7 1020.68 1191.09C1034.65 1185.51 1049.19 1181.38 1064 1178.79C1074.02 1177.04 1084.32 1176.03 1094.46 1176.48C1095.74 1176.53 1097.01 1176.61 1098.3 1176.71C1104.66 1177.22 1110.94 1178.35 1117.05 1180.28C1140.25 1187.61 1159.32 1206.83 1166.46 1230.08C1173.6 1253.33 1168.6 1279.94 1153.52 1299.02C1142.78 1312.61 1128.06 1321.8 1112.16 1329.08C1111.15 1329.53 1110.14 1329.99 1109.13 1330.44C1100.26 1334.32 1091.09 1337.67 1082.08 1340.91C1058.31 1349.47 1034.53 1358.03 1010.74 1366.59C1003.91 1369.05 1007.28 1379.4 1014.24 1377.27C1024.85 1374.02 1035.64 1368.56 1045.98 1364.89C1065.15 1358.1 1086.36 1358.28 1105.76 1364.28C1106.79 1364.59 1107.81 1364.93 1108.82 1365.26C1126.56 1371.35 1142.61 1382.35 1153.91 1397.36C1178.11 1429.44 1178.77 1477.3 1155.46 1510.06Z" fill="#6E72FF"/>
<path d="M1688.92 1322.05C1688.92 1337.98 1687.99 1353.69 1686.18 1369.14C1686.07 1370.05 1682.75 1372.34 1682.64 1373.24C1682.59 1373.7 1685.74 1372.77 1685.68 1373.22C1681.53 1405.74 1673.49 1437.04 1662.03 1466.64C1660.49 1470.6 1649.27 1472.22 1647.62 1476.12C1641.88 1471.71 1646.35 1468.74 1640.95 1463.9C1594.67 1422.46 1526.62 1409.23 1485.87 1362.38C1453.29 1324.91 1444.44 1268.43 1464.01 1222.8C1472.72 1202.52 1488.11 1183.41 1509.48 1177.88C1522.98 1174.38 1537.44 1176.64 1551.02 1173.41C1554.1 1172.67 1557.32 1171.51 1559.21 1168.96C1563.01 1163.8 1559.4 1156.62 1555.78 1151.34C1540.23 1128.67 1523.91 1106.28 1512.85 1081.11C1501.79 1055.95 1496.27 1027.35 1503.39 1000.8C1504.64 996.15 1506.32 991.516 1508.66 987.316C1617.27 1059.04 1688.92 1182.18 1688.92 1322.05Z" fill="#6E72FF"/>
<path d="M1112.16 1329.08C1111.4 1324.67 1110.25 1320.25 1108.71 1315.86C1105.3 1306.14 1098.63 1293.3 1086.2 1287.35C1076.16 1282.54 1064.7 1283.23 1053.61 1283.91C1041.41 1284.64 1029.88 1285.35 1020.4 1279.24C1003.39 1268.26 1005.27 1242.46 1006.25 1234.83C1007.53 1224.82 1010.11 1215 1013.84 1205.59C1015.24 1205.87 1016.63 1206.15 1018.04 1206.36C1042.35 1210.19 1068.8 1202.83 1088.81 1186.67C1092.37 1183.8 1095.62 1180.4 1098.29 1176.71C1105.09 1167.27 1107.99 1155.98 1102.3 1146.97C1097.82 1139.9 1088.27 1135.9 1078.54 1137C1068.92 1138.11 1060.42 1143.54 1054.87 1147.52C1038.58 1159.22 1025.23 1175.06 1016.03 1193C1014.55 1195.9 1013.17 1198.86 1011.9 1201.85C1008.87 1201.1 1005.91 1200.17 1003.02 1199.06C992.004 1194.88 982.065 1188.27 974.131 1179.94C969.112 1174.7 964.896 1168.76 961.707 1162.32C951.637 1141.97 952.197 1118.51 956.078 1097.48C956.045 1097.53 956.013 1097.57 955.996 1097.61C954.584 1099.7 953.176 1101.8 951.813 1103.91C951.796 1103.94 951.78 1103.96 951.764 1103.99C948.943 1123.65 949.504 1144.91 958.817 1163.73C962.12 1170.41 966.48 1176.57 971.675 1182.02C979.338 1190.1 988.799 1196.61 999.25 1201C1002.94 1202.56 1006.77 1203.86 1010.68 1204.85C1006.94 1214.37 1004.35 1224.31 1003.07 1234.42C1000.29 1256.08 1006.11 1273.84 1018.67 1281.94C1029.02 1288.61 1041.62 1287.85 1053.79 1287.12C1064.49 1286.46 1075.54 1285.78 1084.8 1290.24C1096.23 1295.72 1102.47 1307.78 1105.69 1316.94C1107.26 1321.44 1108.42 1325.96 1109.12 1330.45C1111.04 1342.49 1109.87 1354.25 1105.75 1364.3C1104.46 1367.46 1102.88 1370.44 1101.01 1373.21C1093.01 1385.04 1079.59 1393.99 1059.95 1400.55C1050.29 1403.77 1040.06 1406.24 1030.16 1408.63C1008.55 1413.85 986.216 1419.26 968.228 1432.84C955.002 1442.81 943.859 1457.56 935.09 1476.67C932.478 1482.37 929.846 1488.97 927.685 1496.23C928.372 1497.67 929.081 1499.1 929.801 1500.53C932.077 1492.11 935.045 1484.48 938.009 1478.01C946.536 1459.38 957.36 1445.05 970.152 1435.38C987.612 1422.22 1009.62 1416.9 1030.91 1411.75C1040.87 1409.34 1051.18 1406.85 1060.96 1403.58C1081.29 1396.79 1095.27 1387.45 1103.67 1375.01C1105.7 1371.98 1107.43 1368.72 1108.81 1365.28C1113.18 1354.49 1114.33 1341.91 1112.16 1329.08ZM1020.68 1191.09C1029.54 1174.99 1041.89 1160.79 1056.73 1150.13C1062.01 1146.35 1070.03 1141.21 1078.9 1140.19C1086.01 1139.37 1095.16 1141.68 1099.59 1148.69C1104.83 1156.98 1101.44 1167.7 1094.46 1176.49C1092.21 1179.31 1089.6 1181.91 1086.79 1184.18C1067.49 1199.79 1041.97 1206.89 1018.54 1203.2C1017.39 1203.01 1016.23 1202.8 1015.08 1202.57C1016.75 1198.66 1018.62 1194.83 1020.68 1191.09Z" fill="#F7EDE5"/>
<path d="M1643.95 1386.64C1604.3 1398.91 1565.52 1398.07 1534.75 1384.32C1527.31 1381 1502.95 1368.42 1502.09 1346.27C1501.6 1332.95 1510.25 1321.07 1517.61 1313.45C1530.36 1300.28 1546.53 1290.62 1562.17 1281.29C1573.82 1274.34 1585.88 1267.16 1596.59 1258.5C1608.47 1248.88 1616.34 1239.15 1620.64 1228.72C1626.05 1215.64 1625.26 1201.15 1618.59 1190.89C1610.65 1178.67 1593.9 1171.87 1575.96 1173.55C1562.01 1174.87 1548.88 1180.38 1536.18 1185.74C1534.53 1186.42 1532.88 1187.12 1531.23 1187.8C1508.11 1197.41 1478.05 1207.3 1450.73 1198.55C1421.95 1189.31 1401.13 1159.17 1401.22 1126.87C1401.27 1108.78 1407.47 1090.74 1418.38 1075.32C1433.23 1084.84 1450.51 1089.38 1467.26 1086.8C1478.31 1085.09 1488.94 1078.64 1494.34 1070.39C1497.89 1064.97 1498.96 1059.07 1497.44 1053.33C1494.5 1042.33 1482.89 1036.33 1472.94 1036.09C1464.06 1035.85 1454.63 1039.17 1444.07 1046.13C1433.69 1052.96 1424.76 1061.44 1417.6 1070.98C1402.48 1060.45 1390.29 1044.41 1384.76 1025.48C1376.76 998.095 1381.14 966.288 1396.69 936.113C1395.65 935.827 1394.59 935.52 1393.53 935.245C1377.87 965.981 1373.5 998.366 1381.68 1026.37C1387.42 1045.98 1400.02 1062.59 1415.72 1073.54C1404.47 1089.49 1398.07 1108.14 1398.02 1126.85C1397.93 1160.52 1419.68 1191.94 1449.76 1201.59C1478.07 1210.68 1508.84 1200.58 1532.47 1190.77C1534.12 1190.08 1535.77 1189.38 1537.44 1188.69C1549.91 1183.44 1562.8 1178.01 1576.25 1176.74C1593.03 1175.17 1608.61 1181.41 1615.9 1192.63C1622.01 1202.01 1622.7 1215.38 1617.68 1227.5C1613.59 1237.41 1606.03 1246.72 1594.58 1255.99C1584.05 1264.5 1572.1 1271.63 1560.54 1278.53C1544.72 1287.98 1528.37 1297.74 1515.32 1311.22C1507.53 1319.29 1498.35 1331.94 1498.9 1346.38C1499.53 1362.58 1512.45 1377.86 1533.45 1387.25C1550.19 1394.72 1569.21 1398.47 1589.4 1398.47C1607.23 1398.47 1625.99 1395.55 1644.91 1389.7C1658.94 1385.38 1672.47 1379.73 1685.69 1373.22C1685.85 1371.96 1686.01 1370.69 1686.16 1369.41C1672.46 1376.24 1658.48 1382.15 1643.95 1386.64ZM1445.82 1048.81C1455.83 1042.22 1464.66 1039.11 1472.85 1039.3C1481.62 1039.51 1491.8 1044.69 1494.32 1054.16C1495.6 1058.99 1494.69 1063.99 1491.66 1068.64C1486.8 1076.05 1476.8 1082.08 1466.76 1083.63C1450.86 1086.1 1434.41 1081.81 1420.25 1072.76C1427.19 1063.57 1435.82 1055.41 1445.82 1048.81Z" fill="#F7EDE5"/>
<path d="M1123.64 1122.14C1102.96 1106.88 1087.28 1085.33 1087.74 1059.71C1088.23 1032.13 1107.29 1003.98 1128.41 986.268C1152.31 966.218 1183.26 954.587 1214.88 950.265C1238.39 947.051 1261.24 948.185 1284.75 950.162C1306.21 951.968 1327.48 960.216 1348.46 965.235C1378.99 972.534 1409.62 979.383 1440.47 984.868C1468.05 989.772 1496.56 997.501 1517.38 1016.28C1549.29 1045.06 1556.02 1097.68 1538.36 1134.76C1517.15 1179.31 1469.73 1199.11 1420.35 1197.28C1381.27 1195.84 1343.73 1183.44 1306.06 1173.48C1270.93 1164.19 1235.34 1157.37 1199.37 1151.85C1171.79 1147.63 1145.79 1138.48 1123.64 1122.14Z" fill="#E36352"/>
<path d="M1466.08 1172.71C1460.28 1166 1451.57 1161.54 1442.71 1161.97C1439.75 1162.11 1436.89 1162.75 1434.11 1163.79C1434.37 1160.19 1434.5 1156.56 1434.47 1152.88C1433.75 1080.48 1374.47 1022.38 1302.07 1023.11C1229.68 1023.83 1171.58 1083.11 1172.3 1155.5C1172.3 1155.5 1183.34 1278.85 1197.57 1324.84C1204.67 1347.77 1243.99 1366.83 1276.71 1359.22L1287.95 1364.71L1279.51 1396.94C1279.51 1396.94 1270.64 1470.13 1344.01 1458.75C1417.38 1447.37 1435.31 1373.57 1435.31 1373.57C1434.94 1373.95 1428.61 1321.92 1423.05 1275.58C1433.66 1274.47 1443.8 1267.26 1451.45 1259.24C1467.35 1242.58 1478.51 1219.88 1475.96 1197C1474.99 1188.18 1471.89 1179.42 1466.08 1172.71Z" fill="#BA685F"/>
<g opacity="0.36">
<path d="M1466.08 1172.71C1463.18 1169.36 1459.56 1166.57 1455.57 1164.67C1451.55 1162.77 1447.15 1161.76 1442.71 1161.97C1439.75 1162.11 1436.89 1162.75 1434.11 1163.79C1434.37 1160.19 1434.5 1156.56 1434.47 1152.88C1433.75 1080.48 1374.47 1022.38 1302.07 1023.11C1229.68 1023.83 1171.58 1083.11 1172.3 1155.5C1172.3 1155.5 1183.34 1278.85 1197.57 1324.84C1204.67 1347.77 1243.99 1366.83 1276.71 1359.22L1287.95 1364.71L1279.51 1396.94C1279.51 1396.94 1270.64 1470.13 1344.01 1458.75C1417.38 1447.37 1435.31 1373.57 1435.31 1373.57C1434.94 1373.95 1428.61 1321.92 1423.05 1275.58C1433.66 1274.47 1443.8 1267.26 1451.45 1259.24C1467.35 1242.58 1478.51 1219.88 1475.96 1197C1474.99 1188.18 1471.89 1179.42 1466.08 1172.71Z" fill="#412945"/>
</g>
<path d="M1276.72 1359.22L1372.78 1338.48L1279.51 1396.93L1276.72 1359.22Z" fill="#412945"/>
<path d="M1295.68 1201.48C1296.49 1210.42 1302.59 1217.18 1309.3 1216.56C1316.01 1215.95 1320.78 1208.21 1319.97 1199.26C1319.15 1190.32 1313.05 1183.57 1306.35 1184.18C1299.64 1184.79 1294.87 1192.54 1295.68 1201.48Z" fill="#412945"/>
<path d="M1201.14 1212.11C1201.95 1221.06 1208.05 1227.81 1214.76 1227.2C1221.46 1226.59 1226.24 1218.84 1225.43 1209.9C1224.61 1200.95 1218.51 1194.2 1211.81 1194.81C1205.1 1195.43 1200.32 1203.17 1201.14 1212.11Z" fill="#412945"/>
<path d="M1270.84 1276.41C1253.1 1279.92 1240.62 1254.55 1240.07 1253.4C1239.4 1252.02 1239.98 1250.36 1241.36 1249.69C1242.73 1249.03 1244.4 1249.6 1245.07 1250.98C1245.2 1251.23 1257.32 1275.89 1271.95 1270.33C1286.66 1264.72 1281.65 1242.13 1281.59 1241.9C1281.25 1240.4 1282.18 1238.91 1283.67 1238.56C1285.17 1238.25 1286.66 1239.15 1287 1240.64C1287.27 1241.76 1293.18 1268.19 1273.93 1275.52C1272.88 1275.92 1271.85 1276.21 1270.84 1276.41Z" fill="#412945"/>
<path d="M1173.1 1139.7C1173.1 1139.7 1152.6 1050.8 1227.32 1030.52C1302.03 1010.23 1403.94 1012.2 1428.18 1040.56C1452.43 1068.91 1455.57 1164.67 1455.57 1164.67C1455.57 1164.67 1432.57 1157.16 1415.16 1178.96C1402.87 1194.34 1402 1208.7 1402 1208.7C1402 1208.7 1389.4 1187.72 1381.1 1156.21C1372.81 1124.7 1376.52 1086.68 1376.52 1086.68C1376.52 1086.68 1349.14 1091.4 1289.59 1101.09C1230.04 1110.78 1188.22 1098.32 1188.22 1098.32C1188.22 1098.32 1174.22 1127.96 1173.1 1139.7Z" fill="#F8BDFF"/>
<path d="M1425.82 1243.81C1425.46 1243.88 1425.08 1243.88 1424.7 1243.8C1423.2 1243.47 1422.24 1242 1422.57 1240.49C1424.86 1229.91 1427.49 1218.72 1432.22 1208.49C1437.57 1196.91 1445.13 1187.9 1454.08 1182.42C1455.39 1181.61 1457.09 1182.03 1457.9 1183.33C1458.7 1184.64 1458.29 1186.35 1456.98 1187.15C1448.96 1192.06 1442.15 1200.24 1437.26 1210.82C1432.76 1220.55 1430.31 1230.96 1428 1241.67C1427.75 1242.79 1426.87 1243.6 1425.82 1243.81Z" fill="#412945"/>
<path d="M1199.13 1165.67C1195.66 1167.17 1192.59 1169.12 1190.42 1171.12C1188.32 1173.07 1186.54 1175.43 1186.29 1178.06C1185.77 1183.75 1192.91 1185.98 1198.49 1186.07C1209.84 1186.24 1235.63 1180.59 1222.79 1167.13C1217.1 1161.16 1207.09 1162.23 1199.13 1165.67Z" fill="#F8BDFF"/>
<path d="M1315.87 1154.37C1319.59 1154.98 1323.05 1156.13 1325.64 1157.55C1328.15 1158.93 1330.45 1160.79 1331.32 1163.28C1333.21 1168.67 1326.83 1172.57 1321.43 1174.01C1310.47 1176.93 1284.08 1177.7 1293.27 1161.53C1297.34 1154.36 1307.31 1152.97 1315.87 1154.37Z" fill="#F8BDFF"/>
<path d="M1172.69 1143.48C1172.69 1143.48 1180.39 1094.79 1267.99 1084.97C1355.59 1075.14 1466.11 1137.36 1466.11 1137.36L1487.39 1065.32L1467.75 1008.83L1313.83 981.81L1203.31 1002.28L1112.84 1039.26L1172.69 1143.48Z" fill="#E36352"/>
<path d="M1662.04 1466.64C1638.71 1526.93 1601.24 1580.15 1553.67 1622.25C1553.22 1622.66 1548.43 1611.39 1547.98 1611.79C1547.56 1612.15 1551.48 1624.2 1551.06 1624.56C1480.66 1685.79 1388.72 1722.86 1288.11 1722.86C1246.42 1722.86 1206.2 1716.49 1168.4 1704.68C1168.04 1704.57 1166.01 1691.92 1165.65 1691.81C1164.93 1691.58 1165.88 1703.87 1165.16 1703.63C1104.77 1684.2 1050.61 1650.8 1006.5 1607.26C1026.62 1561.65 1056.03 1507.7 1089.92 1484.89C1153.78 1441.9 1266.76 1418.58 1266.76 1418.58L1274.13 1382.97L1278.4 1381.83L1283.87 1380.36L1322.57 1369.95L1430.98 1340.82L1438.68 1338.76L1452.2 1392.78C1452.2 1392.78 1563.94 1380.5 1632.72 1438.22C1643.66 1447.41 1653.4 1457.01 1662.04 1466.64Z" fill="#412945"/>
<path d="M1168.4 1704.68C1167.32 1704.34 1166.23 1703.99 1165.16 1703.63L1162 1601.6L1165.21 1601.51L1168.4 1704.68Z" fill="#F7EDE5"/>
<path d="M1523.71 1531.05L1553.68 1622.25C1552.81 1623.04 1551.94 1623.79 1551.06 1624.56L1520.66 1532.06L1523.71 1531.05Z" fill="#F7EDE5"/>
<path d="M421.86 1738.89C403.373 1738.89 384.792 1737.67 366.633 1735.26C331.255 1730.59 296.598 1721.35 263.632 1707.8C241.281 1698.63 219.548 1687.39 199.051 1674.4C197.778 1673.6 196.537 1672.8 195.297 1671.98C150.107 1642.69 111.442 1605.41 80.4574 1561.24C79.6551 1560.14 78.8978 1559.03 78.1445 1557.92C30.3265 1488.45 5.01953 1406.85 5.01953 1322.05C5.01953 1302.76 6.35407 1283.37 8.99038 1264.42C16.7438 1208.31 35.55 1155.25 64.877 1106.73C93.5244 1059.33 130.715 1018.65 175.418 985.831C176.286 985.184 177.272 984.48 178.255 983.776C249.464 932.388 333.72 905.206 421.864 905.206C490.024 905.206 557.655 922.027 617.443 953.855C618.474 954.395 619.6 955.001 620.73 955.628C685.774 990.948 740.519 1043.25 778.909 1106.8C818.032 1171.57 838.709 1246 838.709 1322.05C838.709 1361.46 833.211 1400.45 822.371 1437.93C821.872 1439.73 821.336 1441.52 820.783 1443.3C799.455 1513.67 759.435 1577.54 705.088 1627.88C704.282 1628.64 703.352 1629.5 702.423 1630.34C693.953 1638.04 685.029 1645.52 675.921 1652.54C659.591 1665.12 642.16 1676.59 624.111 1686.62C601.891 1698.98 578.381 1709.35 554.233 1717.43C522.085 1728.19 488.599 1734.97 454.704 1737.61C443.864 1738.46 432.811 1738.89 421.86 1738.89Z" fill="white"/>
<path d="M796.776 1462.67C789.882 1480.93 782.01 1498.21 773.286 1514.49C748.867 1560.05 703.272 1586.25 667.551 1616.53C528.121 1734.82 336.865 1727.71 195.552 1629.6C164.985 1608.38 127.168 1597.26 103.449 1566.16C72.4438 1525.5 47.0468 1477.2 32.7763 1419.71C28.9774 1404.36 70.2906 1388.36 67.9981 1371.9C55.5411 1274.32 129.063 1216.49 185.9 1136.12C268.387 1019.8 295.016 922.391 413.638 921.286C438.728 921.045 463.773 923.227 488.413 927.668C488.953 927.758 487.782 933.055 488.323 933.15C488.842 933.244 491.069 928.135 491.589 928.229C523.094 934.128 553.923 943.683 583.279 956.496C617.956 971.63 583.873 1029.56 613.245 1053.84C613.326 1053.91 614.702 1059.52 616.642 1067.66C616.962 1068.98 617.301 1070.36 617.637 1071.79C620.413 1083.37 624.003 1098.45 626.856 1110.34C627.114 1111.43 627.368 1112.51 627.609 1113.53C629.902 1123.07 631.568 1129.9 631.666 1129.98C694.225 1182.01 678.047 1098.83 698.393 1187.28C698.409 1187.33 699.531 1189.51 701.07 1192.44C701.553 1193.37 702.065 1194.38 702.609 1195.42C705.577 1201.1 709.007 1207.69 709.024 1207.75C713.928 1224.88 716.032 1248.78 716.863 1271.96C716.912 1273.24 716.945 1274.54 716.974 1275.83C717.453 1291.92 717.375 1307.46 717.215 1319.9C716.941 1342.01 722.586 1357.17 718.849 1378.85C716.122 1394.71 749.134 1413.21 773.2 1430.83C774.707 1431.92 776.184 1433.03 777.609 1434.11C790.795 1444.22 800.063 1453.97 796.776 1462.67Z" fill="#E36352"/>
<path d="M409.852 998.387C395.807 1024.04 373.861 1045.84 346.843 1057.05C319.829 1068.26 287.714 1068.11 262.03 1054.1C257.572 1051.66 252.377 1048.74 247.715 1050.79C245.021 1051.98 243.24 1054.59 241.865 1057.21C236.478 1067.32 234.812 1078.76 235.516 1090.25C235.581 1091.34 235.659 1092.45 235.774 1093.54C236.576 1101.59 238.484 1109.62 241.034 1117.21C243.04 1123.24 245.426 1129.12 247.944 1134.95C248.378 1135.93 248.796 1136.91 249.225 1137.87C254.531 1149.93 260.241 1161.82 264.31 1174.33C270.611 1193.73 272.76 1215.12 266.218 1234.44C259.676 1253.75 243.277 1270.43 223.108 1273.51C219.293 1274.08 215.555 1274.19 211.871 1273.92C210.782 1273.86 209.705 1273.75 208.633 1273.6C182.163 1270.09 158.563 1247.87 131.803 1239.66C124.606 1237.46 115.048 1237.18 111.408 1243.77C109.853 1246.59 109.869 1249.99 110.078 1253.2C111.809 1280.55 123.464 1306.17 129.703 1332.83C129.961 1333.94 130.215 1335.06 130.44 1336.2C130.665 1337.24 130.874 1338.28 131.066 1339.34C135.794 1364.43 134.21 1392.17 117.213 1410.77C98.8694 1430.79 67.0167 1433.84 41.7629 1423.9C38.574 1422.65 35.4955 1421.27 32.544 1419.78C30.796 1412.82 29.224 1405.78 27.8609 1398.68C27.693 1397.85 31.8685 1391.7 31.7171 1390.87C31.5902 1390.18 27.1363 1394.81 27.0094 1394.13C22.7602 1370.73 20.5332 1346.64 20.5332 1322.03C20.5332 1139.32 142.766 985.185 309.918 936.913C310.434 936.765 310.438 945.211 310.954 945.063C311.498 944.908 312.558 936.159 313.111 936.012C345.177 927.035 378.876 921.95 413.651 921.295C416.361 925.528 418.539 930.064 420.095 934.923C426.829 955.903 420.434 979.053 409.852 998.387Z" fill="#6E72FF"/>
<path d="M823.152 1322.03C822.722 1356.99 817.388 1392.01 808.673 1425.43C808.288 1426.9 807.887 1428.38 807.469 1429.84C807.375 1430.24 807.26 1430.62 807.15 1431.03C806.998 1431.57 803.441 1431.94 803.289 1432.48C803.138 1433.01 806.388 1433.7 806.221 1434.23C803.416 1443.87 800.272 1453.34 796.776 1462.67C796.682 1462.72 796.568 1462.77 796.474 1462.82C788.683 1466.65 780.455 1469.55 771.801 1471.28C736.047 1478.42 689.261 1465.43 683.845 1429.39C683.317 1425.82 682.965 1421.9 682.4 1418.09C682.175 1416.5 681.921 1414.95 681.581 1413.42C680.169 1406.72 677.557 1400.88 671.4 1398.5C669.718 1397.84 667.97 1397.55 666.172 1397.55C664.953 1397.55 663.72 1397.68 662.5 1397.9C660.032 1398.34 657.58 1399.17 655.287 1400.1C628.13 1411.16 611.637 1429.02 582.936 1435.07C552.09 1441.56 519.607 1421.28 506.123 1392.79C492.622 1364.29 495.733 1330.05 507.998 1301.02C520.279 1271.98 540.866 1247.29 562.333 1224.19C570.524 1215.38 579.473 1205.18 578.687 1193.17C577.725 1178.7 562.832 1169.04 548.644 1166.11C534.439 1163.19 519.448 1164.5 505.644 1160.05C480.026 1151.76 463.942 1124.19 463.319 1097.27C462.677 1070.36 474.974 1044.58 491.361 1023.24C491.361 1023.23 491.377 1023.21 491.394 1023.19C492.147 1022.22 492.9 1021.25 493.67 1020.29C516.852 991.256 548.39 969.195 583.292 956.501C617.97 971.635 650.612 991.53 679.984 1015.82C680.287 1016.08 680.594 1016.35 680.914 1016.61C744.738 1070.91 791.328 1144.85 811.338 1229.12C811.37 1229.23 811.387 1229.34 811.419 1229.45C819.987 1259.46 823.537 1290.72 823.152 1322.03Z" fill="#6E72FF"/>
<path d="M313.112 936.007C312.039 936.294 310.979 936.601 309.923 936.904C310.148 948.943 306.443 961.723 299.116 972.801C289.446 987.423 274.279 999.528 252.751 1009.84C246.979 1012.6 240.937 1015.16 235.099 1017.63C224.116 1022.28 212.752 1027.09 202.44 1033.56C181.407 1046.81 167.263 1066.09 163.657 1086.5C160.689 1103.18 165.63 1120.35 175.696 1132.16C170.599 1137.68 165.851 1143.5 161.507 1149.57C146.23 1170.97 139.606 1191.4 141.805 1210.27C142.558 1216.82 144.867 1225.97 151.552 1232.45C158.126 1238.83 167.103 1241 175.794 1243.12C182.688 1244.8 189.823 1246.55 195.562 1250.38C203.451 1255.67 207.618 1264.36 208.629 1273.6C209.575 1282.06 207.86 1290.98 203.946 1298.1C194.343 1315.54 175.25 1324.58 160.93 1329.08C151.134 1332.16 140.826 1334.16 130.87 1336.1C130.727 1336.14 130.584 1336.15 130.436 1336.19C122.646 1337.71 114.61 1339.26 106.82 1341.37C73.1212 1350.39 44.8545 1369.36 27.0103 1394.11C27.2682 1395.54 27.522 1396.98 27.8126 1398.39C27.829 1398.49 27.8454 1398.57 27.8617 1398.67C45.2557 1373.37 74.0505 1353.46 107.655 1344.46C115.335 1342.4 123.318 1340.82 131.063 1339.33C131.206 1339.3 131.337 1339.29 131.48 1339.25C141.534 1337.3 151.92 1335.28 161.892 1332.15C176.768 1327.47 196.651 1318.03 206.75 1299.63C210.856 1292.16 212.699 1282.87 211.863 1273.92C210.869 1263.56 206.251 1253.68 197.339 1247.72C191.133 1243.57 183.711 1241.76 176.543 1240.01C167.902 1237.89 159.727 1235.9 153.779 1230.13C147.781 1224.33 145.681 1215.91 144.977 1209.89C142.877 1191.83 149.321 1172.18 164.119 1151.45C168.336 1145.55 172.937 1139.89 177.857 1134.55C181.64 1138.43 186.032 1141.6 190.908 1143.83C206.587 1150.97 226.662 1148.89 249.218 1137.87C250.823 1137.1 252.423 1136.28 254.044 1135.42C262.203 1131.06 273.186 1123.92 274.341 1112.44C275.589 1100.16 263.726 1089.97 252.28 1088.51C246.492 1087.77 240.818 1088.62 235.508 1090.26C229.593 1092.07 224.14 1094.84 219.494 1097.47C204.184 1106.11 190.089 1117.09 177.89 1129.82C168.577 1118.74 164.037 1102.7 166.813 1087.05C170.26 1067.54 183.871 1049.03 204.151 1036.29C214.234 1029.94 225.475 1025.18 236.343 1020.58C242.21 1018.09 248.289 1015.53 254.139 1012.72C276.199 1002.17 291.784 989.683 301.789 974.565C309.649 962.681 313.529 948.927 313.112 936.007ZM221.07 1100.26C225.381 1097.84 230.399 1095.27 235.77 1093.54C240.916 1091.89 246.385 1090.99 251.883 1091.68C261.855 1092.96 272.212 1101.67 271.152 1112.12C270.382 1119.69 264.467 1126.2 252.538 1132.59C251.064 1133.38 249.525 1134.18 247.937 1134.95C231.84 1142.81 210.451 1149.19 192.238 1140.92C187.67 1138.83 183.58 1135.86 180.039 1132.21C192.066 1119.62 205.969 1108.79 221.07 1100.26Z" fill="#F7EDE5"/>
<path d="M796.331 1431C788.684 1431.02 780.939 1431.02 773.21 1430.83C758.236 1430.46 743.245 1429.34 728.737 1426.02C727.247 1425.68 725.769 1425.31 724.295 1424.93C723.349 1424.67 722.387 1424.42 721.442 1424.14C720.77 1423.95 720.079 1423.74 719.407 1423.53C719.215 1423.48 719.022 1423.42 718.846 1423.36C712.415 1421.32 706.037 1418.58 699.958 1415.21C694.862 1412.39 689.986 1409.14 685.45 1405.48C680.079 1401.15 675.204 1396.29 671.102 1390.99C670.734 1390.54 670.382 1390.08 670.046 1389.61C661.052 1377.45 656.017 1363.06 657.83 1347.49C659.947 1329.22 671.376 1311.4 691.787 1294.57C698.648 1288.91 706.058 1283.64 713.205 1278.54C714.47 1277.64 715.723 1276.74 716.988 1275.83C726.223 1269.23 735.553 1262.33 743.842 1254.35C750.961 1247.5 766.767 1229.54 759.988 1211.06C754.858 1197.08 739.274 1191.12 727.504 1190.25C718.588 1189.61 709.709 1190.99 701.084 1192.45C700.49 1192.54 699.897 1192.66 699.303 1192.75C695.758 1193.36 692.107 1193.99 688.529 1194.46C663.549 1197.8 641.779 1193.13 627.206 1181.35C622.764 1177.76 618.822 1173.37 615.469 1168.33C609.615 1159.58 605.514 1148.85 603.54 1136.91C602.161 1128.59 602.001 1120.19 602.93 1111.99C607.982 1112.76 613.111 1113.26 618.224 1113.47C620.308 1113.56 622.375 1113.59 624.443 1113.59C625.454 1113.59 626.51 1113.58 627.615 1113.53C642.491 1113.03 666.157 1109.1 678.63 1090.71C685.012 1081.32 685.843 1067.58 680.714 1056.5C676.674 1047.76 669.538 1042.23 661.138 1041.33C654.662 1040.65 647.719 1042.42 639.896 1046.77C630.82 1051.8 622.965 1059.02 616.648 1067.66C614.851 1070.11 613.185 1072.66 611.646 1075.32C605.89 1085.23 601.964 1096.49 600.2 1108.27C599.172 1108.08 598.133 1107.88 597.105 1107.66C595.439 1107.34 593.785 1106.97 592.152 1106.57C582.339 1104.21 572.801 1100.78 563.725 1096.39C562.665 1095.89 561.625 1095.36 560.582 1094.83C559.059 1094.05 557.536 1093.23 556.046 1092.4C554.232 1091.39 552.439 1090.33 550.675 1089.22C548.493 1087.89 546.348 1086.49 544.244 1085.02C540.027 1082.1 535.97 1078.95 532.09 1075.56C520.869 1065.85 511.167 1054.33 503.614 1041.41C502.202 1038.99 500.855 1036.52 499.623 1034.02C497.781 1030.35 496.111 1026.61 494.62 1022.79C494.285 1021.96 493.961 1021.13 493.658 1020.28C493.642 1020.23 493.626 1020.19 493.609 1020.15C492.741 1017.77 491.943 1015.39 491.202 1012.98C487.563 1001.15 485.512 988.852 485.062 976.49C484.996 974.774 484.968 973.043 484.968 971.327C484.968 963.312 485.627 955.28 486.957 947.359C488.046 940.883 489.585 934.468 491.591 928.217C490.535 928.025 489.475 927.832 488.419 927.656C486.462 933.879 484.939 940.228 483.85 946.639C482.52 954.412 481.844 962.285 481.783 970.173C481.766 971.872 481.783 973.587 481.848 975.286C482.168 987.248 483.948 999.156 487.186 1010.67C487.829 1012.94 488.517 1015.2 489.27 1017.43C489.655 1018.59 490.056 1019.71 490.474 1020.85C490.764 1021.63 491.051 1022.44 491.354 1023.22C492.205 1025.47 493.134 1027.68 494.113 1029.87C496.102 1034.37 498.362 1038.76 500.847 1043.02C509.632 1058.08 521.27 1071.24 534.804 1081.98C538.378 1084.84 542.066 1087.5 545.881 1089.98C547.887 1091.3 549.922 1092.56 552.005 1093.76C554.216 1095.06 556.463 1096.3 558.739 1097.47C559.62 1097.94 560.504 1098.38 561.4 1098.82C562.923 1099.57 564.446 1100.29 565.985 1100.98C574.529 1104.81 583.428 1107.84 592.549 1109.96C594.17 1110.34 595.803 1110.7 597.441 1111C598.21 1111.16 598.98 1111.31 599.766 1111.45C598.788 1119.98 598.931 1128.75 600.36 1137.41C602.542 1150.64 607.27 1162.44 614.037 1171.9C617.291 1176.46 621.029 1180.47 625.179 1183.84C640.441 1196.19 663.079 1201.08 688.942 1197.63C692.581 1197.13 696.27 1196.51 699.827 1195.9C700.757 1195.74 701.686 1195.58 702.619 1195.41C710.733 1194.05 719.067 1192.83 727.263 1193.44C738.099 1194.23 752.369 1199.61 756.971 1212.15C763.111 1228.87 748.28 1245.61 741.611 1252.02C734.013 1259.35 725.433 1265.81 716.873 1271.95C715.031 1273.3 713.168 1274.61 711.343 1275.91C704.146 1281.04 696.704 1286.34 689.749 1292.09C668.666 1309.46 656.852 1327.98 654.637 1347.11C652.889 1362.18 657.204 1376.17 665.203 1388.23C665.588 1388.81 665.973 1389.39 666.374 1389.95C671.745 1397.56 678.573 1404.38 686.269 1410.13C688.979 1412.17 691.816 1414.08 694.718 1415.82C702.558 1420.6 710.991 1424.35 719.44 1426.87C719.808 1427 720.193 1427.09 720.562 1427.21C721.139 1427.36 721.7 1427.52 722.277 1427.67C722.952 1427.86 723.624 1428.04 724.311 1428.22C726.444 1428.76 728.593 1429.26 730.743 1429.71C746.135 1432.94 761.924 1433.86 777.623 1434.1C783.891 1434.21 790.146 1434.21 796.347 1434.19C799.618 1434.19 802.906 1434.19 806.226 1434.21H806.242C806.549 1433.14 806.852 1432.08 807.155 1431C803.511 1431 799.905 1431 796.331 1431ZM612.759 1079.88C614.249 1077.07 615.87 1074.36 617.651 1071.78C623.951 1062.53 632.016 1054.83 641.46 1049.58C648.689 1045.55 655.022 1043.9 660.794 1044.53C668.155 1045.31 674.197 1050.04 677.82 1057.85C682.487 1067.93 681.766 1080.42 675.994 1088.92C664.114 1106.4 641.059 1109.95 626.87 1110.34C626.019 1110.37 625.204 1110.39 624.434 1110.39C622.252 1110.41 620.075 1110.36 617.893 1110.26C613.017 1110.05 608.162 1109.56 603.352 1108.8C604.871 1098.56 608.093 1088.71 612.759 1079.88Z" fill="#F7EDE5"/>
<path d="M363.747 1265.64C360.541 1252.34 352.362 1241.09 340.691 1233.96C329.02 1226.8 315.278 1224.64 301.99 1227.85C299.153 1228.54 296.41 1229.45 293.782 1230.57C284.068 1234.7 275.905 1241.72 270.297 1250.9C263.161 1262.57 261 1276.31 264.205 1289.62C267.394 1302.91 275.59 1314.17 287.261 1321.3C295.407 1326.29 304.561 1328.86 313.874 1328.86C317.898 1328.86 321.954 1328.38 325.962 1327.41C339.271 1324.2 350.508 1316.01 357.659 1304.34C361.716 1297.72 364.152 1290.44 364.921 1282.94C365.507 1277.23 365.143 1271.39 363.747 1265.64ZM354.335 1302.32C347.744 1313.09 337.343 1320.67 325.062 1323.62C312.764 1326.59 300.066 1324.59 289.275 1317.98C278.5 1311.39 270.935 1300.99 267.967 1288.7C265.016 1276.42 267.005 1263.71 273.612 1252.94C278.582 1244.79 285.734 1238.49 294.216 1234.61C296.975 1233.36 299.873 1232.35 302.89 1231.63C306.595 1230.73 310.345 1230.28 314.066 1230.28C322.675 1230.28 331.141 1232.66 338.661 1237.26C344.064 1240.56 348.649 1244.81 352.256 1249.77C355.862 1254.74 358.49 1260.4 359.984 1266.55C361.233 1271.75 361.589 1277 361.09 1282.17C360.41 1289.23 358.134 1296.1 354.335 1302.32Z" fill="#B5E1E8"/>
<path d="M766.782 1525.44C735.617 1578.25 512.239 1600.31 432.736 1600.31C354.355 1600.31 147.257 1616.55 123.722 1590.5L139.802 1518.69L141.051 1513.07L153.974 1455.39C153.974 1455.39 154.728 1437.5 167.25 1416.22C167.266 1416.22 167.266 1416.22 167.266 1416.22C170.812 1410.19 175.298 1403.91 180.992 1397.67C201.932 1374.75 320.844 1342.91 364.818 1331.75C365.62 1327.62 366.468 1325.03 366.468 1325.03L379.216 1299.12L371.294 1286.79C370.557 1286.63 369.821 1286.47 369.067 1286.33C367.802 1286.05 366.517 1285.81 365.236 1285.56C341.763 1281.07 316.37 1278.81 309.058 1270.04C303.368 1263.21 300.065 1251.76 298.366 1238.01C298.206 1236.67 298.059 1235.33 297.932 1233.96C292.946 1182.88 308.031 1104.41 308.031 1104.41C308.416 1102.45 308.85 1100.53 309.345 1098.62C314.188 1079.61 324.463 1062.53 338.156 1048.52C366.677 1019.37 410.028 1003.53 450.335 1011.32C511.965 1023.24 552.267 1082.86 540.358 1144.49C539.748 1147.62 539.011 1150.68 538.16 1153.69C540.71 1153.29 543.244 1153.24 545.791 1153.64C548.836 1154.11 551.722 1155.23 554.334 1156.86C556.016 1157.91 557.588 1159.14 559.001 1160.55C559.291 1160.84 559.611 1161.16 559.869 1161.47C559.934 1161.53 559.995 1161.58 560.045 1161.64C561.486 1163.21 562.738 1164.96 563.782 1166.8C567.565 1173.52 568.67 1181.49 567.982 1189.15C566.509 1205.49 557.208 1220.11 544.849 1231.12C543.613 1232.23 542.348 1233.29 541.05 1234.33C539.863 1235.26 538.663 1236.17 537.444 1237.04C537.091 1237.3 536.739 1237.55 536.387 1237.79C534.496 1239.11 532.507 1240.36 530.423 1241.48C529.588 1241.94 528.74 1242.38 527.873 1242.79C521.957 1245.63 515.542 1247.36 509.435 1246.77C507.286 1273 505.009 1301.33 503.777 1317.86C503.667 1319.52 503.552 1321.06 503.442 1322.47C503.36 1323.68 503.282 1324.8 503.216 1325.79C520.193 1331.6 660.175 1379.82 701.681 1407.49C704.485 1409.37 707.212 1411.54 709.872 1413.95C713.176 1416.95 716.332 1420.32 719.411 1424.02C719.411 1424.02 719.411 1424.04 719.427 1424.06C721.077 1426.08 722.698 1428.18 724.303 1430.36C745.921 1460.06 760.417 1503.65 766.782 1525.44Z" fill="#BA685F"/>
<path d="M371.298 1286.79L460.977 1285.52L366.471 1325.03L371.298 1286.79Z" fill="#412945"/>
<path d="M418.945 1160.91C418.011 1169.35 422.388 1176.77 428.725 1177.47C435.057 1178.17 440.952 1171.89 441.886 1163.44C442.819 1155 438.443 1147.58 432.106 1146.88C425.769 1146.18 419.878 1152.46 418.945 1160.91Z" fill="#412945"/>
<path d="M329.273 1152.91C328.34 1161.36 332.716 1168.77 339.053 1169.47C345.386 1170.17 351.28 1163.89 352.214 1155.45C353.147 1147 348.767 1139.59 342.434 1138.89C336.097 1138.19 330.206 1144.47 329.273 1152.91Z" fill="#412945"/>
<path d="M517.269 1220.25C516.95 1220.25 516.626 1220.18 516.315 1220.05C515.095 1219.51 514.543 1218.09 515.079 1216.87C518.853 1208.28 523.025 1199.23 528.817 1191.35C535.367 1182.44 543.35 1176.09 551.901 1172.98C553.15 1172.53 554.534 1173.17 554.988 1174.42C555.442 1175.67 554.796 1177.05 553.547 1177.51C545.892 1180.29 538.683 1186.06 532.698 1194.2C527.192 1201.69 523.307 1210.11 519.488 1218.81C519.095 1219.71 518.202 1220.25 517.269 1220.25Z" fill="#412945"/>
<path d="M361.58 1201.12C361.58 1201.12 368.15 1221.88 385.274 1222.02C402.394 1222.16 410.733 1201.22 410.733 1201.22L361.58 1201.12Z" fill="#F7EDE5"/>
<path d="M551.035 1067.21C533.641 1035.49 501.379 1025.35 497.408 1024.21C484.689 1017.52 437.506 996.372 378.295 1014.07C308.752 1034.86 304.888 1098.32 304.888 1098.32C304.888 1098.32 319.24 1101.06 340.212 1090.12C361.184 1079.17 355.665 1059.48 367.255 1061.12C378.844 1062.76 367.255 1096.13 389.332 1090.12C411.409 1084.1 416.374 1046.35 427.415 1046.35C437.448 1046.35 429.249 1060.36 441.346 1062.5C440.425 1065.08 439.835 1067.91 439.696 1071.04C438.603 1095.6 459.89 1097.23 460.434 1113.61C460.979 1129.98 443.515 1134.34 453.34 1150.18C463.165 1166 478.446 1149.08 491.546 1157.27C504.646 1165.46 485.545 1168.19 492.091 1187.29C498.64 1206.39 510.647 1205.3 510.647 1205.3C510.647 1205.3 501.367 1194.38 504.097 1183.47C506.828 1172.55 518.748 1156.14 538.165 1153.7C557.585 1151.27 565.768 1169.82 565.768 1169.82C565.768 1169.82 569.592 1101.05 551.035 1067.21Z" fill="#412945"/>
<path d="M321.335 1129.04C320.664 1129.04 319.992 1128.76 319.518 1128.21C318.646 1127.21 318.752 1125.69 319.759 1124.81C327.341 1118.24 337.415 1114.98 347.42 1115.87C348.742 1115.99 349.721 1117.16 349.598 1118.49C349.479 1119.81 348.304 1120.77 346.986 1120.67C338.414 1119.9 329.412 1122.8 322.911 1128.45C322.457 1128.84 321.896 1129.04 321.335 1129.04Z" fill="#412945"/>
<path d="M453.285 1138C452.77 1138 452.25 1137.83 451.812 1137.49C444.079 1131.48 434.045 1128.26 424.233 1128.67C422.923 1128.71 421.785 1127.69 421.731 1126.37C421.678 1125.04 422.71 1123.92 424.036 1123.87C434.929 1123.4 446.142 1127 454.759 1133.69C455.807 1134.5 456 1136.02 455.185 1137.06C454.714 1137.68 454.002 1138 453.285 1138Z" fill="#412945"/>
<path d="M773.066 1514.37C771.032 1518.1 768.932 1521.78 766.782 1525.44C735.617 1578.25 692.663 1623.3 641.586 1656.96C640.845 1657.45 636.105 1644.84 635.36 1645.33C634.668 1645.78 637.967 1659.31 637.275 1659.75C574.958 1699.67 500.854 1722.82 421.351 1722.82C342.97 1722.82 269.845 1700.33 208.072 1661.42C207.11 1660.82 208.973 1647.72 208.011 1647.1C207.532 1646.79 204.216 1658.97 203.741 1658.66C174.16 1639.5 147.257 1616.54 123.722 1590.49C116.652 1582.65 109.886 1574.53 103.458 1566.15C114.745 1527.32 131.885 1471.22 145.656 1438.26C145.672 1438.2 145.689 1438.15 145.721 1438.12C150.163 1427.5 154.236 1419.3 157.667 1414.87C157.667 1414.87 158.469 1415 160.025 1415.21C161.629 1415.45 164.065 1415.8 167.254 1416.22C167.27 1416.22 167.27 1416.22 167.27 1416.22C198.742 1420.45 304.347 1433.08 436.424 1432.06C566.705 1431.04 675.371 1418.41 709.872 1413.95C713.978 1413.42 717.024 1413.01 718.948 1412.75C720.52 1412.52 721.322 1412.41 721.322 1412.41C721.322 1412.41 722.317 1414.21 724.065 1417.4C724.065 1417.4 724.081 1417.4 724.081 1417.42C732.535 1432.91 758.587 1481.12 773.066 1514.37Z" fill="#FFC063"/>
<path d="M386.802 1552.27C382.36 1552.27 378.287 1550.72 374.656 1547.65C360.942 1536.05 356.382 1504.27 354.888 1482.18C348.756 1508.56 334.727 1548.69 306.161 1548.7C305.748 1548.7 305.342 1548.69 304.925 1548.67C297.302 1548.36 291.207 1545.2 286.814 1539.27C278.099 1527.51 277.616 1506.58 279.389 1488.29C269.596 1513.11 253.148 1542.38 230.056 1542.38C228.754 1542.38 227.436 1542.29 226.089 1542.1C218.418 1541 212.543 1537.19 208.634 1530.76C200.229 1516.93 202.6 1493.39 206.411 1475.08C194.904 1496 175.692 1522.63 152.493 1522.64C151.409 1522.64 150.316 1522.58 149.214 1522.46C143.209 1521.8 138.706 1518.92 135.84 1513.9C121.672 1489.06 154.082 1416.93 155.469 1413.87C156.018 1412.66 157.443 1412.13 158.65 1412.67C159.862 1413.22 160.394 1414.65 159.85 1415.86C159.522 1416.58 127.055 1488.79 140.016 1511.52C142.104 1515.18 145.28 1517.19 149.73 1517.67C150.651 1517.78 151.568 1517.82 152.477 1517.82C186.565 1517.83 213.264 1449.5 213.538 1448.79C214.009 1447.57 215.384 1446.95 216.612 1447.4C217.844 1447.86 218.487 1449.22 218.053 1450.45C217.861 1451 199.014 1505.68 212.744 1528.26C215.912 1533.47 220.501 1536.44 226.769 1537.34C261.012 1542.28 281.468 1468.91 284.956 1455.34C285.242 1454.15 285.439 1453.39 285.5 1453.15C285.832 1451.88 287.121 1451.1 288.403 1451.42C289.68 1451.74 290.466 1453.02 290.167 1454.3C290.102 1454.6 289.909 1455.4 289.602 1456.62C286.974 1467.77 276.417 1517.17 290.679 1536.41C294.212 1541.18 298.936 1543.62 305.117 1543.87C305.457 1543.88 305.797 1543.89 306.132 1543.89C343.565 1543.89 354.106 1460.06 354.212 1459.2C354.368 1457.93 355.469 1456.98 356.763 1457.09C358.04 1457.17 359.027 1458.25 359.002 1459.53C358.99 1460.2 358.093 1527.35 377.759 1543.98C381.3 1546.97 385.214 1548.02 389.721 1547.18C422.642 1541.05 426.203 1465.07 426.236 1464.3C426.289 1463.01 427.35 1461.99 428.639 1461.99C428.639 1461.99 428.647 1461.99 428.656 1461.99C429.949 1462 431.005 1463.03 431.042 1464.33C431.058 1464.9 432.933 1521.58 451.637 1536.17C455.387 1539.1 459.473 1540.03 464.148 1539C495.464 1532.13 496.635 1457.75 496.643 1457C496.659 1455.74 497.642 1454.71 498.894 1454.63C500.18 1454.55 501.257 1455.45 501.428 1456.7C501.502 1457.24 509.075 1510.66 530.796 1524.56C535.987 1527.88 541.444 1528.6 547.466 1526.77C575.945 1518.1 572.314 1476.21 569.854 1460.37C569.133 1456.84 568.773 1454.53 568.708 1454.12C568.515 1452.84 569.367 1451.64 570.636 1451.39C571.909 1451.16 573.141 1451.96 573.432 1453.22C573.542 1453.69 574.087 1456.12 574.68 1459.84C577.497 1473.31 585.451 1503.97 601.003 1513.55C605.993 1516.63 611.224 1517.21 617.009 1515.32C649.865 1504.63 640.04 1438.42 639.937 1437.75C639.737 1436.44 640.625 1435.22 641.931 1435.01C643.245 1434.8 644.465 1435.68 644.686 1436.98C644.776 1437.51 653.893 1490.28 675.245 1501.89C680.313 1504.64 685.565 1504.78 691.301 1502.3C725.331 1487.61 718.99 1413.38 718.92 1412.63C718.802 1411.3 719.776 1410.13 721.098 1410.02C722.392 1409.9 723.591 1410.87 723.71 1412.19C724.001 1415.39 730.399 1490.66 693.204 1506.72C686.126 1509.78 679.306 1509.57 672.94 1506.11C660.025 1499.09 651.428 1479.68 646.254 1463.33C645.82 1484.79 640.76 1512.65 618.495 1519.9C611.388 1522.21 604.65 1521.45 598.473 1517.64C588.181 1511.3 581.058 1497.36 576.371 1484.14C575.847 1503.07 570.284 1524.85 548.862 1531.37C541.509 1533.62 534.558 1532.68 528.197 1528.6C513.087 1518.93 504.523 1493.33 500.233 1475.6C497.675 1499.44 489.741 1538.31 465.175 1543.7C459.112 1545.03 453.553 1543.77 448.674 1539.96C436.618 1530.55 431.005 1506.9 428.414 1488.54C424.423 1512.86 414.569 1547.44 390.601 1551.9C389.311 1552.15 388.042 1552.27 386.802 1552.27Z" fill="#412945"/>
<path d="M226.331 1577.08L208.07 1661.42C206.625 1660.53 205.167 1659.61 203.743 1658.66L221.62 1576.05C221.906 1574.75 223.175 1573.93 224.489 1574.21C225.787 1574.49 226.602 1575.78 226.331 1577.08Z" fill="#412945"/>
<path d="M641.582 1656.96C640.153 1657.89 638.712 1658.84 637.267 1659.75L615.399 1562.36C615.112 1561.06 615.927 1559.76 617.229 1559.47C618.526 1559.18 619.812 1560 620.098 1561.3L641.582 1656.96Z" fill="#412945"/>
<path d="M574.773 1000.62C528.928 951.502 471.621 935.946 425.772 946.589C382.469 956.643 369.746 994.133 368.661 1002.67C367.114 1003.34 365.742 1004.22 364.371 1004.72C325.895 1018.63 318.117 1058.34 318.117 1058.34C318.117 1058.34 377.471 1021.09 439.69 1043.19C501.91 1065.3 537.111 1156.17 538.748 1185.64C540.386 1215.12 529.742 1241.31 529.742 1241.31C529.742 1241.31 545.298 1246.22 563.306 1233.12C571.399 1227.24 578.657 1215.23 583.836 1201.27C590.922 1197.47 604.083 1188.82 613.245 1173.36C626.349 1151.26 620.618 1049.75 574.773 1000.62Z" fill="#FFC063"/>
<path d="M582.583 1206.5C593.014 1188.87 606.486 1133.94 592.052 1080.85C580.774 1039.38 555.52 1007.54 516.995 986.24C476.23 963.697 440.685 956.729 411.362 965.539C381.278 974.573 369.292 996.925 368.796 997.87C368.42 998.587 368.448 999.401 368.788 1000.07C368.17 1000.29 367.826 1000.42 367.781 1000.44C366.549 1000.93 365.947 1002.32 366.438 1003.56C366.93 1004.79 368.326 1005.39 369.562 1004.91C370.303 1004.62 444.173 976.268 509.364 1031.92C513.008 1035.03 516.34 1038.34 519.431 1041.78C519.549 1042.02 519.684 1042.26 519.885 1042.45C519.942 1042.51 520.429 1042.99 521.273 1043.88C553.285 1081.45 555.18 1135.04 554.304 1158.01C552.888 1195.21 541.966 1229.42 528.334 1239.37C527.262 1240.15 527.024 1241.66 527.81 1242.73C528.281 1243.38 529.014 1243.72 529.755 1243.72C530.246 1243.72 530.741 1243.57 531.171 1243.26C546.129 1232.34 557.62 1197.36 559.11 1158.19C559.765 1141 558.897 1107.1 545.556 1074.94C565.075 1104.56 587.16 1151.72 578.142 1204.89C578.142 1204.9 578.142 1204.91 578.138 1204.92C578.121 1205.03 578.117 1205.13 578.117 1205.24C578.117 1205.29 578.109 1205.35 578.113 1205.4C578.117 1205.49 578.138 1205.59 578.15 1205.68C578.158 1205.74 578.162 1205.8 578.179 1205.86C578.199 1205.95 578.236 1206.03 578.269 1206.12C578.289 1206.18 578.306 1206.24 578.33 1206.29C578.371 1206.38 578.424 1206.46 578.473 1206.54C578.502 1206.59 578.531 1206.65 578.563 1206.69C578.613 1206.76 578.678 1206.83 578.735 1206.89C578.78 1206.94 578.825 1207 578.875 1207.04C578.924 1207.09 578.985 1207.13 579.042 1207.17C579.112 1207.23 579.182 1207.29 579.259 1207.33C579.272 1207.34 579.276 1207.35 579.288 1207.36C579.313 1207.37 579.341 1207.38 579.37 1207.39C579.505 1207.46 579.648 1207.52 579.804 1207.57C579.861 1207.59 579.923 1207.61 579.98 1207.62C580.025 1207.63 580.066 1207.65 580.115 1207.66C580.246 1207.68 580.377 1207.69 580.508 1207.69C580.512 1207.69 580.512 1207.69 580.516 1207.69C580.52 1207.69 580.528 1207.69 580.533 1207.69C580.782 1207.69 581.024 1207.63 581.257 1207.56C581.327 1207.53 581.392 1207.5 581.462 1207.47C581.634 1207.4 581.793 1207.31 581.945 1207.2C581.998 1207.15 582.055 1207.12 582.104 1207.08C582.289 1206.91 582.457 1206.73 582.588 1206.51C582.575 1206.51 582.579 1206.51 582.583 1206.5ZM558.963 1087.45C544.799 1062.25 529.46 1045.44 524.707 1040.51C521.023 1036.21 516.97 1032.1 512.48 1028.27C456.265 980.284 393.792 992.737 374.085 998.398C377.463 993.146 389.379 977.128 412.856 970.115C440.877 961.744 475.129 968.588 514.666 990.453C552.008 1011.11 576.484 1041.95 587.41 1082.12C598.594 1123.24 592.682 1165.3 584.728 1189.37C587.205 1148.02 572.603 1111.72 558.963 1087.45Z" fill="#412945"/>
<path d="M560.347 1275.85C556.867 1261.41 547.554 1249.88 535.499 1243.16C533.91 1242.27 532.277 1241.46 530.59 1240.74C527.815 1239.56 524.933 1238.63 521.981 1237.96C520.987 1237.71 519.992 1237.5 518.985 1237.35C517.253 1237.06 515.505 1236.85 513.741 1236.75C512.713 1236.67 511.673 1236.64 510.63 1236.64C506.655 1236.62 502.614 1237.09 498.574 1238.07C471.126 1244.67 454.178 1272.39 460.785 1299.84C463.528 1311.26 469.922 1320.84 478.453 1327.69C479.141 1328.25 479.849 1328.79 480.57 1329.31C489.162 1335.53 499.634 1339.06 510.564 1339.06C514.523 1339.06 518.547 1338.59 522.558 1337.63C545.999 1331.97 561.776 1310.95 561.776 1287.84C561.776 1283.89 561.309 1279.86 560.347 1275.85ZM550.936 1312.54C544.329 1323.31 533.943 1330.89 521.646 1333.84C509.365 1336.81 496.666 1334.81 485.875 1328.2C484.127 1327.13 482.477 1325.98 480.906 1324.69C480.455 1324.32 480.009 1323.95 479.575 1323.57C472.153 1317.19 466.893 1308.64 464.568 1298.93C461.6 1286.65 463.606 1273.93 470.213 1263.16C476.804 1252.37 487.206 1244.81 499.487 1241.86C502.839 1241.04 506.188 1240.62 509.492 1240.54C509.86 1240.53 510.212 1240.53 510.564 1240.53C510.74 1240.53 510.916 1240.53 511.092 1240.54C512.983 1240.56 514.858 1240.69 516.705 1240.94C517.2 1240.99 517.699 1241.07 518.178 1241.17C521.515 1241.71 524.769 1242.61 527.88 1243.83C529.018 1244.28 530.156 1244.78 531.262 1245.32C543.526 1251.3 553.13 1262.5 556.56 1276.78C559.532 1289.05 557.527 1301.76 550.936 1312.54Z" fill="#B5E1E8"/>
<path d="M732.837 1137.21C737.263 1146.87 736.518 1156.69 731.171 1159.13C725.829 1161.58 717.908 1155.73 713.483 1146.07C709.057 1136.41 709.802 1126.59 715.149 1124.15C720.491 1121.7 728.412 1127.55 732.837 1137.21Z" fill="#F7EDE5"/>
<path d="M340.486 988.006C344.912 997.667 344.167 1007.48 338.82 1009.93C333.478 1012.38 325.557 1006.53 321.132 996.868C316.706 987.207 317.451 977.391 322.798 974.947C328.144 972.499 336.061 978.345 340.486 988.006Z" fill="#F7EDE5"/>
<path d="M240.789 1211.04C245.214 1220.7 244.469 1230.52 239.122 1232.96C233.78 1235.41 225.859 1229.56 221.434 1219.9C217.009 1210.24 217.754 1200.43 223.1 1197.98C228.446 1195.53 236.363 1201.38 240.789 1211.04Z" fill="#F7EDE5"/>
<path d="M81.6846 1272.87C86.1098 1282.53 85.3648 1292.35 80.0185 1294.79C74.6763 1297.24 66.755 1291.39 62.3298 1281.73C57.9045 1272.07 58.6496 1262.25 63.9959 1259.8C69.3381 1257.36 77.2594 1263.21 81.6846 1272.87Z" fill="#F7EDE5"/>
<path d="M105.937 1462.02C110.362 1471.68 109.617 1481.5 104.27 1483.94C98.9282 1486.39 91.007 1480.54 86.5817 1470.88C82.1565 1461.22 82.9015 1451.4 88.2479 1448.96C93.5942 1446.51 101.511 1452.36 105.937 1462.02Z" fill="#F7EDE5"/>
<path d="M777.808 1375.58C782.233 1385.24 781.488 1395.05 776.142 1397.5C770.8 1399.95 762.879 1394.1 758.453 1384.44C754.028 1374.78 754.773 1364.96 760.119 1362.52C765.466 1360.07 773.383 1365.92 777.808 1375.58Z" fill="#F7EDE5"/>
<path d="M633.367 1293.17C637.793 1302.83 637.047 1312.65 631.701 1315.09C626.359 1317.54 618.438 1311.69 614.012 1302.03C609.587 1292.37 610.332 1282.55 615.679 1280.11C621.025 1277.66 628.942 1283.51 633.367 1293.17Z" fill="#F7EDE5"/>
<path d="M1283.09 833.686C1264.6 833.686 1246.02 832.462 1227.86 830.05C1192.48 825.379 1157.82 816.14 1124.86 802.598C1102.51 793.428 1080.78 782.187 1060.28 769.198C1059.01 768.388 1057.77 767.589 1056.53 766.775C1011.34 737.485 972.672 700.208 941.687 656.033C940.885 654.936 940.127 653.827 939.37 652.713C891.552 583.24 866.245 501.645 866.245 416.845C866.245 397.555 867.58 378.164 870.216 359.214C877.969 303.107 896.776 250.049 926.103 201.523C954.75 154.122 991.941 113.448 1036.64 80.6246C1037.51 79.9778 1038.5 79.2737 1039.48 78.5696C1110.69 27.1819 1194.95 0 1283.09 0C1351.25 0 1418.88 16.8208 1478.67 48.6449C1479.7 49.1853 1480.83 49.7912 1481.96 50.4175C1547 85.7376 1601.74 138.038 1640.13 201.588C1679.26 266.358 1699.93 340.789 1699.93 416.841C1699.93 456.25 1694.44 495.238 1683.6 532.724C1683.1 534.521 1682.56 536.314 1682.01 538.091C1660.68 608.465 1620.66 672.33 1566.31 722.666C1565.51 723.427 1564.58 724.287 1563.65 725.126C1555.18 732.834 1546.25 740.313 1537.15 747.33C1520.82 759.91 1503.39 771.376 1485.34 781.414C1463.12 793.772 1439.61 804.138 1415.46 812.218C1383.31 822.977 1349.82 829.764 1315.93 832.4C1305.09 833.252 1294.04 833.686 1283.09 833.686Z" fill="white"/>
<path d="M1416.05 696.765C1415.36 697.035 1271.75 718.949 1271.14 718.871C1270.5 718.805 1189.1 725.503 1188.45 725.421C1134.89 719.153 987.884 652.848 979.418 641.644C954.971 609.259 951.548 353.205 950.472 352.902C927.625 346.663 886.967 350.704 891.265 330.788C910.984 239.225 961.164 161.761 1031.71 105.215C1042.72 96.3813 1054.2 88.1244 1066.11 80.4938C1067.01 79.9166 1067.91 79.3394 1068.82 78.7622C1130.61 39.8029 1203.8 17.2632 1282.26 17.2632C1330.49 17.2632 1376.73 25.778 1419.53 41.3912C1420.88 41.8742 1422.22 42.3696 1423.56 42.8813C1435.48 47.3557 1447.14 52.4031 1458.51 57.9828C1548.31 102.006 1620.03 176.187 1656.62 269.993C1665.99 293.99 1416.53 696.606 1416.05 696.765Z" fill="#6E72FF"/>
<path d="M1180.74 492.09C1178.11 527.328 1157.91 558.882 1134.64 585.495C1109.02 614.802 971.497 668.126 963.031 656.921C943.136 630.562 926.397 601.673 913.428 570.811C912.917 569.608 912.417 568.404 911.922 567.188C905.045 550.355 899.272 532.941 894.704 515.052C886.59 483.26 882.28 449.946 882.28 415.617C882.28 386.519 885.375 358.125 891.274 330.788C906.776 314.499 923.867 299.701 942.239 286.699C963.322 271.774 986.647 258.981 1012.16 254.842C1023.76 252.951 1036.11 253 1046.77 257.954C1049.11 259.042 1051.32 260.34 1053.38 261.851C1054.24 262.477 1055.09 263.132 1055.91 263.84C1068.03 274.132 1074.33 291.161 1074.6 307.417C1074.92 327.361 1067.87 346.602 1060.93 365.293C1058.35 372.203 1055.78 379.13 1053.2 386.04C1052.81 387.084 1052.43 388.107 1052.04 389.151C1045.01 408.068 1037.97 426.989 1030.93 445.906C1047.86 431.75 1067.4 417.704 1088 410.909C1089.06 410.557 1090.12 410.217 1091.19 409.914C1103.7 406.275 1116.57 405.395 1129.45 408.887C1163.55 418.114 1183.36 456.848 1180.74 492.09Z" fill="#F8BDFF"/>
<path d="M1683.89 415.613C1683.89 440.56 1681.62 464.978 1677.26 488.656C1669.19 532.47 1653.99 573.788 1632.93 611.351C1632.38 612.346 1631.82 613.341 1631.25 614.319C1628.97 618.327 1626.61 622.285 1624.18 626.199C1623.98 626.534 1623.78 626.874 1623.57 627.21C1617.89 636.318 1542.44 633.444 1522.15 620.333C1489.44 599.217 1459.39 573.853 1433.78 544.547C1410.51 517.95 1390.33 486.396 1387.7 451.158C1385.05 415.92 1404.87 377.186 1438.99 367.934C1471.09 359.227 1503.16 377.648 1529.79 398.698C1530.64 399.357 1531.48 400.028 1532.31 400.704C1534.06 402.116 1535.79 403.524 1537.49 404.953C1536.64 402.677 1535.81 400.417 1534.96 398.141C1534.55 397.069 1534.15 395.976 1533.74 394.887C1525 371.385 1516.24 347.879 1507.51 324.361C1504.64 316.632 1501.74 308.809 1499.36 300.872C1499.04 299.844 1498.73 298.821 1498.46 297.793C1495.58 287.53 1493.65 277.112 1493.83 266.481C1494.17 246.537 1503.58 225.438 1521.65 217.021C1532.32 212.052 1544.67 212.019 1556.28 213.91C1581.79 218.045 1605.11 230.842 1626.19 245.767C1636.78 253.271 1646.94 261.368 1656.62 269.993C1674.23 315.122 1683.89 364.246 1683.89 415.613Z" fill="#F8BDFF"/>
<path d="M1623.57 627.211C1599.37 666.056 1568.7 700.463 1533.1 728.922C1532.76 729.201 1528.55 716.551 1528.21 716.825C1527.51 717.378 1530.67 730.846 1529.97 731.391C1498.43 756.096 1463.08 776.167 1424.98 790.581C1424.5 790.773 1424 790.966 1423.52 791.125C1422.83 791.396 1422.14 791.653 1421.45 791.895C1378.32 807.766 1328.78 665.655 1280.15 665.655C1265.49 665.655 1253.93 815.638 1239.66 814.083C1239.05 814.033 1238.42 813.972 1237.82 813.89C1237.18 813.825 1236.54 813.747 1235.89 813.665C1182.33 807.398 1132.01 790.544 1087.05 765.294C1086.47 764.971 1085.48 750.303 1084.9 749.976C1084.25 749.607 1084.02 763.575 1083.38 763.211C1036.45 736.18 995.502 699.915 963.036 656.915C972.398 628.296 984.904 595.334 1001.45 560.415C1024.36 512.044 1066.61 478.616 1106.16 456.461C1107.41 455.757 1108.66 455.065 1109.91 454.393C1146.22 434.609 1179.65 424.334 1192.87 420.694C1196.74 419.651 1199.92 449.931 1199.92 449.931L1221.62 479.406L1346.05 469.581C1346.05 469.581 1355.46 443.914 1362.84 445.019C1365.1 445.355 1358.89 415.545 1361.7 416.011C1380.89 419.155 1412.04 425.308 1444.07 435.972C1445.47 436.422 1446.86 436.901 1448.26 437.384C1476.52 447.131 1505.11 460.44 1526.38 478.345C1566.96 512.515 1600.39 574.272 1623.57 627.211Z" fill="#B5E1E8"/>
<path d="M1423.52 791.124C1422.83 791.395 1422.14 791.653 1421.45 791.894C1378.32 807.765 1331.72 816.423 1283.09 816.423C1268.42 816.423 1253.92 815.637 1239.66 814.082C1239.05 814.033 1238.42 813.971 1237.82 813.889L1220.76 646.733L1216.27 610.357L1192.88 420.694C1196.74 419.65 1204.37 418.929 1204.37 418.929L1342.42 413.255C1342.42 413.255 1346.71 413.722 1354.08 414.827C1356.34 415.163 1358.89 415.548 1361.69 416.014L1392.44 602.599L1423.52 791.124Z" fill="#F7EDE5"/>
<path d="M1219.76 619.658L1239.65 814.082C1239.04 814.033 1238.42 813.971 1237.81 813.889C1237.17 813.824 1236.53 813.746 1235.89 813.664L1216.1 620.231C1191.25 544.83 1088.84 546.705 1087.8 546.692C1086.93 546.803 1086.16 546.148 1085.95 545.313C1085.75 544.461 1086.15 543.598 1086.92 543.196L1175.9 498.031L1106.16 456.46L1105.19 455.883C1104.31 455.355 1104.02 454.233 1104.55 453.349C1105.08 452.469 1106.22 452.178 1107.09 452.706L1109.91 454.389L1180.66 496.57C1181.23 496.905 1181.59 497.548 1181.55 498.219C1181.54 498.891 1181.15 499.501 1180.54 499.808L1095.19 543.143C1105.14 543.577 1123.84 545.26 1143.83 551.4C1179.16 562.252 1204.01 582.536 1216.26 610.353C1217.54 613.239 1218.68 616.219 1219.67 619.269C1219.71 619.404 1219.74 619.531 1219.76 619.658Z" fill="#412945"/>
<path d="M1499.92 518.095C1499.86 518.913 1499.28 519.585 1498.49 519.777C1497.37 520.035 1387.52 546.279 1396.61 612.523C1402.57 655.891 1415.61 734.948 1424.97 790.581C1424.49 790.773 1423.99 790.966 1423.51 791.125C1422.82 791.395 1422.13 791.653 1421.44 791.895C1412.07 736.197 1398.93 656.628 1392.95 613.022C1392.47 609.51 1392.29 606.031 1392.44 602.6C1393.4 577.895 1410.32 555.719 1441.98 537.99C1461.77 526.929 1482.37 520.387 1492.02 517.661L1392.71 480.081C1392.09 479.839 1391.64 479.295 1391.54 478.64C1391.43 477.981 1391.7 477.326 1392.22 476.908L1444.07 435.976L1445.99 434.453C1446.79 433.827 1447.95 433.954 1448.59 434.756C1449.21 435.558 1449.08 436.729 1448.28 437.355L1448.25 437.388L1397.07 477.789L1498.72 516.253C1499.49 516.539 1499.97 517.292 1499.92 518.095Z" fill="#412945"/>
<path d="M1088.18 692.046L1087.04 765.298C1085.81 764.61 1084.59 763.902 1083.37 763.214L1084.47 691.981C1084.49 690.953 1085.29 690.183 1086.35 690.167C1087.38 690.171 1088.2 691.018 1088.18 692.046Z" fill="#412945"/>
<path d="M1505.5 633.479L1533.09 728.919C1532.06 729.754 1531.01 730.568 1529.96 731.387L1501.96 634.503C1501.67 633.524 1502.23 632.497 1503.22 632.227C1504.2 631.94 1505.23 632.501 1505.5 633.479Z" fill="#412945"/>
<path d="M1399.05 353.857C1417.95 334.608 1410.12 232.451 1404.5 197.471C1404.02 193.254 1403.32 189.111 1402.4 185.046C1402.35 184.764 1402.33 184.613 1402.33 184.613H1402.31C1389.85 129.954 1339.9 90.1965 1281.87 92.5462C1216.39 95.1948 1165.46 150.422 1168.1 215.9C1168.56 227.199 1170.63 238.039 1174 248.265C1165.05 247.708 1156.6 250.922 1150.24 260.145C1140.92 273.678 1139.12 292.194 1146.11 307.07C1153.11 321.942 1168.8 332.447 1185.24 332.75C1189.7 332.832 1194.14 332.222 1198.54 331.477C1199.31 331.346 1200.06 331.194 1200.8 331.047L1204.54 418.512C1204.54 418.512 1244.08 514.917 1323.5 496.77C1371.78 485.738 1354.22 416.105 1354.22 416.105L1349.5 374.599C1382.23 367.857 1388.16 364.95 1399.05 353.857Z" fill="#BA685F"/>
<g opacity="0.3">
<path d="M1399.05 353.857C1417.95 334.608 1410.12 232.451 1404.5 197.471C1404.02 193.254 1403.32 189.111 1402.4 185.046C1402.35 184.764 1402.33 184.613 1402.33 184.613H1402.31C1389.85 129.954 1339.9 90.1965 1281.87 92.5462C1216.39 95.1948 1165.46 150.422 1168.1 215.9C1168.56 227.199 1170.63 238.039 1174 248.265C1165.05 247.708 1156.6 250.922 1150.24 260.145C1140.92 273.678 1139.12 292.194 1146.11 307.07C1153.11 321.942 1168.8 332.447 1185.24 332.75C1189.7 332.832 1194.14 332.222 1198.54 331.477C1199.31 331.346 1200.06 331.194 1200.8 331.047L1204.54 418.512C1204.54 418.512 1244.08 514.917 1323.5 496.77C1371.78 485.738 1354.22 416.105 1354.22 416.105L1349.5 374.599C1382.23 367.857 1388.16 364.95 1399.05 353.857Z" fill="#412945"/>
</g>
<path d="M1174.71 243.447L1208.17 283.565V207.472L1174.71 243.447Z" fill="#412945"/>
<path d="M1349.51 374.59C1349.51 374.59 1291.5 385.909 1251.88 379.777C1251.88 379.777 1274.05 411.376 1308.48 408.547C1342.9 405.719 1349.51 374.59 1349.51 374.59Z" fill="#412945"/>
<path d="M1191.93 312.708C1191.31 312.708 1190.72 312.36 1190.44 311.766C1186.08 302.494 1181.62 293.557 1174.94 286.164C1167.69 278.128 1158.5 273.323 1149.74 272.975C1148.83 272.938 1148.13 272.176 1148.16 271.272C1148.2 270.367 1148.97 269.675 1149.87 269.7C1159.51 270.08 1169.53 275.279 1177.38 283.966C1184.35 291.687 1189.12 301.241 1193.41 310.37C1193.79 311.189 1193.44 312.167 1192.62 312.552C1192.4 312.654 1192.16 312.708 1191.93 312.708Z" fill="#412945"/>
<path d="M1354.38 184.928C1356.4 182.001 1359.49 180.249 1362.74 179.36C1366 178.48 1369.49 178.517 1372.76 179.344C1376.03 180.154 1379.13 181.816 1381.49 184.285C1383.83 186.737 1385.58 189.934 1385.52 193.692C1385.5 194.855 1384.54 195.78 1383.38 195.759C1383.29 195.759 1383.2 195.751 1383.12 195.739L1382.94 195.71C1379.54 195.211 1377.21 194.752 1375.02 194.265C1372.85 193.794 1370.96 193.226 1369.03 192.571L1355.53 187.99L1355.38 187.941C1354.34 187.589 1353.78 186.455 1354.13 185.411C1354.2 185.243 1354.28 185.071 1354.38 184.928Z" fill="#412945"/>
<path d="M1277.41 235.198C1278.05 243.377 1273.43 250.41 1267.09 250.901C1260.75 251.392 1255.1 245.158 1254.46 236.978C1253.83 228.799 1258.45 221.766 1264.79 221.275C1271.13 220.78 1276.78 227.014 1277.41 235.198Z" fill="#412945"/>
<path d="M1378.39 227.358C1379.03 235.537 1374.4 242.57 1368.07 243.061C1361.73 243.552 1356.08 237.318 1355.44 229.139C1354.81 220.959 1359.43 213.927 1365.77 213.435C1372.1 212.944 1377.76 219.179 1378.39 227.358Z" fill="#412945"/>
<path d="M1253.51 209.182C1253.26 205.985 1254.33 203.041 1255.95 200.52C1257.59 198.01 1259.86 195.935 1262.46 194.453C1265.06 192.963 1268.02 192.087 1271.02 191.985C1274.01 191.903 1277.11 192.529 1279.7 194.457C1280.58 195.116 1280.77 196.365 1280.11 197.249C1280 197.4 1279.87 197.536 1279.73 197.646L1279.61 197.736C1277.25 199.521 1275.37 200.733 1273.56 201.883C1271.76 203.013 1270.08 204.012 1268.36 204.949C1266.64 205.891 1264.9 206.804 1263 207.757C1261.07 208.699 1259.06 209.694 1256.35 210.807L1256.23 210.86C1255.22 211.278 1254.06 210.795 1253.64 209.784C1253.57 209.587 1253.52 209.378 1253.51 209.182Z" fill="#412945"/>
<path d="M1320.49 292.362C1306.54 292.362 1300.58 275.877 1300.33 275.148C1300.03 274.297 1300.47 273.359 1301.33 273.06C1302.18 272.762 1303.12 273.208 1303.42 274.059C1303.48 274.223 1309.31 290.283 1321.99 289.009C1334.83 287.728 1339.4 271.509 1339.44 271.345C1339.68 270.473 1340.58 269.958 1341.45 270.191C1342.32 270.428 1342.84 271.329 1342.6 272.201C1342.4 272.958 1337.42 290.761 1322.32 292.272C1321.69 292.333 1321.08 292.362 1320.49 292.362Z" fill="#412945"/>
<path d="M1407.63 199.625L1407.62 199.608V199.592C1400.19 189.956 1389.21 183.848 1376.98 183.848C1376.53 183.848 1376.1 183.864 1375.66 183.897H1375.65C1368.16 184.155 1361.17 186.718 1355.24 190.983C1344.32 198.773 1336.94 212.307 1336.43 227.761C1326.17 225.308 1314.85 227.265 1305.95 232.939C1302.12 213.973 1287.37 199.367 1269.21 197.3H1269.19C1267.74 197.107 1266.24 197.025 1264.73 197.025C1257.44 197.025 1250.58 199.044 1244.58 202.572H1244.57C1231.45 210.334 1222.54 225.403 1222.54 242.686C1222.54 243.84 1222.59 244.978 1222.66 246.117H1168.21C1167.33 246.117 1166.61 246.821 1166.61 247.721C1166.61 247.963 1166.65 248.172 1166.75 248.376C1167.01 248.937 1167.57 249.322 1168.21 249.322H1222.98C1225.96 271.366 1243.54 288.347 1264.73 288.347C1287.99 288.347 1306.93 267.858 1306.93 242.686C1306.93 240.553 1306.78 238.453 1306.53 236.402C1315.06 230.454 1326.34 228.403 1336.39 231.048C1336.41 231.048 1336.41 231.048 1336.41 231.048C1337.16 255.483 1355.06 275.104 1376.97 275.104C1392.38 275.104 1405.81 265.422 1412.69 251.184C1415.8 244.725 1417.58 237.332 1417.58 229.476C1417.59 218.063 1413.84 207.644 1407.63 199.625ZM1264.73 285.064C1243.27 285.064 1225.81 266.065 1225.81 242.69C1225.81 227.781 1232.91 214.665 1243.62 207.116C1249.69 202.802 1256.96 200.321 1264.73 200.321H1264.83C1283.86 200.37 1299.71 215.373 1303.02 235.096L1303.32 237.295C1303.32 237.295 1303.66 240.868 1303.66 242.698C1303.66 266.065 1286.19 285.064 1264.73 285.064ZM1412.2 243.587V243.652C1407.07 260.1 1393.22 271.902 1376.98 271.902C1356.38 271.902 1339.61 252.871 1339.61 229.48C1339.61 213.719 1347.24 199.932 1358.52 192.637C1363.98 189.092 1370.28 187.074 1376.98 187.074C1378.55 187.074 1380.09 187.184 1381.6 187.409C1393.01 188.998 1402.84 196.452 1408.66 207.018C1408.66 207.018 1408.66 207.034 1408.68 207.034C1412.28 213.56 1414.37 221.239 1414.37 229.48C1414.37 234.45 1413.61 239.161 1412.2 243.587Z" fill="#F8BDFF"/>
<path d="M1415.73 139.521C1416.11 128.005 1409.47 114.136 1397.38 113.243C1384.22 92.7014 1319.57 6.70598 1208.05 52.7269C1098.68 97.8513 1106.41 200.848 1113.02 236.487C1106.28 245.329 1102.08 252.444 1100.95 256.62C1095.91 275.188 1125.45 296.046 1141.86 286.442C1141.86 286.442 1171.96 231.804 1243.86 193.815C1315.77 155.826 1366.79 155.862 1394.22 160.243C1394.23 160.251 1415.18 156.039 1415.73 139.521Z" fill="#C0D48C"/>
<path d="M1113.02 238.337C1112.62 238.337 1112.21 238.202 1111.87 237.932C1111.07 237.293 1110.94 236.131 1111.58 235.337C1112.17 234.608 1170.98 162.158 1259.14 132.148C1347.26 102.154 1397.25 111.336 1397.74 111.434C1398.74 111.63 1399.39 112.597 1399.2 113.6C1399 114.602 1398.04 115.253 1397.03 115.061C1396.55 114.967 1347.41 106.006 1260.34 135.648C1173.19 165.319 1115.04 236.929 1114.47 237.65C1114.1 238.1 1113.56 238.337 1113.02 238.337Z" fill="#412945"/>
<path d="M416.837 833.686C398.35 833.686 379.769 832.462 361.609 830.05C326.232 825.379 291.575 816.14 258.613 802.598C236.261 793.428 214.528 782.187 194.031 769.198C192.758 768.388 191.518 767.589 190.277 766.775C145.087 737.485 106.423 700.208 75.4379 656.033C74.6355 654.936 73.8782 653.827 73.125 652.713C25.307 583.24 0 501.645 0 416.845C0 397.555 1.33452 378.164 3.96675 359.214C11.7201 303.107 30.5264 250.049 59.8534 201.523C88.5008 154.122 125.692 113.448 170.394 80.6246C171.262 79.9778 172.249 79.2737 173.231 78.5696C244.44 27.1819 328.696 0 416.841 0C485.004 0 552.631 16.8208 612.419 48.6449C613.451 49.1853 614.577 49.7912 615.706 50.4175C680.751 85.7376 735.495 138.038 773.885 201.588C813.008 266.358 833.686 340.789 833.686 416.841C833.686 456.25 828.188 495.238 817.348 532.724C816.848 534.521 816.312 536.314 815.759 538.091C794.431 608.465 754.412 672.33 700.065 722.666C699.258 723.427 698.329 724.287 697.404 725.126C688.934 732.834 680.01 740.313 670.901 747.33C654.572 759.91 637.141 771.376 619.096 781.414C596.876 793.772 573.366 804.138 549.217 812.218C517.066 822.977 483.584 829.764 449.688 832.4C438.84 833.252 427.783 833.686 416.837 833.686Z" fill="white"/>
<path d="M772.489 398.358C772.489 448.411 767.974 473.714 751.202 517.885C750.784 519.006 743.448 583.911 743.015 585.016C730.508 617.115 761.399 624.496 741.488 651.956C724.253 675.732 704.276 688.705 682.089 694.681C610.568 713.922 515.833 660.323 413.913 660.323C311.339 660.323 220.066 746.609 149.684 710.503C141.042 706.094 132.72 699.811 124.737 691.312C108.367 673.886 160.086 644.444 147.019 624.307C146.426 623.411 123.018 590.838 122.457 589.921C82.761 527.713 61.8752 528.356 61.8752 449.107C61.8752 384.882 31.1236 291.911 57.978 238.104C81.6271 190.711 114.397 148.657 153.978 114.238C154.781 113.534 155.583 112.842 156.398 112.154C226.444 52.2229 317.409 16.0227 416.828 16.0227C461.109 16.0227 503.708 23.2071 543.531 36.4787C544.943 36.929 546.351 37.408 547.764 37.9074C637.063 68.7367 712.046 130.252 760.13 209.853C796.641 270.276 772.489 322.621 772.489 398.358Z" fill="#B5E1E8"/>
<path d="M226.865 590.346C221.126 621.257 202.815 648.255 183.321 672.915C172.931 686.06 161.887 699 149.683 710.511C141.042 706.103 132.719 699.819 124.737 691.32C57.3183 619.608 16.0215 523.042 16.0215 416.845C16.0215 352.619 31.123 291.919 57.9774 238.116C63.557 239.287 69.0057 241.37 74.2169 244.514C97.1741 258.334 103.204 289.164 101.022 315.875C98.8075 342.954 90.4892 369.518 76.8614 393.024C94.0138 375.839 121.544 369.923 144.247 378.561C166.95 387.203 183.575 409.922 184.954 434.161C187.12 472.527 155.664 503.487 140.497 538.791C153.163 523.591 173.685 513.316 192.827 518.302C221.142 525.687 232.22 561.568 226.865 590.346Z" fill="#E36352"/>
<path d="M817.645 416.841C817.645 504.682 789.395 585.9 741.491 651.956C724.256 675.732 704.279 688.704 682.092 694.681C674.269 687.644 667.424 679.514 661.922 670.488C643.886 640.874 641.241 602.079 656.375 570.86C664.055 555.038 676.721 540.833 693.411 535.254C707.566 530.526 724.657 533.412 735.24 543.511C716.978 521.098 700.448 497.289 685.874 472.342C674.874 453.536 664.825 433.608 661.889 412.014C658.954 390.42 664.215 366.722 680.069 351.78C692.575 340.011 710.981 334.865 727.765 338.488C741.904 341.534 754.553 350.687 762.09 363.001C748.896 337.031 736.341 310.447 731.052 281.844C726.401 256.656 730.184 225.827 752.453 213.193C754.905 211.798 757.472 210.709 760.133 209.857C796.64 270.275 817.645 341.104 817.645 416.841Z" fill="#E36352"/>
<path d="M741.491 651.956C668.656 752.353 550.366 817.651 416.835 817.651C301.676 817.651 197.849 769.088 124.74 691.317C135.531 680.608 150.891 667.524 172.407 652.967C230.524 613.672 307.399 584.059 307.399 584.059L547.021 562.559C547.021 562.559 632.505 576.011 675.071 599.754C697.881 612.485 723.053 634.37 741.491 651.956Z" fill="#F8BDFF"/>
<path d="M371.026 523.304C358.348 535.929 339.435 541.963 321.787 539.008C304.143 536.052 288.223 524.18 280.355 508.113C256.796 516.308 233.716 500.167 218.594 483.661C208.782 472.952 203.98 456.942 209.154 443.363C191.085 435.876 175.742 421.307 169.474 402.779C163.211 384.247 165.34 363.058 175.16 346.139C169.7 339.061 165.467 328.761 164.075 319.936C162.012 306.856 162.515 293.208 166.928 280.726C171.341 268.245 179.868 257.008 191.437 250.573C188.199 234.697 190.819 216.923 198.036 202.415C202.539 193.36 208.397 184.607 216.879 179.097C223.118 175.045 230.404 172.981 237.568 170.976C237.675 155.899 247.225 142.234 258.163 131.852C264.664 125.679 271.934 120.169 280.195 116.694C288.456 113.218 297.802 111.884 306.493 114.09C315.196 99.5372 329.385 86.3228 345.162 80.1086C360.939 73.8945 378.779 73.0635 395.068 77.7753C397.323 78.4303 400.025 79.8671 399.771 82.2005C412.838 74.6927 430.248 70.157 445.039 73.0512C459.829 75.9413 473.482 84.321 482.762 96.1967C497.446 85.9994 517.816 82.5485 534.833 88.0217C551.851 93.4949 566.002 107.225 571.987 124.07C575.254 120.615 580.785 120.984 585.328 122.392C596.721 125.925 606.648 133.969 612.465 144.387C618.282 154.802 619.924 167.475 616.952 179.028C621.066 179.036 625.426 181.488 628.263 184.472C641.764 198.673 644.83 221.749 635.504 238.979C642.443 248.927 645.661 264.02 644.212 276.064C642.763 288.107 636.745 299.537 627.641 307.552C637.441 323.538 636.503 345.742 628.594 362.743C625.618 369.141 621.082 375.269 614.529 377.881C618.18 389.307 617.345 402.709 613.841 414.184C612.588 418.29 610.889 422.252 608.965 426.088C603.991 436.007 596.594 445.779 585.881 448.656C588.108 453.753 588.681 472.764 580.891 485.639C570.714 502.455 549.931 509.001 533.548 505.861C520.542 532.757 492.509 552.418 462.801 555.57C433.089 558.723 389.386 546.871 371.026 523.304Z" fill="#412945"/>
<path d="M557.596 550.883C526.468 550.883 501.14 525.56 501.14 494.431C501.14 463.303 526.463 437.976 557.596 437.976C588.724 437.976 614.051 463.303 614.051 494.431C614.051 525.56 588.724 550.883 557.596 550.883ZM557.596 441.181C528.236 441.181 504.345 465.068 504.345 494.427C504.345 523.787 528.232 547.674 557.596 547.674C586.955 547.674 610.842 523.787 610.842 494.427C610.842 465.068 586.955 441.181 557.596 441.181Z" fill="#F7EDE5"/>
<path d="M557.178 486.773C576.41 468.708 572.796 368.568 568.69 334.161C568.383 330.023 567.863 325.945 567.134 321.938C567.097 321.659 567.077 321.508 567.077 321.508L567.061 321.504C557.047 267.594 509.807 226.768 452.999 226.768C388.905 226.768 336.948 278.725 336.948 342.819C336.948 353.876 338.544 364.553 341.435 374.68C332.703 373.784 324.323 376.588 317.749 385.352C308.1 398.211 305.607 416.231 311.854 431.046C318.101 445.857 333.03 456.742 349.077 457.691C353.433 457.949 357.797 457.528 362.124 456.975C362.885 456.877 363.618 456.762 364.351 456.643V547.044L307.4 584.063C307.4 584.063 371.871 723.755 450.314 709.787C528.756 695.815 547.022 562.575 547.022 562.575L499.74 545.382L491.962 508.109C524.204 502.812 546.097 497.183 557.178 486.773Z" fill="#BA685F"/>
<g opacity="0.28">
<path d="M557.177 486.773C576.409 468.708 572.794 368.568 568.689 334.161C568.381 330.023 567.862 325.945 567.133 321.938C567.096 321.659 567.076 321.508 567.076 321.508L567.059 321.504C557.046 267.594 509.805 226.768 452.998 226.768C388.903 226.768 336.947 278.725 336.947 342.819C336.947 353.876 338.457 363.509 341.347 373.636C332.616 372.74 324.322 376.588 317.743 385.352C308.095 398.211 305.601 416.231 311.848 431.046C318.095 445.857 333.025 456.742 349.072 457.691C353.428 457.949 357.792 457.528 362.119 456.975C362.88 456.877 363.613 456.762 364.345 456.643V547.044L307.395 584.063C307.395 584.063 371.866 723.755 450.308 709.787C528.751 695.815 547.017 562.575 547.017 562.575L499.735 545.382L491.957 508.109C524.203 502.812 546.096 497.183 557.177 486.773Z" fill="#412945"/>
</g>
<path d="M492.164 508.51L390.338 509.787C390.338 509.787 417.737 540.948 446.753 535.036C475.765 529.125 492.164 508.51 492.164 508.51Z" fill="#412945"/>
<path d="M356.454 438.369C355.828 438.369 355.234 438.001 354.976 437.387C351.083 428.151 347.076 419.244 340.845 411.756C334.07 403.618 325.285 398.554 316.733 397.871C315.853 397.801 315.194 397.027 315.264 396.143C315.333 395.263 316.095 394.592 316.991 394.674C326.395 395.427 335.99 400.904 343.309 409.705C349.818 417.524 354.1 427.054 357.932 436.142C358.276 436.957 357.895 437.898 357.076 438.242C356.872 438.332 356.663 438.369 356.454 438.369Z" fill="#412945"/>
<path d="M547.028 336.044C546.529 336.044 546.038 335.815 545.727 335.377C539.975 327.394 528.595 323.69 519.245 326.752C518.397 327.03 517.497 326.567 517.223 325.728C516.948 324.889 517.407 323.98 518.246 323.706C529.041 320.165 541.69 324.287 548.33 333.502C548.846 334.223 548.686 335.221 547.966 335.741C547.679 335.946 547.352 336.044 547.028 336.044Z" fill="#412945"/>
<path d="M442.998 366.002C443.297 374.021 438.499 380.71 432.285 380.94C426.071 381.169 420.794 374.856 420.5 366.837C420.201 358.817 424.999 352.128 431.213 351.899C437.423 351.67 442.699 357.982 442.998 366.002Z" fill="#412945"/>
<path d="M541.992 362.338C542.291 370.358 537.493 377.047 531.279 377.276C525.065 377.505 519.788 371.189 519.493 363.169C519.194 355.15 523.992 348.461 530.206 348.231C536.416 348.002 541.693 354.319 541.992 362.338Z" fill="#412945"/>
<path d="M409.675 340.778C409.384 340.778 409.094 340.7 408.828 340.532C408.074 340.066 407.845 339.075 408.316 338.326C413.744 329.627 424.265 324.276 434.499 324.972C435.383 325.034 436.046 325.799 435.985 326.683C435.924 327.568 435.162 328.227 434.274 328.169C425.198 327.535 415.856 332.296 411.034 340.021C410.731 340.508 410.207 340.778 409.675 340.778Z" fill="#412945"/>
<path d="M465.894 397.131C465.894 397.131 465.894 420.411 481.753 422.888C497.608 425.365 503.556 401.094 503.556 401.094L465.894 397.131Z" fill="#F7EDE5"/>
<path d="M559.635 242.807L489.777 212.788C489.777 212.788 396.994 210.057 361.518 250.445C326.043 290.833 322.707 380.083 322.707 380.083C322.707 380.083 327.357 375.019 341.435 374.68L364.793 406.541L368.613 381.983C368.613 381.983 372.432 384.713 381.164 371.065C389.896 357.421 376.252 325.765 376.252 325.765C376.252 325.765 397.539 333.952 412.82 317.033C428.102 300.114 419.37 261.363 419.37 261.363C419.37 261.363 435.196 273.914 452.115 257.544C455.603 254.171 457.281 250.167 457.789 245.942C462.673 254.518 469.235 261.224 477.77 260.819C500.695 259.726 506.696 248.812 506.696 248.812C506.696 248.812 496.871 279.375 515.976 285.925C535.077 292.475 543.809 284.288 543.809 284.288C543.809 284.288 536.715 318.126 556.909 321.401C577.103 324.676 585.29 289.2 585.29 289.2L559.635 242.807Z" fill="#412945"/>
<path d="M366.09 322.265C363.56 306.357 329.783 315.846 314.506 321C329.243 312.42 361.591 291.706 348.385 282.127C335.351 272.67 318.178 303.25 311.018 317.7C315.374 301.211 323.594 263.701 307.485 266.264C291.577 268.794 301.066 302.574 306.22 317.848C297.64 303.111 276.926 270.763 267.347 283.969C257.89 297.003 288.47 314.176 302.921 321.336C286.431 316.98 248.921 308.76 251.484 324.868C254.014 340.776 287.791 331.287 303.068 326.133C288.331 334.714 255.983 355.428 269.189 365.007C282.223 374.463 299.396 343.888 306.556 329.433C302.2 345.922 293.98 383.432 310.089 380.87C325.997 378.34 316.508 344.559 311.354 329.285C319.934 344.023 340.648 376.371 350.227 363.165C359.683 350.13 329.104 332.958 314.653 325.798C331.142 330.153 368.653 338.373 366.09 322.265Z" fill="#F7EDE5"/>
<path d="M449.07 236.499C446.54 220.591 412.764 230.08 397.486 235.234C412.223 226.654 444.571 205.94 431.365 196.36C418.331 186.904 401.158 217.484 393.998 231.934C398.354 215.445 406.574 177.935 390.466 180.498C374.558 183.027 384.047 216.804 389.201 232.082C380.62 217.345 359.906 184.996 350.327 198.203C340.871 211.237 371.451 228.41 385.901 235.57C369.412 231.214 331.902 222.994 334.464 239.102C336.994 255.01 370.771 245.521 386.048 240.367C371.311 248.948 338.967 269.661 352.169 279.241C365.204 288.697 382.377 258.121 389.536 243.667C385.181 260.156 376.961 297.666 393.069 295.104C408.977 292.574 399.488 258.793 394.334 243.519C402.914 258.257 423.628 290.605 433.207 277.399C442.664 264.364 412.084 247.191 397.634 240.032C414.123 244.387 451.633 252.607 449.07 236.499Z" fill="#E36352"/>
<path d="M353.683 227.013C351.153 211.105 317.376 220.595 302.099 225.748C316.836 217.168 349.184 196.454 335.978 186.875C322.943 177.419 305.77 207.998 298.611 222.449C302.966 205.96 311.186 168.45 295.078 171.012C279.17 173.542 288.659 207.319 293.813 222.596C285.233 207.859 264.519 175.511 254.94 188.717C245.483 201.751 276.063 218.924 290.513 226.084C274.024 221.729 236.514 213.508 239.077 229.617C241.607 245.525 275.383 236.036 290.661 230.882C275.924 239.462 243.576 260.176 256.782 269.755C269.816 279.212 286.989 248.636 294.149 234.181C289.793 250.671 281.573 288.181 297.681 285.618C313.589 283.088 304.1 249.307 298.946 234.034C307.527 248.771 328.241 281.119 337.82 267.913C347.276 254.879 316.701 237.706 302.246 230.546C318.735 234.898 356.245 243.122 353.683 227.013Z" fill="#F8BDFF"/>
<path d="M326.731 553.098C295.602 553.098 270.275 527.775 270.275 496.647C270.275 465.519 295.602 440.191 326.731 440.191C357.859 440.191 383.186 465.519 383.186 496.647C383.186 527.775 357.859 553.098 326.731 553.098ZM326.731 443.397C297.371 443.397 273.484 467.283 273.484 496.647C273.484 526.006 297.371 549.893 326.731 549.893C356.09 549.893 379.977 526.006 379.977 496.647C379.981 467.283 356.094 443.397 326.731 443.397Z" fill="#F7EDE5"/>
</svg>
