<svg width="1463" height="1152" viewBox="0 0 1463 1152" fill="none" xmlns="http://www.w3.org/2000/svg">
<path d="M564.557 321.958L745.987 301.556C720.256 284.639 674.231 263.062 609.748 234.908C570.015 217.56 459.29 258.681 397.991 238.939C336.293 226.603 247.189 175.207 247.189 175.207L201.982 345.487C201.982 345.487 273.229 355.029 335.263 375.585C540.778 440.184 624.285 430.301 634.09 402.993C639.899 386.806 621.817 358.87 564.557 321.958Z" fill="#FFBB86"/>
<path d="M584.221 400.96C582.792 404.616 585.565 408.565 589.492 408.482C605.004 408.147 613.07 404.332 615.179 398.929C617.288 393.526 613.942 385.253 602.756 374.5C599.926 371.779 595.212 372.804 593.782 376.461L584.221 400.96Z" stroke="black" stroke-width="1.31277" stroke-miterlimit="10" stroke-linecap="round" stroke-linejoin="round"/>
<path d="M557.83 317.692C557.83 317.692 514.446 283.352 442.237 271.723" stroke="black" stroke-width="1.31277" stroke-miterlimit="10" stroke-linecap="round" stroke-linejoin="round"/>
<path d="M655.454 272.175C655.454 272.175 601.712 247.964 546.14 254.342" stroke="black" stroke-width="1.31277" stroke-miterlimit="10" stroke-linecap="round" stroke-linejoin="round"/>
<path d="M178.559 55.7051L140.061 370.774C172.85 362.83 195.231 350.435 195.231 350.435C304.6 275.707 266.466 148.146 266.466 148.146C266.466 148.146 241.359 101.942 178.559 55.7051Z" fill="#77C9C7"/>
<path d="M266.465 148.15C266.465 148.15 268.333 250.865 195.231 350.439C212.877 382.696 326.462 372.779 326.462 372.779C388.853 313.704 374.475 232.87 374.475 232.87C374.475 232.87 332.566 160.822 266.465 148.15Z" fill="#AFE2E0"/>
<path d="M263.899 260.894C263.899 260.894 311.712 269.115 345.331 293.17" stroke="black" stroke-width="1.31277" stroke-miterlimit="10" stroke-linecap="round" stroke-linejoin="round"/>
<path d="M285.237 200.778C285.237 200.778 326.519 214.676 356.809 243.919" stroke="black" stroke-width="1.31277" stroke-miterlimit="10" stroke-linecap="round" stroke-linejoin="round"/>
<path d="M243.85 335.863C243.85 335.863 293.045 337.533 329.159 347.435" stroke="black" stroke-width="1.31277" stroke-miterlimit="10" stroke-linecap="round" stroke-linejoin="round"/>
<path d="M728.555 137.804L594.506 270.745L868.167 546.687L1002.22 413.746L728.555 137.804Z" fill="#6FC16F"/>
<path d="M944.639 380.62L761.119 195.586L744.602 178.935C735.586 187.875 721.033 187.817 712.093 178.8L695.441 195.317L652.29 238.113L635.639 254.629C644.578 263.646 644.52 278.199 635.504 287.139L652.02 303.79L835.541 488.824L852.057 505.476C861.07 496.536 875.627 496.594 884.567 505.61L901.218 489.094L944.369 446.297L961.021 429.781C952.081 420.765 952.139 406.211 961.155 397.272L944.639 380.62Z" fill="#ACEAAC"/>
<path d="M826.187 370.298C846.264 350.388 850.08 321.685 834.711 306.188C819.343 290.691 790.609 294.269 770.533 314.18C750.456 334.09 746.64 362.793 762.009 378.29C777.377 393.786 806.111 390.208 826.187 370.298Z" fill="#6FC16F"/>
<path d="M844.629 388.883L906.442 451.208" stroke="black" stroke-width="1.05323" stroke-miterlimit="10" stroke-linecap="round" stroke-linejoin="round"/>
<path d="M752.035 295.522L690.221 233.2" stroke="black" stroke-width="1.05323" stroke-miterlimit="10" stroke-linecap="round" stroke-linejoin="round"/>
<path d="M820.062 322.616L818.089 324.734C821.055 327.591 825.266 333.776 823.639 335.526C822.9 336.32 819.865 337.249 819.337 336.754C818.544 336.016 818.418 332.338 814.547 328.543L803.076 340.865C806.208 346.938 809.829 353.862 803.034 361.164C797.421 367.194 789.959 367.361 783.284 362.129L780.823 364.773C780.279 365.358 779.714 365.325 778.974 364.636C778.234 363.947 778.16 363.389 778.705 362.803L781.115 360.216C775.287 354.495 772.91 348.038 774.239 346.605C775.024 345.762 778.166 344.931 778.745 345.472C779.381 346.062 779.673 351.471 784.661 356.405L797.362 342.761C794.386 336.63 790.978 330.001 797.326 323.18C802.148 317.999 809.311 317.945 815.875 322.872L817.943 320.65C818.484 320.068 819.046 320.1 819.786 320.789C820.529 321.476 820.602 322.037 820.062 322.616ZM801.945 327.867C799.138 330.882 799.977 334.329 801.697 338.103L812.28 326.734C808.777 324.45 805.042 324.536 801.945 327.867ZM786.925 358.216C790.585 360.54 795.019 360.125 798.222 356.682C801.322 353.352 800.418 349.546 798.693 345.57L786.925 358.216Z" fill="#ACEAAC"/>
<path d="M619.38 204.168L540.905 375.871L894.358 537.414L972.834 365.711L619.38 204.168Z" fill="#6FC16F"/>
<path d="M907.307 355.02L670.275 246.7L648.945 236.954C643.666 248.501 630.029 253.584 618.482 248.309L608.733 269.638L583.471 324.914L573.722 346.243C585.269 351.522 590.352 365.159 585.076 376.709L606.406 386.455L843.436 494.775L864.765 504.524C870.044 492.978 883.681 487.894 895.228 493.17L904.974 471.84L930.236 416.564L939.985 395.235C928.438 389.956 923.355 376.319 928.63 364.772L907.307 355.02Z" fill="#ACEAAC"/>
<path d="M792.803 387.166C781.052 412.883 755.434 426.375 735.583 417.302C715.732 408.23 709.166 380.03 720.917 354.313C732.668 328.596 758.29 315.105 778.138 324.177C797.989 333.246 804.554 361.449 792.803 387.166Z" fill="#6FC16F"/>
<path d="M816.659 398.064L896.495 434.552" stroke="black" stroke-width="1.05323" stroke-miterlimit="10" stroke-linecap="round" stroke-linejoin="round"/>
<path d="M697.061 343.412L617.225 306.927" stroke="black" stroke-width="1.05323" stroke-miterlimit="10" stroke-linecap="round" stroke-linejoin="round"/>
<path d="M1076.48 253.438C1076.48 253.438 1044.64 366.934 1152.74 503.45L1206.07 342.371L1163.75 285.333L1076.48 253.438Z" fill="#282828"/>
<path d="M1114.45 274.134L1083.35 257.184L1086.25 252.694C1083.21 253.172 1080.05 253.448 1076.84 253.632L1076.48 253.435L1076.53 253.65C1012.59 257.099 917.555 205.412 877.68 215.841C857.02 221.244 838.165 226.308 821.089 231.107L901.487 312.166C844.768 338.41 824.446 361.898 827.544 378.111C832.991 406.611 913.949 429.334 1127 397.421C1143.12 394.752 1159.7 392.851 1175.5 391.503L1114.45 274.134Z" fill="#B76853"/>
<path d="M916.118 305.682C916.118 305.682 964.304 278.491 1037.45 278.214" stroke="black" stroke-width="1.31277" stroke-miterlimit="10" stroke-linecap="round" stroke-linejoin="round"/>
<path d="M877.126 383.845C877.967 387.68 874.618 391.152 870.753 390.458C855.481 387.722 848.105 382.698 846.861 377.034C845.615 371.366 850.206 363.716 862.924 354.828C866.144 352.578 870.642 354.322 871.483 358.16L877.126 383.845Z" stroke="black" stroke-width="1.31277" stroke-miterlimit="10" stroke-linecap="round" stroke-linejoin="round"/>
<path d="M1430.47 429.35L1462.89 163.999C1265.72 241.919 1076.48 253.438 1076.48 253.438C1171.55 371.943 1152.74 503.45 1152.74 503.45C1152.74 503.45 1250.4 492.054 1430.47 429.35Z" fill="#FC9956"/>
<path d="M1151.47 431.646C1151.83 434.505 1152.15 437.303 1152.43 440.037C1153.13 446.865 1153.59 453.277 1153.87 459.204C1155.17 486.463 1152.74 503.449 1152.74 503.449C1152.74 503.449 1152.85 503.437 1153.03 503.416C1155.34 503.129 1172.62 500.897 1203.93 494.326C1205.58 480.182 1216.09 358.612 1129.36 248.016C1096.54 251.588 1076.48 253.441 1076.48 253.441C1098.76 281.216 1114.79 309.705 1126.26 337.046C1130.09 346.158 1133.41 355.147 1136.29 363.938C1136.87 365.696 1137.42 367.448 1137.97 369.188C1143.38 386.607 1147.07 403.184 1149.55 418.372C1150.3 422.923 1150.93 427.355 1151.47 431.646Z" fill="#FCD577"/>
<path d="M1256.7 482.071C1265.42 417.903 1248.24 356.807 1229.11 312.114C1216.66 283.013 1202.21 257.897 1189.99 238.935C1188.77 239.145 1187.55 239.351 1186.34 239.557C1218.46 289.411 1267.19 384.065 1253.27 482.926C1254.42 482.637 1255.52 482.368 1256.7 482.071Z" fill="#FCD577"/>
<path d="M1331.43 461.42C1342.02 395.173 1324.39 331.759 1304.7 285.74C1294.32 261.499 1282.57 240.023 1271.86 222.559C1270.67 222.831 1269.5 223.094 1268.32 223.363C1300.75 276.358 1343.67 367.858 1327.95 462.463C1329.09 462.126 1330.28 461.765 1331.43 461.42Z" fill="#FCD577"/>
<path d="M1406.62 437.508C1418.04 370.372 1400.22 305.955 1380.28 259.366C1371.04 237.778 1360.71 218.391 1350.99 202.068C1349.85 202.401 1348.71 202.728 1347.56 203.055C1379.75 257.297 1419.42 346.679 1403.08 438.688C1404.27 438.293 1405.43 437.906 1406.62 437.508Z" fill="#FCD577"/>
<path d="M1454.77 230.493C1446.12 210.617 1436.59 192.642 1427.54 177.307C1426.43 177.704 1425.32 178.111 1424.21 178.505C1434.08 195.287 1444.57 215.308 1453.9 237.635L1454.77 230.493Z" fill="#FCD577"/>
<path d="M976.072 745.531C976.072 745.531 928.738 637.574 1016.77 487.332L1092.02 639.414L1058.05 701.791L976.072 745.531Z" fill="#282828"/>
<path d="M1007.96 484.575C802.082 421.136 718.634 431.489 708.982 458.852C703.382 474.734 720.742 501.751 775.425 537.22L592.922 557.746C617.621 574.98 665.487 597.226 734.27 626.798C774.1 643.923 884.589 602.178 946.001 621.572C1007.77 633.56 1097.16 684.452 1097.16 684.452L1141.41 513.919C1141.41 513.919 1070.11 504.78 1007.96 484.575Z" fill="#B76853"/>
<path d="M758.862 460.606C760.269 456.94 757.475 453.006 753.551 453.115C738.042 453.536 729.997 457.397 727.919 462.814C725.841 468.231 729.233 476.48 740.476 487.17C743.322 489.877 748.029 488.824 749.437 485.158L758.862 460.606Z" stroke="black" stroke-width="1.31277" stroke-miterlimit="10" stroke-linecap="round" stroke-linejoin="round"/>
<path d="M688.358 589.79C688.358 589.79 742.237 613.697 797.77 607.007" stroke="black" stroke-width="1.31277" stroke-miterlimit="10" stroke-linecap="round" stroke-linejoin="round"/>
<path d="M785.722 543.722C785.722 543.722 829.297 577.817 901.573 589.037" stroke="black" stroke-width="1.31277" stroke-miterlimit="10" stroke-linecap="round" stroke-linejoin="round"/>
<path d="M1344.91 530.876C1130.09 484.672 1016.78 487.332 1016.78 487.332C1016.78 487.332 1053.72 614.939 976.076 745.53C976.076 745.53 1188.5 736.195 1312.91 792.736L1344.91 530.877L1344.91 530.876Z" fill="#FC9956"/>
<path d="M1028.23 745.078C1100.49 622.627 1072.37 503.108 1068.73 489.241C1034.37 486.928 1016.77 487.336 1016.77 487.336C1016.77 487.336 1053.71 614.942 976.072 745.531C976.072 745.531 996.442 744.638 1028.23 745.078Z" fill="#FCD577"/>
<path d="M1090.05 747.421C1128.67 686.615 1135.22 616.167 1132.76 563.192C1131.58 537.588 1128.25 513.986 1124.48 494.22C1123.27 494.088 1122.09 493.964 1120.9 493.835C1132.99 557.586 1140.64 663.068 1086.3 747.188C1087.54 747.263 1088.8 747.344 1090.05 747.421Z" fill="#FCD577"/>
<path d="M1162.75 754.345C1163.96 754.503 1165.17 754.671 1166.38 754.835C1208.28 692.789 1215.33 619.603 1212.8 564.988C1211.79 543.191 1209.23 522.841 1206.16 505.074C1204.94 504.885 1203.75 504.706 1202.54 504.522C1213.84 570.31 1218.41 673.147 1162.75 754.345Z" fill="#FCD577"/>
<path d="M1234.73 767.18C1235.9 767.452 1237.06 767.73 1238.23 768.008C1287.41 703.705 1295.52 624.769 1292.83 566.777C1292.05 549.921 1290.34 533.94 1288.19 519.335C1286.98 519.101 1285.74 518.857 1284.54 518.628C1294.69 587.669 1295.15 689.243 1234.73 767.18Z" fill="#FCD577"/>
<path d="M1316.02 767.29C1310.9 774.022 1305.36 780.595 1299.31 786.946C1300.41 787.385 1301.5 787.838 1302.58 788.289C1307.08 783.518 1311.27 778.627 1315.24 773.653L1316.02 767.29Z" fill="#FCD577"/>
<path d="M720.948 605.138C777.414 554.966 791.781 523.488 783.774 510.063C778.476 501.184 761.922 497.792 731.438 505.018C776.385 460.737 787.405 432.902 779.803 420.715C772.488 408.989 745.213 407.499 691.798 428.661C709.05 403.629 712.201 387.214 706.509 378.909C694.998 362.128 641.172 369.413 526.595 441.736C532.863 414.075 529.823 398.018 521.386 391.769C507.597 381.552 474.11 393.639 419.004 447.17C419.005 447.163 419.013 447.121 419.013 447.121C404.542 460.714 388.559 476.472 372.531 493.349C355.998 511.143 343.033 524.649 321.671 564.987C321.485 565.341 321.299 565.702 321.113 566.053C320.151 567.894 319.185 569.732 318.202 571.63C318.115 571.801 318.029 571.963 317.942 572.134C317.938 572.143 317.933 572.153 317.929 572.162L317.925 572.168C310.503 586.474 302.482 602.351 293.939 618.839C293.476 619.732 293.013 620.628 292.546 621.523C291.339 623.847 290.12 626.183 288.891 628.524C288.175 629.893 287.459 631.261 286.735 632.635C286.007 634.015 285.276 635.398 284.544 636.781C283.671 638.431 282.788 640.083 281.904 641.738C280.982 643.465 280.056 645.188 279.124 646.917C278.264 648.51 277.401 650.105 276.535 651.696C275.882 652.897 275.23 654.094 274.57 655.294C273.276 657.653 271.973 660.009 270.659 662.363C270.062 663.431 269.462 664.499 268.862 665.564C267.843 667.375 266.819 669.182 265.791 670.982C265.256 671.922 264.721 672.863 264.183 673.8C242.519 711.47 218.689 746.738 193.693 768.236L307.484 868.495C333.16 856.913 358.927 847.162 384.026 838.708C386.545 837.858 389.059 837.024 391.565 836.202C391.72 836.151 391.875 836.101 392.027 836.05C430.628 823.394 467.399 813.756 499.475 805.308C500.958 804.917 502.425 804.531 503.888 804.144C504.497 803.983 505.105 803.822 505.71 803.661C522.065 799.347 537.072 795.318 550.375 791.319C564.94 786.654 589.067 777.572 617.636 759.26C737.659 678.763 768.347 630.063 758.461 612.683C754.383 605.521 742.412 602.004 720.948 605.138Z" fill="#FFBB86"/>
<path d="M720.359 511.307C674.351 538.714 612.065 576.758 568.864 606.801" stroke="black" stroke-width="1.31277" stroke-miterlimit="10" stroke-linecap="round" stroke-linejoin="round"/>
<path d="M678.64 437.002C618.987 475.212 538.41 527.163 525.47 537.234" stroke="black" stroke-width="1.31277" stroke-miterlimit="10" stroke-linecap="round" stroke-linejoin="round"/>
<path d="M708.723 611.493C669.056 632.112 625.634 655.378 606.918 667.808" stroke="black" stroke-width="1.31277" stroke-miterlimit="10" stroke-linecap="round" stroke-linejoin="round"/>
<path d="M738.45 433.773C736.552 430.729 738.302 426.641 741.773 425.987C755.492 423.395 763.261 425.344 766.063 429.838C768.866 434.333 767.369 442.438 759.402 454.248C757.385 457.238 753.054 457.188 751.156 454.147L738.45 433.773Z" stroke="black" stroke-width="1.31277" stroke-miterlimit="10" stroke-linecap="round" stroke-linejoin="round"/>
<path d="M742.47 521.784C740.673 518.679 742.551 514.651 746.041 514.114C759.832 511.991 767.532 514.206 770.19 518.796C772.845 523.385 771.087 531.434 762.747 542.971C760.636 545.893 756.31 545.695 754.512 542.587L742.47 521.784Z" stroke="black" stroke-width="1.31277" stroke-miterlimit="10" stroke-linecap="round" stroke-linejoin="round"/>
<path d="M720.022 622.779C718.361 619.91 720.096 616.188 723.323 615.692C736.065 613.732 743.18 615.776 745.633 620.016C748.086 624.257 746.463 631.694 738.755 642.352C736.805 645.048 732.807 644.868 731.146 641.998L720.022 622.779Z" stroke="black" stroke-width="1.31277" stroke-miterlimit="10" stroke-linecap="round" stroke-linejoin="round"/>
<path d="M665.684 393.845C663.634 390.908 665.179 386.736 668.614 385.895C682.189 382.585 690.048 384.117 693.075 388.457C696.101 392.797 695.007 400.965 687.642 413.18C685.779 416.27 681.449 416.453 679.399 413.516L665.684 393.845Z" stroke="black" stroke-width="1.31277" stroke-miterlimit="10" stroke-linecap="round" stroke-linejoin="round"/>
<path d="M485.387 419.477C482.48 417.444 482.544 412.992 485.501 410.995C497.184 403.109 505.099 401.776 509.393 404.779C513.688 407.779 515.379 415.82 512.506 429.861C511.777 433.414 507.762 435.107 504.854 433.078L485.387 419.477Z" stroke="black" stroke-width="1.31277" stroke-miterlimit="10" stroke-linecap="round" stroke-linejoin="round"/>
<path d="M166.257 747.458C166.257 747.458 103.402 748.698 23.728 793.665L0.000505628 987.853L281.634 1022.27C315.059 967.141 313.241 903.634 313.241 903.634C297.084 772.162 166.257 747.458 166.257 747.458Z" fill="#77C9C7"/>
<path d="M166.255 747.458C166.255 747.458 258.355 792.968 313.24 903.634C387.202 906.415 411.156 829.974 411.156 829.974C356.274 719.312 264.172 673.798 264.172 673.798C264.172 673.798 190.608 683.245 166.255 747.458Z" fill="#AFE2E0"/>
<path d="M271.287 809.919C271.287 809.919 300.018 772.447 336.918 757.929" stroke="black" stroke-width="1.31277" stroke-miterlimit="10" stroke-linecap="round" stroke-linejoin="round"/>
<path d="M313.576 853.141C313.576 853.141 349.778 814.385 370.042 810.277" stroke="black" stroke-width="1.31277" stroke-miterlimit="10" stroke-linecap="round" stroke-linejoin="round"/>
<path d="M221.741 754.238C221.741 754.238 255.961 715.19 286.788 713.015" stroke="black" stroke-width="1.31277" stroke-miterlimit="10" stroke-linecap="round" stroke-linejoin="round"/>
</svg>
